<svg width="168" height="51" viewBox="0 0 168 51" fill="none" xmlns="http://www.w3.org/2000/svg">
  <path fill-rule="evenodd" clip-rule="evenodd" d="M30.293 22.9559L28.9583 21.5953V21.5925C17.0127 9.56834 5.13103 2.0347 2.41435 4.76708C1.3021 5.88971 1.90271 8.56329 3.82691 12.1551C1.06871 16.5835 -0.254455 21.7654 0.0404514 26.9839C0.292766 31.4488 1.71885 35.7517 4.15422 39.4597C4.81205 40.4613 6.21563 40.5367 7.05993 39.6864L13.4432 33.2575C13.6384 33.0609 13.7199 32.7783 13.6592 32.508C13.4404 31.3147 13.6126 30.0821 14.1498 28.9958C14.687 27.9096 15.5602 27.0284 16.6379 26.4851C17.7156 25.9417 18.9394 25.7655 20.1251 25.9831C21.3109 26.2006 22.3943 26.8001 23.2123 27.6913C24.0303 28.5825 24.5387 29.7171 24.6607 30.9244C24.7828 32.1316 24.5121 33.3461 23.8892 34.385C23.2664 35.4238 22.3252 36.2309 21.2073 36.6846C20.2696 37.0652 19.2501 37.1798 18.2585 37.0218C17.9041 36.9653 17.535 37.0577 17.2821 37.3123L10.9706 43.6669C10.1337 44.5094 10.2083 45.8976 11.1961 46.5567C14.8831 49.0165 19.1639 50.4569 23.6061 50.7114C28.7883 51.0084 33.9341 49.6767 38.3318 46.9006C41.9021 48.8351 44.5604 49.4398 45.6726 48.3199C48.0779 45.8983 42.4777 36.2286 32.8623 25.691L31.586 24.3137L30.293 22.9559Z" fill="black"/>
  <path fill-rule="evenodd" clip-rule="evenodd" d="M47.9172 5.73888C47.6378 5.00338 47.2074 4.3355 46.6542 3.77883C46.1012 3.22296 45.438 2.79067 44.7079 2.51014C43.9778 2.22961 43.1972 2.10715 42.417 2.15074C41.6367 2.19432 40.8744 2.40297 40.1796 2.76309C39.4848 3.12321 38.8732 3.62671 38.3846 4.24076C34.8993 2.03098 30.9268 0.719921 26.8185 0.423529C23.9743 0.218338 21.1257 0.503828 18.3934 1.25865C16.8433 1.6869 16.6774 3.70343 17.9897 4.63306C22.1658 7.59145 26.6935 11.5209 31.3969 16.1473L32.8901 17.6367C38.1151 22.895 42.5359 27.9664 45.7846 32.608C46.7124 33.9337 48.7445 33.7667 49.168 32.205C49.9113 29.4637 50.1919 26.6066 49.9889 23.7539C49.6945 19.6181 48.3926 15.6191 46.1982 12.1103C46.8088 11.6183 47.3095 11.002 47.6674 10.3019C48.0254 9.60176 48.2327 8.83347 48.2757 8.04721C48.3188 7.26094 48.1966 6.47438 47.9172 5.73888Z" fill="black"/>
  <path d="M74.4654 38C73.9587 38 73.5054 37.8667 73.1054 37.6C72.7054 37.3333 72.4387 36.9867 72.3054 36.56C71.9054 35.1467 71.0121 32.36 69.6254 28.2C68.4254 24.6267 67.5454 21.68 66.9854 19.36C66.7721 18.7467 66.8654 18.1867 67.2654 17.68C67.6921 17.1467 68.2654 16.88 68.9854 16.88C69.9987 16.88 70.6387 17.4133 70.9054 18.48C71.6254 21.12 72.4921 23.9333 73.5054 26.92C73.9054 28.1733 74.1721 29.2133 74.3054 30.04L75.2254 27.24L75.7854 25.56C75.7587 25.64 76.0521 24.72 76.6654 22.8C76.8254 22.32 76.9854 21.8267 77.1454 21.32C77.3054 20.7867 77.4787 20.2533 77.6654 19.72C78.1187 18.4667 78.9187 17.84 80.0654 17.84C80.6254 17.84 81.0787 18 81.4254 18.32C81.7987 18.64 82.1187 19.1733 82.3854 19.92C83.6387 23.44 84.8387 27.1867 85.9854 31.16L86.8654 27.56C87.0787 26.6 87.3187 25.56 87.5854 24.44C88.1187 22.2 88.6387 20.2133 89.1454 18.48C89.2787 17.9733 89.5187 17.5733 89.8654 17.28C90.2121 16.9867 90.5987 16.84 91.0254 16.84C91.6921 16.84 92.2121 17.0933 92.5854 17.6C92.9587 18.1067 93.0387 18.7067 92.8254 19.4C92.7987 19.4533 92.6921 19.9333 92.5054 20.84C92.2121 22.1467 91.8787 23.48 91.5054 24.84L90.6254 28.04C89.6121 31.8267 88.8787 34.3867 88.4254 35.72C87.8387 37.24 87.0254 38 85.9854 38C85.4254 38 84.9321 37.8267 84.5054 37.48C84.0787 37.1333 83.7587 36.6533 83.5454 36.04L82.9054 34.08C82.2921 32.2667 81.2254 29.0533 79.7054 24.44L79.0254 26.84C77.7987 31.0533 77.0521 33.76 76.7854 34.96C76.5454 35.9733 76.2254 36.7333 75.8254 37.24C75.4254 37.7467 74.9721 38 74.4654 38ZM106.948 37.36C105.988 37.7333 104.895 37.9467 103.668 38C102.468 38.0533 101.348 37.92 100.308 37.6C99.2679 37.2533 98.3479 36.7333 97.5479 36.04C96.1612 34.8933 95.2679 33.4667 94.8679 31.76C94.4679 30.0533 94.4546 28.52 94.8279 27.16C95.2012 25.8 95.7612 24.48 96.5079 23.2C97.2812 21.8933 98.1079 20.8 98.9879 19.92C99.8946 19.0133 100.935 18.2533 102.108 17.64C103.281 17.0267 104.508 16.7333 105.788 16.76C107.068 16.76 108.415 17.1067 109.828 17.8C110.041 17.9067 110.268 18.0667 110.508 18.28C110.775 18.4933 111.001 18.68 111.188 18.84L111.708 19.36C111.868 19.52 111.948 19.6133 111.948 19.64C112.375 20.0133 112.601 20.4933 112.628 21.08C112.975 22.68 113.201 24.36 113.308 26.12C113.415 27.88 113.441 29.5333 113.388 31.08C113.361 32.6267 113.388 34.2667 113.468 36C113.495 36.5333 113.321 37 112.948 37.4C112.575 37.8 112.108 38.0133 111.548 38.04C110.988 38.0667 110.508 37.8933 110.108 37.52C109.708 37.1467 109.495 36.6933 109.468 36.16V35.56C108.668 36.3867 107.828 36.9867 106.948 37.36ZM105.148 33.76C105.548 33.6533 105.868 33.5467 106.108 33.44C106.348 33.3333 106.641 33.1733 106.988 32.96C107.361 32.7467 107.748 32.48 108.148 32.16C108.548 31.84 108.908 31.44 109.228 30.96C109.281 30.9067 109.348 30.8533 109.428 30.8C109.428 27.2 109.201 24.3067 108.748 22.12C108.668 22.0133 108.575 21.92 108.468 21.84C108.388 21.7333 108.321 21.6533 108.268 21.6C108.241 21.5467 108.188 21.5067 108.108 21.48C108.055 21.4267 107.988 21.3733 107.908 21.32C106.628 20.6267 105.281 20.6133 103.868 21.28C102.455 21.92 101.215 23.1333 100.148 24.92C99.0812 26.7333 98.5479 28.32 98.5479 29.68C98.5746 31.0133 99.0946 32.12 100.108 33C100.721 33.5067 101.481 33.8267 102.388 33.96C103.295 34.0933 104.215 34.0267 105.148 33.76ZM139.645 46.04C139.085 46.0933 138.591 45.9333 138.165 45.56C137.738 45.2133 137.498 44.76 137.445 44.2C137.391 43.6667 137.538 43.1867 137.885 42.76C138.258 42.3333 138.711 42.0933 139.245 42.04C139.511 42.0133 139.831 41.9867 140.205 41.96C140.578 41.9333 140.818 41.9067 140.925 41.88C141.058 41.88 141.218 41.8533 141.405 41.8C141.591 41.7733 141.738 41.72 141.845 41.64L142.245 41.4C142.885 41.08 143.458 40.1867 143.965 38.72C144.125 38.2667 144.285 37.9467 144.445 37.76C144.258 37.5467 144.111 37.2933 144.005 37C143.525 34.9467 142.538 31.9067 141.045 27.88C139.711 24.3333 138.725 21.4933 138.085 19.36C137.925 18.8267 137.978 18.32 138.245 17.84C138.511 17.36 138.911 17.04 139.445 16.88C139.978 16.72 140.485 16.7733 140.965 17.04C141.445 17.3067 141.765 17.7067 141.925 18.24C142.431 19.9467 143.391 22.6933 144.805 26.48L146.325 30.64C148.191 24.9333 149.898 20.6533 151.445 17.8C151.711 17.32 152.111 17 152.645 16.84C153.178 16.68 153.685 16.7333 154.165 17C154.645 17.2667 154.965 17.6667 155.125 18.2C155.285 18.7333 155.231 19.24 154.965 19.72C154.271 21 153.551 22.56 152.805 24.4C152.058 26.24 151.471 27.7867 151.045 29.04C150.618 30.2933 150.058 32.04 149.365 34.28C149.205 34.8133 149.098 35.1867 149.045 35.4C148.911 35.7467 148.725 36.44 148.485 37.48C148.191 38.4667 147.951 39.2667 147.765 39.88C147.018 41.96 146.005 43.5067 144.725 44.52C144.351 44.8133 143.978 45.0533 143.605 45.24C143.231 45.4533 142.831 45.6 142.405 45.68C142.005 45.7867 141.685 45.8533 141.445 45.88C141.205 45.9333 140.858 45.96 140.405 45.96C139.978 45.9867 139.725 46.0133 139.645 46.04Z" fill="black"/>
  <path d="M118.524 36.08C118.471 34.08 118.471 31.0133 118.524 26.88C118.604 22.7467 118.644 20.04 118.644 18.76C118.644 18.2 118.831 17.7333 119.204 17.36C119.604 16.96 120.084 16.76 120.644 16.76C121.204 16.76 121.671 16.96 122.044 17.36C122.444 17.7333 122.644 18.2 122.644 18.76C122.644 20.04 122.604 22.7333 122.524 26.84C122.471 30.9467 122.471 34 122.524 36C122.524 36.56 122.337 37.04 121.964 37.44C121.591 37.84 121.124 38.04 120.564 38.04C120.004 38.04 119.524 37.8533 119.124 37.48C118.724 37.1067 118.524 36.64 118.524 36.08ZM122.244 9.84C122.697 10.2933 122.924 10.8533 122.924 11.52C122.924 12.1867 122.697 12.7467 122.244 13.2C121.791 13.6533 121.231 13.88 120.564 13.88C119.897 13.88 119.337 13.6533 118.884 13.2C118.431 12.7467 118.204 12.1867 118.204 11.52C118.204 10.8533 118.431 10.2933 118.884 9.84C119.337 9.38667 119.897 9.16 120.564 9.16C121.257 9.13333 121.817 9.36 122.244 9.84Z" fill="#6153CC"/>
  <path d="M134.499 37.88C134.339 37.8267 134.006 37.7467 133.499 37.64C133.019 37.5333 132.592 37.4133 132.219 37.28C131.872 37.1467 131.459 36.96 130.979 36.72C130.526 36.4533 130.112 36.1067 129.739 35.68C129.366 35.2267 129.046 34.6933 128.779 34.08C128.486 33.36 128.299 31.9467 128.219 29.84C128.139 28.2133 128.126 26.12 128.179 23.56C128.179 23.08 128.192 22.28 128.219 21.16L127.899 21.2C127.339 21.2533 126.846 21.1067 126.419 20.76C125.992 20.4133 125.739 19.9733 125.659 19.44C125.606 18.88 125.752 18.3867 126.099 17.96C126.446 17.5333 126.886 17.28 127.419 17.2L128.339 17.12C128.366 15.7067 128.406 14.28 128.459 12.84C128.486 12.28 128.699 11.8133 129.099 11.44C129.499 11.0667 129.979 10.8933 130.539 10.92C131.099 10.9467 131.566 11.16 131.939 11.56C132.312 11.96 132.486 12.44 132.459 13L132.339 16.8L133.659 16.72C134.219 16.6933 134.699 16.8533 135.099 17.2C135.526 17.5467 135.752 18 135.779 18.56C135.832 19.12 135.686 19.6133 135.339 20.04C134.992 20.44 134.539 20.6667 133.979 20.72L132.219 20.8C132.192 22.08 132.179 23.0133 132.179 23.6C132.126 26.1067 132.139 28.1467 132.219 29.72C132.272 31.32 132.352 32.24 132.459 32.48C132.566 32.72 132.646 32.8933 132.699 33C132.752 33.08 132.846 33.1733 132.979 33.28C133.139 33.36 133.299 33.4133 133.459 33.44C133.619 33.4667 133.912 33.5467 134.339 33.68C134.792 33.7867 135.272 33.9333 135.779 34.12C136.286 34.28 136.659 34.6133 136.899 35.12C137.166 35.6 137.206 36.1067 137.019 36.64C136.859 37.1467 136.526 37.5333 136.019 37.8C135.539 38.04 135.032 38.0667 134.499 37.88Z" fill="#FFB800"/>
</svg>
