<svg width="129" height="143" viewBox="0 0 129 143" fill="none" xmlns="http://www.w3.org/2000/svg">
  <path d="M14.625 142.75H114.375C122.234 142.75 128.625 136.359 128.625 128.5V28.75C128.625 20.8911 122.234 14.5 114.375 14.5H102.125C101.02 14.5 100.125 13.6046 100.125 12.5V7.375C100.125 3.43997 96.935 0.25 93 0.25C89.065 0.25 85.875 3.43997 85.875 7.375V12.5C85.875 13.6046 84.9796 14.5 83.875 14.5H45.125C44.0204 14.5 43.125 13.6046 43.125 12.5V7.375C43.125 3.43997 39.935 0.25 36 0.25C32.065 0.25 28.875 3.43997 28.875 7.375V12.5C28.875 13.6046 27.9796 14.5 26.875 14.5H14.625C6.76612 14.5 0.375 20.8911 0.375 28.75V128.5C0.375 136.359 6.76612 142.75 14.625 142.75ZM49.4035 127.823C49.0285 128.197 48.5202 128.407 47.9903 128.407H38C36.8954 128.407 36 127.512 36 126.407V116.419C36 115.888 36.2111 115.379 36.5868 115.004L65.0522 86.5782C68.5925 83.0429 74.3278 83.0449 77.8656 86.5827C81.4069 90.124 81.4049 95.8662 77.861 99.4051L49.4035 127.823ZM95.1998 82.0788C92.5011 84.7756 88.1274 84.7748 85.4297 82.0771L82.3838 79.0311C79.6846 76.332 79.6854 71.9556 82.3855 69.2574C85.0843 66.5606 89.4579 66.5614 92.1557 69.2592L95.2016 72.3051C97.9008 75.0043 97.9 79.3807 95.1998 82.0788ZM14.625 43C14.625 39.065 17.815 35.875 21.75 35.875H107.25C111.185 35.875 114.375 39.065 114.375 43C114.375 46.935 111.185 50.125 107.25 50.125H21.75C17.815 50.125 14.625 46.935 14.625 43Z" fill="#FFB800"/>
</svg>
