<svg width="587" height="499" viewBox="0 0 587 499" fill="none" xmlns="http://www.w3.org/2000/svg">
  <g clip-path="url(#clip0)">
    <path d="M145.438 126.579C135.345 98.11 104.175 82.2871 83.6701 88.7598C63.165 95.2324 48.3601 125.567 58.4535 154.037C67.7962 180.389 96.106 195.602 115.581 192.887C115.441 193.117 115.348 193.371 115.309 193.634L114.713 198.321C114.668 198.678 114.72 199.04 114.865 199.373C115.009 199.706 115.242 199.998 115.54 200.223C115.838 200.447 116.192 200.596 116.568 200.654C116.945 200.713 117.33 200.68 117.689 200.559L127.721 197.165C128.08 197.043 128.4 196.837 128.651 196.566C128.902 196.295 129.075 195.968 129.155 195.616C129.234 195.264 129.217 194.899 129.104 194.555C128.992 194.212 128.788 193.901 128.512 193.652L124.896 190.39C124.768 190.279 124.626 190.183 124.473 190.103C141.843 181.271 154.801 152.989 145.438 126.579Z" fill="black"/>
    <path d="M108.899 105.634C117.281 109.716 123.682 116.679 126.781 125.085C129.88 133.491 129.441 142.699 125.553 150.809C124.685 152.673 127.878 153.654 128.74 151.802C132.822 143.027 133.237 133.121 129.902 124.07C126.568 115.019 119.73 107.492 110.76 102.999C108.867 102.052 106.991 104.68 108.899 105.634Z" fill="white"/>
    <path d="M554.084 85.081C543.991 56.6117 512.821 40.7889 492.316 47.2615C471.811 53.7341 457.006 84.0691 467.1 112.538C476.442 138.89 504.752 154.103 524.227 151.389C524.086 151.619 523.994 151.873 523.955 152.136L523.359 156.822C523.314 157.18 523.366 157.542 523.511 157.875C523.655 158.208 523.888 158.5 524.186 158.724C524.484 158.949 524.838 159.097 525.214 159.156C525.591 159.215 525.976 159.182 526.335 159.061L536.367 155.667C536.726 155.545 537.046 155.339 537.297 155.068C537.548 154.797 537.721 154.47 537.801 154.118C537.88 153.766 537.862 153.401 537.75 153.057C537.638 152.713 537.434 152.402 537.158 152.154L533.542 148.892C533.414 148.781 533.271 148.685 533.119 148.605C550.489 139.772 563.447 111.49 554.084 85.081Z" fill="black"/>
    <path d="M517.545 64.1357C525.927 68.2176 532.328 75.1802 535.427 83.5865C538.526 91.9928 538.087 101.201 534.199 109.31C533.331 111.175 536.524 112.156 537.386 110.303C541.468 101.529 541.883 91.6228 538.548 82.5716C535.214 73.5205 528.376 65.9936 519.406 61.5003C517.513 60.5536 515.637 63.182 517.545 64.1357Z" fill="white"/>
    <path d="M316.776 39.2599C306.683 10.7905 275.513 -5.03231 255.008 1.4403C234.503 7.91291 219.698 38.2479 229.792 66.7173C239.134 93.0692 267.444 108.282 286.919 105.567C286.779 105.798 286.686 106.051 286.647 106.315L286.051 111.001C286.006 111.358 286.058 111.721 286.203 112.054C286.347 112.387 286.58 112.679 286.878 112.903C287.176 113.127 287.53 113.276 287.907 113.335C288.283 113.394 288.669 113.361 289.028 113.24L299.059 109.845C299.418 109.724 299.739 109.518 299.989 109.247C300.24 108.976 300.414 108.649 300.493 108.297C300.572 107.945 300.555 107.58 300.442 107.236C300.33 106.892 300.126 106.581 299.85 106.332L296.234 103.071C296.106 102.96 295.964 102.863 295.811 102.784C313.181 93.9512 326.139 65.6691 316.776 39.2599Z" fill="#FFB800"/>
    <path d="M280.237 18.3145C288.619 22.3964 295.02 29.3591 298.119 37.7654C301.219 46.1717 300.779 55.3799 296.892 63.4893C296.023 65.3539 299.216 66.3344 300.078 64.482C304.16 55.7076 304.575 45.8016 301.24 36.7505C297.906 27.6994 291.068 20.1724 282.098 15.6791C280.205 14.7325 278.329 17.3608 280.237 18.3145Z" fill="white"/>
    <path d="M266.154 176.249C267.482 176.249 268.558 175.233 268.558 173.98C268.558 172.727 267.482 171.711 266.154 171.711C264.826 171.711 263.749 172.727 263.749 173.98C263.749 175.233 264.826 176.249 266.154 176.249Z" fill="#CCCCCC"/>
    <path d="M261.028 267.268C263.652 267.268 265.779 265.261 265.779 262.786C265.779 260.31 263.652 258.303 261.028 258.303C258.405 258.303 256.278 260.31 256.278 262.786C256.278 265.261 258.405 267.268 261.028 267.268Z" fill="#CCCCCC"/>
    <path d="M181.502 250.009C183.018 250.009 184.247 248.849 184.247 247.419C184.247 245.988 183.018 244.829 181.502 244.829C179.986 244.829 178.757 245.988 178.757 247.419C178.757 248.849 179.986 250.009 181.502 250.009Z" fill="#CCCCCC"/>
    <path d="M223.203 207.599C224.845 207.599 226.175 206.344 226.175 204.795C226.175 203.245 224.845 201.99 223.203 201.99C221.561 201.99 220.23 203.245 220.23 204.795C220.23 206.344 221.561 207.599 223.203 207.599Z" fill="#CCCCCC"/>
    <path d="M369.477 371.818C370.805 371.818 371.881 370.802 371.881 369.549C371.881 368.296 370.805 367.28 369.477 367.28C368.149 367.28 367.072 368.296 367.072 369.549C367.072 370.802 368.149 371.818 369.477 371.818Z" fill="#CCCCCC"/>
    <path d="M290.726 325.163C293.349 325.163 295.476 323.156 295.476 320.68C295.476 318.205 293.349 316.198 290.726 316.198C288.102 316.198 285.975 318.205 285.975 320.68C285.975 323.156 288.102 325.163 290.726 325.163Z" fill="#CCCCCC"/>
    <path d="M344.819 266.158C346.335 266.158 347.564 264.999 347.564 263.568C347.564 262.138 346.335 260.978 344.819 260.978C343.303 260.978 342.074 262.138 342.074 263.568C342.074 264.999 343.303 266.158 344.819 266.158Z" fill="#CCCCCC"/>
    <path d="M362.87 321.826C364.512 321.826 365.843 320.57 365.843 319.021C365.843 317.472 364.512 316.216 362.87 316.216C361.229 316.216 359.898 317.472 359.898 319.021C359.898 320.57 361.229 321.826 362.87 321.826Z" fill="#CCCCCC"/>
    <path d="M102.665 448.848C110.113 448.848 116.151 443.15 116.151 436.122C116.151 429.094 110.113 423.397 102.665 423.397C95.2167 423.397 89.1786 429.094 89.1786 436.122C89.1786 443.15 95.2167 448.848 102.665 448.848Z" fill="white"/>
    <path d="M82.2832 458.981C82.2832 462.625 92.2275 469.821 103.262 469.821C114.297 469.821 124.643 459.561 124.643 455.917C124.643 452.273 114.297 456.624 103.262 456.624C92.2276 456.624 82.2832 455.337 82.2832 458.981Z" fill="white"/>
    <path d="M282.273 399.496L284.738 398.648L287.177 397.848L289.63 397.078C308.318 391.363 323.656 389.919 325.359 394.047C326.146 395.957 323.89 398.769 319.445 401.946C320.475 408.613 319.264 415.392 315.978 421.344C313.029 426.687 308.541 431.127 303.031 434.181C302.004 434.751 300.745 434.296 300.316 433.256L295.467 421.495C295.329 421.16 295.402 420.775 295.623 420.472C296.436 419.359 296.896 418.048 296.945 416.688C297.001 415.127 296.512 413.587 295.552 412.298C294.592 411.009 293.213 410.042 291.622 409.542C290.031 409.041 288.315 409.035 286.732 409.524C285.149 410.013 283.784 410.971 282.844 412.253C281.903 413.535 281.438 415.072 281.518 416.633C281.598 418.194 282.218 419.694 283.286 420.907C284.354 422.12 285.811 422.981 287.439 423.359L287.519 423.375C287.845 423.438 288.114 423.654 288.237 423.952L293.026 435.563C293.487 436.68 292.788 437.963 291.545 438.17C285.29 439.214 278.812 438.634 272.823 436.471C266.078 434.034 260.287 429.708 256.253 424.093C250.643 424.445 246.935 423.727 246.144 421.816C244.225 417.154 260.399 407.164 282.27 399.494L282.273 399.496ZM269.749 369.122C270.762 368.766 271.846 368.615 272.93 368.678C274.015 368.741 275.075 369.017 276.042 369.487C277.009 369.957 277.862 370.612 278.543 371.408C279.225 372.203 279.721 373.123 279.998 374.105C285.655 373.39 291.429 373.989 296.809 375.849C300.905 377.265 304.677 379.379 307.936 382.071C309.195 383.11 308.445 385.06 306.781 385.332C298.841 386.631 289.546 389.22 279.491 392.747L276.774 393.713C267.706 397.005 259.757 400.486 253.472 404.081C252.078 404.878 250.334 403.975 250.513 402.433C250.986 398.338 252.293 394.361 254.376 390.721C257.058 386.035 260.942 382.05 265.687 379.119C265.187 378.216 264.895 377.226 264.832 376.214C264.768 375.203 264.933 374.193 265.316 373.249C265.7 372.306 266.293 371.451 267.057 370.74C267.82 370.028 268.738 369.477 269.749 369.122Z" fill="black"/>
    <path d="M154.306 442.522C153.953 442.605 153.579 442.552 153.266 442.374C152.954 442.197 152.73 441.91 152.642 441.576L92.8958 262.946L95.5635 262.322L155.31 440.951C155.353 441.117 155.361 441.288 155.335 441.457C155.308 441.625 155.246 441.787 155.153 441.933C155.06 442.079 154.937 442.206 154.792 442.307C154.647 442.408 154.482 442.481 154.306 442.522Z" fill="#3F3D56"/>
    <path d="M81.0268 418.179L84.9063 416.845L88.7435 415.586L92.6048 414.374C122.013 405.38 146.151 403.108 148.83 409.605C150.068 412.61 146.519 417.035 139.524 422.036C141.145 432.527 139.238 443.195 134.068 452.562C129.234 461.32 121.77 468.537 112.601 473.353C111.561 473.9 110.303 473.446 109.874 472.406L101.661 452.486C101.522 452.15 101.593 451.765 101.824 451.469C103.234 449.66 104.034 447.49 104.115 445.234C104.203 442.778 103.434 440.354 101.923 438.326C100.412 436.298 98.242 434.775 95.7386 433.988C93.2353 433.201 90.5346 433.191 88.0432 433.961C85.5518 434.731 83.4045 436.238 81.9247 438.255C80.4448 440.273 79.7125 442.692 79.838 445.148C79.9635 447.604 80.94 449.964 82.6204 451.874C84.3009 453.783 86.5944 455.137 89.1556 455.733L89.5812 455.816C89.9076 455.879 90.176 456.095 90.2989 456.393L98.4538 476.161C98.9145 477.278 98.2161 478.56 96.9777 478.797C86.7162 480.763 76.0141 479.928 66.1558 476.366C55.5403 472.531 46.4281 465.724 40.0796 456.887C31.2516 457.441 25.4157 456.311 24.1714 453.304C21.1513 445.968 46.603 430.246 81.0212 418.177L81.0268 418.179ZM61.3183 370.38C62.9119 369.821 64.6176 369.583 66.324 369.682C68.0303 369.781 69.699 370.215 71.2211 370.955C72.7432 371.695 74.0844 372.725 75.1571 373.977C76.2299 375.23 77.0101 376.676 77.4467 378.222C86.3486 377.097 95.4344 378.039 103.901 380.966C111.084 383.449 117.633 387.296 123.14 392.246C124.352 393.336 123.588 395.286 121.921 395.53C108.93 397.428 93.4639 401.66 76.6478 407.559L72.3726 409.079C57.2083 414.585 44.0324 420.426 33.8729 426.461C32.493 427.281 30.7427 426.384 30.8545 424.839C31.3722 417.678 33.5037 410.701 37.126 404.371C41.3458 396.996 47.4589 390.725 54.9246 386.113C54.1381 384.691 53.6797 383.133 53.5793 381.541C53.479 379.95 53.7389 378.36 54.3422 376.875C54.9454 375.391 55.8785 374.045 57.0805 372.926C58.2825 371.807 59.7265 370.939 61.3183 370.38Z" fill="#FFB800"/>
    <path d="M530.055 173.793C528.745 135.614 501.033 105.479 468.158 106.483C394.993 108.529 393.206 235.129 463.845 244.223L462.349 255.441L484.166 254.775L481.905 243.672C510.321 237.745 531.242 208.406 530.055 173.793Z" fill="#FFB800"/>
    <path d="M431.775 194.96L423.533 195.212C420.302 180.719 419.79 165.803 422.021 151.143L430.262 150.891C427.218 166.237 427.722 180.927 431.775 194.96Z" fill="white"/>
    <path d="M485.235 243.497L460.509 244.252L460.687 249.437L485.413 248.682L485.235 243.497Z" fill="#3F3D56"/>
    <path d="M413.418 442.021L410.928 440.921L472.145 245.039L474.634 246.139L413.418 442.021Z" fill="#3F3D56"/>
    <path d="M580.721 206.077C595.671 170.579 583.011 132.511 552.444 121.05C484.495 95.3677 429.3 210.772 490.22 245.716L484.103 255.438L504.388 263.044L507.012 252.012C535.573 257.281 567.168 238.26 580.721 206.077Z" fill="#6C63FF"/>
    <path d="M481.656 188.468L473.992 185.595C477.161 171.089 483.002 157.221 491.249 144.619L498.912 147.493C489.629 160.417 483.877 174.075 481.656 188.468Z" fill="white"/>
    <path d="M487.15 244.486L485.119 249.307L508.109 257.927L510.139 253.106L487.15 244.486Z" fill="#3F3D56"/>
    <path d="M412.934 436.865L410.545 435.582L496.011 251.547L498.4 252.829L412.934 436.865Z" fill="#3F3D56"/>
    <path d="M116.173 176.259C99.9984 141.243 62.443 122.908 32.2906 135.309C-34.8902 162.73 13.0486 280.986 82.2462 264.796L85.2515 275.741L105.262 267.512L98.8103 257.984C122.892 242.566 130.837 208.006 116.173 176.259Z" fill="#6C63FF"/>
    <path d="M33.1475 230.209L25.5881 233.318C16.9079 220.978 10.5888 207.298 6.91797 192.898L14.4774 189.789C17.6611 205.11 23.8845 218.583 33.1475 230.209Z" fill="white"/>
    <path d="M460.404 431.991L463.045 433.16L465.626 434.347L468.193 435.568C487.621 444.988 500.848 455.264 498.726 459.765C497.744 461.847 493.623 462.372 487.48 461.557C482.706 467.547 476.082 471.958 468.525 474.178C461.716 476.179 454.452 476.313 447.555 474.589C446.353 474.288 445.751 472.989 446.259 471.91L452.372 458.945C452.518 458.636 452.822 458.432 453.17 458.378C454.789 458.128 456.298 457.433 457.509 456.374C458.859 455.193 459.765 453.622 460.092 451.898C460.419 450.174 460.148 448.391 459.32 446.816C458.492 445.241 457.153 443.96 455.503 443.165C453.853 442.371 451.982 442.107 450.172 442.412C448.362 442.717 446.71 443.576 445.466 444.858C444.222 446.14 443.453 447.777 443.274 449.522C443.095 451.266 443.517 453.025 444.475 454.532L444.524 454.603C444.725 454.893 444.759 455.261 444.612 455.572L438.449 468.65C437.96 469.687 436.651 470.074 435.652 469.426C429.708 465.574 424.987 460.211 422.047 453.936C418.801 447.01 417.885 439.314 419.425 431.914C414.734 428.018 412.43 424.697 413.409 422.611C415.808 417.531 436.844 421.731 460.402 431.987L460.404 431.991ZM476.017 398.876C477.108 399.351 478.084 400.039 478.881 400.894C479.678 401.75 480.278 402.755 480.642 403.843C481.006 404.931 481.126 406.077 480.994 407.208C480.862 408.338 480.481 409.427 479.876 410.404C484.907 414.05 488.93 418.813 491.589 424.272C493.706 428.618 494.906 433.299 495.136 438.047C495.212 439.617 493.389 440.424 492.049 439.514C484.663 434.495 474.996 429.474 463.873 424.633L460.936 423.37C451.008 419.178 441.809 415.98 433.838 414.127C432.217 413.75 431.599 411.781 432.886 410.802C436.726 407.88 441.14 405.691 445.89 404.368C451.914 402.69 458.294 402.457 464.464 403.689C464.829 402.609 465.43 401.617 466.226 400.777C467.023 399.937 467.998 399.268 469.088 398.814C470.178 398.36 471.359 398.131 472.553 398.141C473.747 398.152 474.927 398.402 476.017 398.876Z" fill="#6C63FF"/>
    <path d="M101.837 256.66L79.1583 265.987L81.3548 270.742L104.033 261.415L101.837 256.66Z" fill="#3F3D56"/>
    <path d="M170.274 499H26.4234C26.1804 499 25.9474 498.909 25.7756 498.747C25.6037 498.585 25.5072 498.365 25.5072 498.136C25.5072 497.906 25.6037 497.686 25.7756 497.524C25.9474 497.362 26.1804 497.271 26.4234 497.271H170.274C170.517 497.271 170.75 497.362 170.922 497.524C171.094 497.686 171.19 497.906 171.19 498.136C171.19 498.365 171.094 498.585 170.922 498.747C170.75 498.909 170.517 499 170.274 499Z" fill="#CCCCCC"/>
    <path d="M325.131 471.858H248.578C248.449 471.858 248.325 471.748 248.233 471.552C248.142 471.356 248.091 471.091 248.091 470.814C248.091 470.537 248.142 470.271 248.233 470.076C248.325 469.88 248.449 469.77 248.578 469.77H325.131C325.261 469.77 325.385 469.88 325.476 470.076C325.568 470.271 325.619 470.537 325.619 470.814C325.619 471.091 325.568 471.356 325.476 471.552C325.385 471.748 325.261 471.858 325.131 471.858Z" fill="#CCCCCC"/>
    <path d="M535.856 499H392.006C391.763 499 391.53 498.909 391.358 498.747C391.186 498.585 391.09 498.365 391.09 498.136C391.09 497.906 391.186 497.686 391.358 497.524C391.53 497.362 391.763 497.271 392.006 497.271H535.856C536.099 497.271 536.333 497.362 536.504 497.524C536.676 497.686 536.773 497.906 536.773 498.136C536.773 498.365 536.676 498.585 536.504 498.747C536.333 498.909 536.099 499 535.856 499Z" fill="#CCCCCC"/>
  </g>
  <defs>
    <clipPath id="clip0">
      <rect width="587" height="499" fill="white"/>
    </clipPath>
  </defs>
</svg>
