<svg width="447" height="324" viewBox="0 0 447 324" fill="none" xmlns="http://www.w3.org/2000/svg">
  <path d="M143.569 272.929C149.742 272.748 154.6 267.597 154.418 261.425C154.237 255.252 149.085 250.396 142.912 250.577C136.738 250.758 131.881 255.909 132.062 262.082C132.244 268.254 137.395 273.111 143.569 272.929Z" fill="white"/>
  <path d="M126.34 281.837C126.34 285.039 134.586 291.362 143.735 291.362C152.885 291.362 161.464 282.347 161.464 279.146C161.464 275.944 152.885 279.767 143.735 279.767C134.586 279.767 126.34 278.635 126.34 281.837Z" fill="white"/>
  <path d="M372.529 181.133L336.988 216.204L256.668 295.447L255.043 297.05L249.5 302.517C247.552 304.438 244.422 304.437 242.475 302.514L227 287.228L225.329 285.58L190.616 251.298H190.609L179.486 240.307L172.915 233.812L153.343 214.487L150.7 211.874L119.505 181.064C113.307 174.87 108.055 167.798 103.915 160.076C103.535 159.385 103.178 158.686 102.828 157.987C95.4307 143.24 92.2655 126.732 93.6841 110.295C95.1028 93.8582 101.05 78.1361 110.865 64.8743C120.68 51.6125 133.979 41.3299 149.286 35.1683C164.593 29.0067 181.308 27.2072 197.576 29.9695H197.583C197.872 30.0151 198.153 30.0606 198.442 30.1214C201.494 30.6598 204.514 31.3622 207.491 32.2255C215.278 34.4764 222.721 37.7809 229.614 42.0473C230.336 42.4955 231.05 42.9513 231.757 43.4146C236.809 46.7526 241.51 50.593 245.789 54.8772L246.055 54.6114L246.321 54.8772C248.913 52.2864 251.661 49.8562 254.549 47.6001C255.179 47.1064 255.817 46.6202 256.456 46.1492C266.226 38.9462 277.364 33.8122 289.188 31.0615C301.012 28.3108 313.272 28.0013 325.22 30.1518C328.275 30.69 331.298 31.395 334.276 32.2635C335.271 32.5446 336.259 32.8485 337.239 33.175C338.029 33.4333 338.819 33.6992 339.601 33.9878C346.116 36.3165 352.336 39.4013 358.132 43.1791C359.4 44.0071 360.651 44.8731 361.885 45.777C372.324 53.3647 380.995 63.1247 387.3 74.3848C393.604 85.645 397.393 98.1376 398.405 111.002C399.416 123.867 397.627 136.798 393.16 148.905C388.693 161.012 381.654 172.007 372.529 181.133Z" fill="#6C63FF"/>
  <path opacity="0.15" d="M336.988 216.204L256.668 295.447L255.043 297.05L249.5 302.517C247.552 304.438 244.422 304.437 242.475 302.514L227 287.228L225.329 285.58L190.616 251.298C196.193 249.999 204.763 251.784 207.9 253.334C215.338 257.003 221.454 263.027 229.006 266.46C235.75 269.504 243.284 270.336 250.53 268.838C264.068 265.997 274.545 255.529 283.784 245.229C293.022 234.921 302.465 223.861 315.449 219.083C322.295 216.561 329.649 215.991 336.988 216.204Z" fill="black"/>
  <path d="M395.382 56.3433C384.33 45.2614 370.572 37.2614 355.473 33.1371C354.47 32.856 353.475 32.6053 352.464 32.3698C348.12 31.332 343.703 30.6236 339.252 30.2505C338.477 30.1746 337.702 30.1214 336.92 30.0834C333.016 29.8365 329.099 29.8518 325.197 30.129C303.822 31.559 283.66 40.5691 268.338 55.5381L268.064 55.2646L267.791 55.5381C257.78 45.7715 245.633 38.4688 232.311 34.2081C231.559 33.965 230.799 33.7295 230.039 33.5093C219.78 30.534 209.076 29.3897 198.419 30.129C198.123 30.1442 197.827 30.167 197.538 30.1973C177.997 31.6953 159.482 39.5377 144.812 52.53C143.429 53.7454 142.069 55.0215 140.747 56.3433C128.328 68.7835 119.8 84.5704 116.206 101.776C112.612 118.982 114.107 136.862 120.508 153.232C120.774 153.946 121.062 154.653 121.366 155.359C125.887 166.138 132.471 175.931 140.747 184.186L170.316 213.371L172.641 215.672L236.626 278.819L238.275 280.452L255.08 297.042L264.552 306.39C266.499 308.312 269.629 308.312 271.576 306.39L395.382 184.179C412.312 167.214 421.821 144.227 421.821 120.261C421.821 96.2952 412.312 73.3081 395.382 56.3433ZM393.779 182.561L271.577 303.184C269.63 305.106 266.499 305.106 264.552 303.184L256.706 295.439L240.258 279.206L238.609 277.581L175.87 215.649L173.583 213.393L142.358 182.568C134.342 174.575 127.954 165.102 123.547 154.675C123.243 153.969 122.954 153.262 122.688 152.556C116.407 136.584 114.923 119.126 118.417 102.323C121.91 85.5195 130.231 70.1 142.358 57.9536C143.771 56.5408 145.217 55.1887 146.696 53.8973H146.704C160.817 41.5485 178.52 34.0511 197.211 32.5066C199.695 32.2939 202.182 32.1875 204.672 32.1875C205.606 32.1875 206.533 32.2027 207.468 32.2331C215.103 32.4681 222.675 33.6938 229.994 35.8793C230.746 36.0996 231.498 36.335 232.243 36.5857C240.16 39.166 247.665 42.873 254.526 47.5925C258.992 50.6546 263.166 54.123 266.993 57.9536L267.799 58.7588L268.064 58.493L268.33 58.7588L269.136 57.9536C277.648 49.4339 287.82 42.7544 299.022 38.3298C310.224 33.9053 322.215 31.8301 334.253 32.2331C335.218 32.2635 336.183 32.3091 337.148 32.3774C337.923 32.423 338.697 32.4762 339.465 32.5522C344.362 32.9913 349.214 33.8425 353.968 35.0969C354.986 35.3551 355.997 35.6362 357 35.9476C371.576 40.3549 384.761 48.4648 395.268 59.4859C405.775 70.5071 413.246 84.0632 416.95 98.8317C420.655 113.6 420.468 129.077 416.407 143.751C412.346 158.426 404.549 171.797 393.779 182.561Z" fill="#FFB800"/>
  <path opacity="0.15" d="M217.253 35.6741C212.375 39.5254 207.141 43.0804 203.973 48.3445C201.64 52.2337 200.63 56.7534 199.878 61.22C198.419 69.9099 197.796 78.8126 194.939 87.1455C192.09 95.4785 186.529 103.439 178.286 106.546C173.173 108.468 167.536 108.362 162.088 107.989C148.648 107.078 135.117 104.67 123.022 98.7524C116.261 95.4405 109.704 90.974 102.19 90.4803C100.661 90.3819 99.126 90.4661 97.6168 90.7309C104.173 70.2691 117.892 52.8588 136.254 41.697C154.616 30.5352 176.39 26.3711 197.576 29.9695H197.584C197.872 30.015 198.153 30.0606 198.442 30.1214C201.494 30.6598 204.514 31.3622 207.491 32.2255C210.809 33.1852 214.068 34.3367 217.253 35.6741Z" fill="black"/>
  <path d="M2.91821 276.517C6.45688 277.761 10.2563 278.072 13.9503 277.422C17.6444 276.771 21.1086 275.18 24.0092 272.803C31.3964 266.603 33.7125 256.39 35.5971 246.933L41.1712 218.961L29.5012 226.996C21.1089 232.773 12.5275 238.736 6.71662 247.105C0.905752 255.473 -1.63065 266.897 3.03818 275.953L2.91821 276.517Z" fill="#FFB800"/>
  <path d="M3.91578 310.383C2.73462 301.781 1.52007 293.068 2.34859 284.374C3.08441 276.652 5.44052 269.11 10.2373 262.927C12.7834 259.651 15.8815 256.844 19.3924 254.632C20.3078 254.054 21.1505 255.505 20.239 256.08C14.1642 259.919 9.46552 265.587 6.82048 272.268C3.89909 279.697 3.42996 287.796 3.93338 295.688C4.23783 300.46 4.88306 305.202 5.53325 309.937C5.58451 310.151 5.55255 310.377 5.44381 310.568C5.33508 310.76 5.15768 310.903 4.94748 310.968C4.73303 311.026 4.50444 310.997 4.3113 310.888C4.11815 310.778 3.97602 310.597 3.91575 310.383H3.91578Z" fill="#F2F2F2"/>
  <path d="M15.2924 295.161C16.8101 297.467 18.8962 299.344 21.3499 300.61C23.8035 301.876 26.5419 302.489 29.3013 302.39C36.3928 302.054 42.3049 297.105 47.6268 292.407L63.3682 278.511L52.9501 278.012C45.4579 277.654 37.7725 277.319 30.6365 279.629C23.5006 281.939 16.9194 287.499 15.6145 294.884L15.2924 295.161Z" fill="#6153CC"/>
  <path d="M0.577719 315.328C6.26279 305.27 12.857 294.092 24.6397 290.519C27.9159 289.529 31.3512 289.175 34.7606 289.475C35.8351 289.567 35.5668 291.223 34.4942 291.131C28.7793 290.656 23.0754 292.165 18.3429 295.403C13.7888 298.502 10.243 302.811 7.24184 307.381C5.40354 310.179 3.75691 313.097 2.10996 316.011C1.58364 316.942 0.0452162 316.27 0.577695 315.328H0.577719Z" fill="#F2F2F2"/>
  <path d="M165.819 29.668C171.995 29.668 177.002 24.6621 177.002 18.4871C177.002 12.312 171.995 7.30615 165.819 7.30615C159.643 7.30615 154.636 12.312 154.636 18.4871C154.636 24.6621 159.643 29.668 165.819 29.668Z" fill="white"/>
  <path d="M435.195 263.902C441.368 263.721 446.225 258.57 446.044 252.398C445.863 246.225 440.711 241.368 434.538 241.55C428.364 241.731 423.507 246.882 423.688 253.054C423.87 259.227 429.021 264.083 435.195 263.902Z" fill="white"/>
  <path fill-rule="evenodd" clip-rule="evenodd" d="M113.651 31.8135L111.574 32.4901L111.571 32.4886C93.1323 38.6221 79.3374 46.9801 80.7575 51.163C81.343 52.8776 84.3945 53.6244 89.0639 53.4804C92.2042 58.5709 96.8501 62.5722 102.359 64.9308C107.174 66.9923 112.44 67.7098 117.594 67.0278C118.782 66.8706 119.474 65.648 119.088 64.5136L115.636 54.3683C115.533 54.0676 115.285 53.8399 114.976 53.7643V53.7643C113.639 53.3804 112.462 52.575 111.62 51.4694C110.779 50.3639 110.319 49.0179 110.311 47.6343C110.303 46.2506 110.746 44.9041 111.574 43.7976C112.402 42.691 113.57 41.8843 114.903 41.4988C116.235 41.1134 117.659 41.1701 118.961 41.6604C120.263 42.1507 121.372 43.0481 122.121 44.2174C122.87 45.3868 123.218 46.7648 123.114 48.144C123.025 49.3294 122.605 50.4606 121.907 51.4126C121.695 51.7021 121.614 52.0742 121.73 52.414L125.168 62.5239C125.55 63.6482 126.826 64.1984 127.862 63.6186C132.394 61.0827 136.159 57.3604 138.74 52.8344C141.688 47.6648 142.945 41.702 142.337 35.7707C146.144 33.0913 148.121 30.6702 147.538 28.957C146.278 25.2524 133.494 26.0712 117.77 30.5702L115.705 31.1783L113.651 31.8135Z" fill="#FFB800"/>
  <path fill-rule="evenodd" clip-rule="evenodd" d="M104.961 4.93668C104.063 4.84849 103.158 4.94977 102.304 5.23391C101.452 5.51826 100.67 5.97873 100.009 6.58532C99.3488 7.19191 98.8249 7.93098 98.4718 8.75437C98.1186 9.57775 97.944 10.467 97.9595 11.364C97.9749 12.2611 98.18 13.1458 98.5613 13.9606C94.5149 16.4124 91.1428 19.8227 88.7433 23.8899C86.9875 26.866 85.7921 30.1267 85.2038 33.5127C84.9285 35.0971 86.6646 36.1389 88.0752 35.3667C93.3291 32.4907 99.8476 29.7561 107.223 27.2077L109.514 26.4341C117.812 23.6728 125.473 21.685 132.02 20.7473C133.622 20.5179 134.381 18.6244 133.191 17.5272C130.659 15.1911 127.723 13.315 124.515 11.9969C120.119 10.19 115.348 9.48734 110.627 9.95109C110.433 9.07316 110.055 8.24483 109.519 7.52019C108.983 6.79555 108.299 6.19092 107.514 5.74575C106.729 5.30057 105.859 5.02488 104.961 4.93668Z" fill="#FFB800"/>
  <path fill-rule="evenodd" clip-rule="evenodd" d="M324.452 282.048L322.484 281.099L322.482 281.096C304.928 272.764 289.186 269.251 287.316 273.253C286.552 274.896 288.238 277.547 291.709 280.674C290.453 286.522 291.038 292.626 293.382 298.141C295.431 302.961 298.737 307.123 302.929 310.198C303.895 310.906 305.241 310.502 305.747 309.416L310.276 299.704C310.41 299.416 310.388 299.079 310.218 298.811V298.811C309.518 297.609 309.226 296.212 309.383 294.832C309.541 293.452 310.141 292.162 311.092 291.158C312.044 290.153 313.295 289.488 314.659 289.262C316.023 289.036 317.424 289.262 318.653 289.906C319.881 290.55 320.87 291.576 321.47 292.831C322.071 294.086 322.25 295.501 321.982 296.864C321.713 298.226 321.011 299.462 319.982 300.386C319.097 301.179 318.011 301.705 316.848 301.91C316.495 301.972 316.179 302.185 316.027 302.51L311.513 312.187C311.011 313.263 311.551 314.543 312.7 314.842C317.727 316.148 323.021 316.066 328.016 314.585C333.721 312.893 338.755 309.458 342.421 304.756C347.023 305.456 350.126 305.077 350.891 303.437C352.545 299.89 342.749 291.634 328.285 284.001L326.374 283.011L324.452 282.048Z" fill="#6153CC"/>
  <path fill-rule="evenodd" clip-rule="evenodd" d="M336.778 256.633C336.191 255.948 335.467 255.394 334.654 255.009C333.842 254.624 332.958 254.415 332.062 254.396C331.166 254.377 330.276 254.548 329.451 254.898C328.626 255.248 327.885 255.769 327.275 256.427C326.666 257.086 326.202 257.866 325.913 258.718C321.295 257.688 316.501 257.816 311.954 259.092C308.627 260.025 305.508 261.552 302.74 263.589C301.445 264.542 301.977 266.496 303.53 266.914C309.313 268.474 315.911 271.011 322.999 274.275L325.188 275.302C333.089 279.051 339.995 282.918 345.37 286.771C346.685 287.714 348.543 286.872 348.444 285.257C348.232 281.819 347.411 278.432 346.008 275.261C344.084 270.914 341.127 267.106 337.397 264.173C337.865 263.405 338.166 262.546 338.28 261.652C338.394 260.758 338.32 259.848 338.061 258.983C337.802 258.119 337.365 257.318 336.778 256.633Z" fill="#6153CC"/>
  <path fill-rule="evenodd" clip-rule="evenodd" d="M129.632 215.605L128.285 217.326L128.281 217.326C116.394 232.697 109.601 247.327 113.112 250.007C114.554 251.104 117.504 250.023 121.3 247.3C126.745 249.776 132.833 250.507 138.721 249.394C143.868 248.421 148.639 246.081 152.538 242.641C153.436 241.848 153.329 240.448 152.376 239.721L143.854 233.224C143.602 233.031 143.268 232.98 142.97 233.09V233.09C141.646 233.516 140.219 233.504 138.905 233.056C137.59 232.607 136.458 231.746 135.68 230.602C134.901 229.458 134.519 228.093 134.589 226.712C134.66 225.332 135.18 224.011 136.071 222.948C136.962 221.886 138.176 221.139 139.53 220.82C140.884 220.501 142.305 220.628 143.579 221.181C144.852 221.734 145.91 222.684 146.593 223.887C147.179 224.921 147.461 226.094 147.413 227.274C147.398 227.632 147.538 227.986 147.824 228.204L156.314 234.68C157.258 235.4 158.624 235.146 159.161 234.087C161.51 229.454 162.561 224.265 162.18 219.069C161.745 213.134 159.464 207.483 155.653 202.898C157.319 198.551 157.611 195.439 156.172 194.342C153.061 191.969 142.903 199.776 132.358 212.277L130.983 213.933L129.632 215.605Z" fill="#CCCCCC"/>
  <path fill-rule="evenodd" clip-rule="evenodd" d="M107.434 198.138C106.639 198.565 105.944 199.154 105.394 199.866C104.845 200.577 104.452 201.396 104.242 202.267C104.032 203.139 104.009 204.045 104.175 204.925C104.341 205.806 104.692 206.641 105.205 207.377C105.718 208.113 106.381 208.734 107.152 209.197C105.16 213.489 104.261 218.2 104.537 222.914C104.739 226.363 105.564 229.737 106.963 232.876C107.618 234.345 109.64 234.242 110.381 232.814C113.139 227.497 117.026 221.593 121.728 215.366L123.199 213.446C128.548 206.528 133.8 200.606 138.712 196.178C139.914 195.095 139.488 193.099 137.889 192.852C134.485 192.324 131.001 192.404 127.603 193.098C122.946 194.049 118.594 196.125 114.933 199.142C114.282 198.522 113.507 198.044 112.658 197.742C111.809 197.439 110.905 197.318 110.004 197.386C109.104 197.455 108.228 197.711 107.434 198.138Z" fill="#CCCCCC"/>
</svg>
