<svg width="609" height="525" viewBox="0 0 609 525" fill="none" xmlns="http://www.w3.org/2000/svg">
  <path d="M473.575 264.491C434.984 235.596 374.541 208.269 307.745 189.518C246.926 172.444 187.606 164.201 140.699 166.306L140.455 160.843C187.921 158.714 247.856 167.026 309.219 184.252C376.638 203.178 437.736 230.827 476.845 260.11L473.575 264.491Z" fill="#CCCCCC"/>
  <path d="M292.018 71.1448C293.172 71.1448 294.107 70.2077 294.107 69.0517C294.107 67.8957 293.172 66.9586 292.018 66.9586C290.863 66.9586 289.928 67.8957 289.928 69.0517C289.928 70.2077 290.863 71.1448 292.018 71.1448Z" fill="#F2F2F2"/>
  <path d="M14.7654 161.971C16.751 161.971 18.3607 160.359 18.3607 158.37C18.3607 156.382 16.751 154.77 14.7654 154.77C12.7798 154.77 11.1702 156.382 11.1702 158.37C11.1702 160.359 12.7798 161.971 14.7654 161.971Z" fill="#CCCCCC"/>
  <path d="M7.10239 306.419C11.0249 306.419 14.2048 303.234 14.2048 299.306C14.2048 295.377 11.0249 292.192 7.10239 292.192C3.17985 292.192 0 295.377 0 299.306C0 303.234 3.17985 306.419 7.10239 306.419Z" fill="#CCCCCC"/>
  <path d="M433.43 86.3512C436.045 86.3512 438.164 84.2286 438.164 81.6103C438.164 78.9919 436.045 76.8694 433.43 76.8694C430.816 76.8694 428.697 78.9919 428.697 81.6103C428.697 84.2286 430.816 86.3512 433.43 86.3512Z" fill="#CCCCCC"/>
  <path d="M601.315 286.072C605.559 286.072 609 282.626 609 278.375C609 274.123 605.559 270.677 601.315 270.677C597.07 270.677 593.629 274.123 593.629 278.375C593.629 282.626 597.07 286.072 601.315 286.072Z" fill="#CCCCCC"/>
  <path d="M541.219 158.737C543.04 158.737 544.516 157.259 544.516 155.435C544.516 153.611 543.04 152.132 541.219 152.132C539.397 152.132 537.921 153.611 537.921 155.435C537.921 157.259 539.397 158.737 541.219 158.737Z" fill="#CCCCCC"/>
  <path d="M140.853 118.159C143.694 118.159 145.997 115.852 145.997 113.007C145.997 110.161 143.694 107.855 140.853 107.855C138.012 107.855 135.708 110.161 135.708 113.007C135.708 115.852 138.012 118.159 140.853 118.159Z" fill="#CCCCCC"/>
  <path d="M529.677 266.069C531.498 266.069 532.975 264.591 532.975 262.767C532.975 260.943 531.498 259.464 529.677 259.464C527.856 259.464 526.38 260.943 526.38 262.767C526.38 264.591 527.856 266.069 529.677 266.069Z" fill="#CCCCCC"/>
  <path d="M23.8214 403.885C26.088 403.885 27.9254 402.044 27.9254 399.774C27.9254 397.504 26.088 395.664 23.8214 395.664C21.5548 395.664 19.7173 397.504 19.7173 399.774C19.7173 402.044 21.5548 403.885 23.8214 403.885Z" fill="#CCCCCC"/>
  <path d="M106.718 461.437C109.173 461.437 111.163 459.444 111.163 456.986C111.163 454.527 109.173 452.534 106.718 452.534C104.264 452.534 102.274 454.527 102.274 456.986C102.274 459.444 104.264 461.437 106.718 461.437Z" fill="#CCCCCC"/>
  <path d="M235.92 8.78434H227.149V0H222.444V8.78434H213.669V13.501H222.444V22.2854H227.149V13.501H235.92V8.78434Z" fill="#CCCCCC"/>
  <path d="M439.37 484.099H433.861V478.583H430.907V484.099H425.401V487.058H430.907V492.574H433.861V487.058H439.37V484.099Z" fill="#CCCCCC"/>
  <path d="M566.481 455.866H562.365V451.743H560.154V455.866H556.037V458.08H560.154V462.203H562.365V458.08H566.481V455.866Z" fill="#CCCCCC"/>
  <path opacity="0.1" d="M289.928 159.068C298.392 159.068 305.253 152.196 305.253 143.719C305.253 135.241 298.392 128.369 289.928 128.369C281.464 128.369 274.602 135.241 274.602 143.719C274.602 152.196 281.464 159.068 289.928 159.068Z" fill="black"/>
  <path opacity="0.1" d="M172.2 271.398C180.664 271.398 187.526 264.526 187.526 256.048C187.526 247.571 180.664 240.699 172.2 240.699C163.736 240.699 156.875 247.571 156.875 256.048C156.875 264.526 163.736 271.398 172.2 271.398Z" fill="black"/>
  <path opacity="0.1" d="M341.477 425.589C349.941 425.589 356.803 418.717 356.803 410.24C356.803 401.763 349.941 394.89 341.477 394.89C333.013 394.89 326.152 401.763 326.152 410.24C326.152 418.717 333.013 425.589 341.477 425.589Z" fill="black"/>
  <path opacity="0.1" d="M289.928 295.119C298.392 295.119 305.253 288.247 305.253 279.77C305.253 271.293 298.392 264.421 289.928 264.421C281.464 264.421 274.602 271.293 274.602 279.77C274.602 288.247 281.464 295.119 289.928 295.119Z" fill="black"/>
  <path opacity="0.1" d="M179.863 379.541C188.327 379.541 195.188 372.669 195.188 364.192C195.188 355.714 188.327 348.842 179.863 348.842C171.399 348.842 164.537 355.714 164.537 364.192C164.537 372.669 171.399 379.541 179.863 379.541Z" fill="black"/>
  <path opacity="0.1" d="M372.128 212.791C380.592 212.791 387.454 205.919 387.454 197.442C387.454 188.964 380.592 182.092 372.128 182.092C363.664 182.092 356.803 188.964 356.803 197.442C356.803 205.919 363.664 212.791 372.128 212.791Z" fill="black"/>
  <g filter="url(#filter0_d)">
    <path fill-rule="evenodd" clip-rule="evenodd" d="M318.835 247.349L305.791 242.118L305.783 242.099C189.496 196.315 86.9499 180.654 76.7061 207.146C72.5238 218.018 84.5026 234.287 108.139 252.834C102.641 290.897 109.065 329.796 126.523 364.15C143.639 397.832 170.531 425.513 203.599 443.527C204.651 444.101 205.963 443.61 206.394 442.492L236.587 364.252C236.71 363.933 236.662 363.574 236.46 363.299L234.842 361.1C229.828 353.692 227.337 344.862 227.745 335.938C228.152 327.014 231.436 318.48 237.102 311.62C242.768 304.76 250.508 299.945 259.158 297.902C267.809 295.858 276.9 296.696 285.064 300.289C293.228 303.881 300.023 310.035 304.425 317.823C308.827 325.61 310.599 334.61 309.472 343.468C308.346 352.326 304.383 360.562 298.181 366.935C292.113 373.17 284.224 377.293 275.655 378.717C275.301 378.776 275.001 379.015 274.872 379.349L244.662 457.596C244.234 458.704 244.861 459.939 246.011 460.235C282.424 469.589 320.773 467.605 355.947 454.517C391.815 441.171 422.611 416.94 444.074 385.174C473.912 387.657 493.652 383.865 497.843 373.011C506.905 349.54 440.437 300.854 344.288 258.202L331.589 252.685L318.835 247.349Z" fill="#6153CC"/>
    <path fill-rule="evenodd" clip-rule="evenodd" d="M386.799 78.9242C382.733 74.7869 377.848 71.5532 372.463 69.4341C367.082 67.3198 361.324 66.366 355.563 66.6349C349.802 66.9038 344.169 68.3894 339.03 70.9947C333.892 73.6001 329.363 77.2668 325.739 81.7557C322.116 86.2446 319.479 91.455 318 97.0472C287.92 92.4541 257.214 95.3707 228.598 105.539C201.172 115.284 176.477 131.403 156.507 152.563C155.403 153.732 156.094 155.645 157.685 155.88C199.876 162.099 250.567 176.987 306.11 198.119L320.605 203.75C381.787 227.831 434.31 253.534 472.599 279.901C473.931 280.818 475.748 279.87 475.719 278.252C475.197 249.04 467.824 220.307 454.177 194.396C439.933 167.35 419.291 144.211 394.077 127.026C396.741 121.895 398.295 116.253 398.637 110.466C398.979 104.679 398.101 98.8793 396.061 93.4442C394.022 88.0092 390.866 83.0614 386.799 78.9242Z" fill="#6153CC"/>
  </g>
  <path opacity="0.1" d="M422.981 316.748C431.445 316.748 438.307 309.876 438.307 301.399C438.307 292.921 431.445 286.049 422.981 286.049C414.517 286.049 407.656 292.921 407.656 301.399C407.656 309.876 414.517 316.748 422.981 316.748Z" fill="black"/>
  <path d="M289.928 233.024C301.085 233.024 310.13 223.965 310.13 212.791C310.13 201.616 301.085 192.558 289.928 192.558C278.771 192.558 269.726 201.616 269.726 212.791C269.726 223.965 278.771 233.024 289.928 233.024Z" fill="white"/>
  <path d="M289.928 183.487C282.353 183.487 275.088 186.501 269.732 191.866C264.376 197.23 261.367 204.506 261.367 212.093C261.367 227.892 289.928 279.77 289.928 279.77C289.928 279.77 318.489 227.892 318.489 212.093C318.489 204.506 315.48 197.23 310.124 191.866C304.767 186.501 297.503 183.487 289.928 183.487ZM289.928 226.047C287.31 226.047 284.751 225.27 282.574 223.813C280.398 222.356 278.701 220.286 277.7 217.864C276.698 215.442 276.436 212.776 276.946 210.205C277.457 207.633 278.718 205.271 280.569 203.417C282.42 201.563 284.778 200.301 287.346 199.789C289.913 199.278 292.574 199.54 294.993 200.544C297.411 201.547 299.479 203.246 300.933 205.426C302.387 207.606 303.164 210.169 303.164 212.791C303.164 214.532 302.821 216.256 302.156 217.864C301.491 219.472 300.516 220.934 299.287 222.164C298.058 223.395 296.599 224.372 294.993 225.038C293.387 225.704 291.666 226.047 289.928 226.047Z" fill="#CCCCCC"/>
  <path d="M179.863 319.539C191.02 319.539 200.065 310.48 200.065 299.306C200.065 288.131 191.02 279.072 179.863 279.072C168.706 279.072 159.661 288.131 159.661 299.306C159.661 310.48 168.706 319.539 179.863 319.539Z" fill="white"/>
  <path d="M179.863 270.002C172.288 270.002 165.023 273.016 159.667 278.381C154.311 283.745 151.302 291.021 151.302 298.608C151.302 314.406 179.863 366.285 179.863 366.285C179.863 366.285 208.424 314.406 208.424 298.608C208.424 294.851 207.685 291.132 206.25 287.661C204.815 284.19 202.711 281.037 200.059 278.381C197.407 275.724 194.258 273.617 190.793 272.18C187.328 270.742 183.614 270.002 179.863 270.002ZM179.863 312.562C177.245 312.562 174.686 311.784 172.51 310.328C170.333 308.871 168.636 306.801 167.635 304.379C166.633 301.956 166.371 299.291 166.882 296.719C167.392 294.148 168.653 291.786 170.504 289.932C172.355 288.078 174.713 286.815 177.281 286.304C179.848 285.792 182.51 286.055 184.928 287.058C187.347 288.062 189.414 289.761 190.868 291.941C192.322 294.121 193.099 296.684 193.099 299.306C193.099 301.046 192.756 302.77 192.091 304.379C191.426 305.987 190.451 307.448 189.222 308.679C187.993 309.91 186.534 310.887 184.928 311.553C183.322 312.219 181.601 312.562 179.863 312.562Z" fill="#CCCCCC"/>
  <path d="M422.981 256.746C434.139 256.746 443.183 247.687 443.183 236.513C443.183 225.338 434.139 216.279 422.981 216.279C411.824 216.279 402.78 225.338 402.78 236.513C402.78 247.687 411.824 256.746 422.981 256.746Z" fill="white"/>
  <path d="M422.982 207.209C419.231 207.209 415.517 207.949 412.052 209.387C408.586 210.824 405.438 212.931 402.786 215.588C400.134 218.244 398.03 221.397 396.594 224.868C395.159 228.339 394.42 232.058 394.42 235.815C394.42 251.613 422.982 303.492 422.982 303.492C422.982 303.492 451.543 251.613 451.543 235.815C451.543 232.058 450.804 228.339 449.369 224.868C447.933 221.397 445.83 218.244 443.177 215.588C440.525 212.931 437.377 210.824 433.911 209.387C430.446 207.949 426.732 207.209 422.982 207.209ZM422.982 249.769C420.364 249.769 417.805 248.992 415.628 247.535C413.452 246.078 411.755 244.008 410.753 241.586C409.752 239.163 409.49 236.498 410 233.926C410.511 231.355 411.772 228.993 413.623 227.139C415.474 225.285 417.832 224.023 420.4 223.511C422.967 223 425.628 223.262 428.047 224.265C430.465 225.269 432.532 226.968 433.987 229.148C435.441 231.328 436.217 233.891 436.217 236.513C436.217 238.254 435.875 239.977 435.21 241.586C434.545 243.194 433.57 244.655 432.341 245.886C431.112 247.117 429.653 248.094 428.047 248.76C426.441 249.426 424.72 249.769 422.982 249.769Z" fill="#CCCCCC"/>
  <path d="M289.928 96.9728C301.085 96.9728 310.13 87.9141 310.13 76.7395C310.13 65.565 301.085 56.5062 289.928 56.5062C278.771 56.5062 269.726 65.565 269.726 76.7395C269.726 87.9141 278.771 96.9728 289.928 96.9728Z" fill="white"/>
  <path d="M289.928 47.4362C282.353 47.4362 275.088 50.45 269.732 55.8146C264.376 61.1792 261.367 68.4551 261.367 76.0418C261.367 91.8403 289.928 143.719 289.928 143.719C289.928 143.719 318.489 91.8403 318.489 76.0418C318.489 68.4551 315.48 61.1791 310.124 55.8146C304.767 50.45 297.503 47.4362 289.928 47.4362ZM289.928 89.9958C287.31 89.9958 284.751 89.2183 282.574 87.7617C280.398 86.3051 278.701 84.2347 277.7 81.8125C276.698 79.3902 276.436 76.7248 276.946 74.1533C277.457 71.5818 278.718 69.2198 280.569 67.3659C282.42 65.5119 284.778 64.2494 287.346 63.7379C289.913 63.2264 292.574 63.4889 294.993 64.4923C297.411 65.4956 299.479 67.1947 300.933 69.3747C302.387 71.5547 303.164 74.1177 303.164 76.7395C303.164 78.4804 302.821 80.2042 302.156 81.8125C301.491 83.4208 300.516 84.8822 299.287 86.1132C298.058 87.3441 296.599 88.3206 294.993 88.9868C293.387 89.653 291.666 89.9958 289.928 89.9958Z" fill="#CCCCCC"/>
  <path d="M341.477 365.587C352.634 365.587 361.679 356.528 361.679 345.354C361.679 334.179 352.634 325.121 341.477 325.121C330.32 325.121 321.275 334.179 321.275 345.354C321.275 356.528 330.32 365.587 341.477 365.587Z" fill="white"/>
  <path d="M341.477 316.05C333.902 316.05 326.638 319.064 321.282 324.429C315.925 329.793 312.916 337.069 312.916 344.656C312.916 360.454 341.477 412.333 341.477 412.333C341.477 412.333 370.039 360.454 370.039 344.656C370.039 340.899 369.3 337.18 367.864 333.709C366.429 330.239 364.325 327.085 361.673 324.429C359.021 321.772 355.872 319.665 352.407 318.228C348.942 316.79 345.228 316.05 341.477 316.05ZM341.477 358.61C338.86 358.61 336.301 357.833 334.124 356.376C331.947 354.919 330.251 352.849 329.249 350.427C328.247 348.004 327.985 345.339 328.496 342.768C329.007 340.196 330.267 337.834 332.118 335.98C333.969 334.126 336.328 332.864 338.895 332.352C341.463 331.841 344.124 332.103 346.542 333.107C348.961 334.11 351.028 335.809 352.482 337.989C353.937 340.169 354.713 342.732 354.713 345.354C354.713 347.095 354.371 348.818 353.706 350.427C353.04 352.035 352.066 353.496 350.836 354.727C349.607 355.958 348.148 356.935 346.542 357.601C344.937 358.267 343.216 358.61 341.477 358.61Z" fill="#3F3D56"/>
  <path d="M172.2 210C183.357 210 192.402 200.941 192.402 189.767C192.402 178.592 183.357 169.534 172.2 169.534C161.043 169.534 151.998 178.592 151.998 189.767C151.998 200.941 161.043 210 172.2 210Z" fill="white"/>
  <path d="M172.2 160.463C164.625 160.463 157.361 163.477 152.004 168.842C146.648 174.206 143.639 181.482 143.639 189.069C143.639 204.868 172.2 256.746 172.2 256.746C172.2 256.746 200.761 204.868 200.761 189.069C200.761 181.482 197.752 174.206 192.396 168.842C187.04 163.477 179.775 160.463 172.2 160.463ZM172.2 203.023C169.583 203.023 167.024 202.246 164.847 200.789C162.67 199.332 160.974 197.262 159.972 194.84C158.97 192.418 158.708 189.752 159.219 187.181C159.73 184.609 160.99 182.247 162.841 180.393C164.692 178.539 167.051 177.277 169.618 176.765C172.186 176.254 174.847 176.516 177.265 177.52C179.684 178.523 181.751 180.222 183.205 182.402C184.66 184.582 185.436 187.145 185.436 189.767C185.436 191.508 185.094 193.231 184.429 194.84C183.763 196.448 182.788 197.91 181.559 199.14C180.33 200.371 178.871 201.348 177.265 202.014C175.66 202.68 173.938 203.023 172.2 203.023Z" fill="#3F3D56"/>
  <path d="M372.129 153.486C383.286 153.486 392.33 144.428 392.33 133.253C392.33 122.079 383.286 113.02 372.129 113.02C360.971 113.02 351.927 122.079 351.927 133.253C351.927 144.428 360.971 153.486 372.129 153.486Z" fill="white"/>
  <path d="M372.128 103.95C364.553 103.95 357.289 106.964 351.932 112.328C346.576 117.693 343.567 124.969 343.567 132.555C343.567 148.354 372.128 200.232 372.128 200.232C372.128 200.232 400.69 148.354 400.69 132.555C400.69 124.969 397.68 117.693 392.324 112.328C386.968 106.964 379.703 103.95 372.128 103.95ZM372.128 146.51C369.511 146.51 366.952 145.732 364.775 144.275C362.598 142.819 360.902 140.748 359.9 138.326C358.898 135.904 358.636 133.239 359.147 130.667C359.658 128.096 360.918 125.734 362.769 123.88C364.62 122.026 366.979 120.763 369.546 120.252C372.114 119.74 374.775 120.003 377.193 121.006C379.612 122.009 381.679 123.708 383.133 125.888C384.588 128.068 385.364 130.631 385.364 133.253C385.364 136.769 383.97 140.141 381.487 142.627C379.005 145.113 375.639 146.509 372.128 146.509V146.51Z" fill="#3F3D56"/>
  <defs>
    <filter id="filter0_d" x="71.8843" y="64.5905" width="430.784" height="407.449" filterUnits="userSpaceOnUse" color-interpolation-filters="sRGB">
      <feFlood flood-opacity="0" result="BackgroundImageFix"/>
      <feColorMatrix in="SourceAlpha" type="matrix" values="0 0 0 0 0 0 0 0 0 0 0 0 0 0 0 0 0 0 127 0"/>
      <feOffset dy="2"/>
      <feGaussianBlur stdDeviation="2"/>
      <feColorMatrix type="matrix" values="0 0 0 0 0 0 0 0 0 0 0 0 0 0 0 0 0 0 0.25 0"/>
      <feBlend mode="normal" in2="BackgroundImageFix" result="effect1_dropShadow"/>
      <feBlend mode="normal" in="SourceGraphic" in2="effect1_dropShadow" result="shape"/>
    </filter>
  </defs>
</svg>
