<svg width="134" height="149" viewBox="0 0 134 149" fill="none" xmlns="http://www.w3.org/2000/svg">
  <path d="M69.9999 1.25C68.2221 -0.0833328 65.7777 -0.0833331 63.9999 1.25L1.13325 48.4C0.629642 48.7777 0.333252 49.3705 0.333252 50V144C0.333252 146.761 2.57183 149 5.33325 149H128.667C131.428 149 133.667 146.761 133.667 144V50C133.667 49.3705 133.37 48.7777 132.867 48.4L69.9999 1.25ZM71.1666 78.1667C71.1666 85.0833 65.5832 90.6667 58.6666 90.6667V119.833C58.6666 122.135 56.8011 124 54.4999 124C52.1987 124 50.3332 122.135 50.3332 119.833V90.6667C43.4166 90.6667 37.8332 85.0833 37.8332 78.1667V57.3333C37.8332 55.0321 39.6987 53.1667 41.9999 53.1667C44.3011 53.1667 46.1666 55.0321 46.1666 57.3333V76.0833C46.1666 77.2339 47.0993 78.1667 48.2499 78.1667C49.4005 78.1667 50.3332 77.2339 50.3332 76.0833V57.3333C50.3332 55.0321 52.1987 53.1667 54.4999 53.1667C56.8011 53.1667 58.6666 55.0321 58.6666 57.3333V76.0833C58.6666 77.2339 59.5993 78.1667 60.7499 78.1667C61.9005 78.1667 62.8332 77.2339 62.8332 76.0833V57.3333C62.8332 55.0321 64.6987 53.1667 66.9999 53.1667C69.3011 53.1667 71.1666 55.0321 71.1666 57.3333V78.1667ZM91.9999 119.833C91.9999 122.135 90.1344 124 87.8332 124C85.5321 124 83.6666 122.135 83.6666 119.833V94.8333C79.0642 94.8333 75.3332 91.1024 75.3332 86.5V69.8333C75.3332 60.6667 82.8332 53.1667 91.9999 53.1667V119.833Z" fill="#FFB800"/>
</svg>
