<svg width="146" height="136" viewBox="0 0 146 136" fill="none" xmlns="http://www.w3.org/2000/svg">
  <path d="M119.979 132.834C115.956 136.874 109.374 136.738 105.521 132.535L96.3107 122.487C94.0697 120.042 94.1355 116.271 96.4605 113.905C98.8883 111.436 102.864 111.419 105.313 113.868L111.887 120.442C112.277 120.832 112.91 120.832 113.301 120.442L133.843 99.8992C136.644 97.0983 141.25 97.3218 143.766 100.381C145.956 103.043 145.772 106.932 143.339 109.375L119.979 132.834ZM129.187 0.125C130.165 0.125 131.103 0.513504 131.795 1.20504C132.486 1.89659 132.875 2.83451 132.875 3.8125V76.53C128.155 74.8338 123.214 73.875 118.125 73.875C106.767 73.875 96.4425 78.3 88.625 85.38V31.7815C88.625 30.9316 88.0879 30.1745 87.2857 29.8937L47.0357 15.8062C45.7353 15.3511 44.375 16.3163 44.375 17.694V101.214C44.375 102.066 44.9149 102.825 45.7201 103.104L74.17 112.963C73.875 114.733 73.875 116.429 73.875 118.125C73.875 121.518 74.3175 124.91 75.055 128.155L45.0717 117.632C44.6221 117.474 44.1308 117.482 43.6865 117.654L4.9925 132.654C4.47625 132.875 4.18125 132.875 3.8125 132.875C2.83451 132.875 1.89658 132.487 1.20504 131.795C0.513504 131.103 0.125 130.165 0.125 129.188V17.6775C0.125 15.9813 1.305 14.6538 2.70625 14.1375L43.7245 0.343738C44.1461 0.201969 44.6029 0.204773 45.0227 0.351705L88.625 15.6125L127.934 0.125" fill="#FFB800"/>
</svg>
