<svg width="234" height="241" viewBox="0 0 234 241" fill="none" xmlns="http://www.w3.org/2000/svg">
  <path fill-rule="evenodd" clip-rule="evenodd" d="M191.924 183.185L189.352 181.7L189.35 181.696C166.39 168.64 145.403 162.298 142.468 167.536C141.267 169.686 143.287 173.449 147.677 178.036C145.388 185.837 145.568 194.17 148.193 201.88C150.575 208.877 154.862 215.049 160.545 219.701C161.472 220.46 162.842 220.158 163.428 219.112L171.007 205.568C171.174 205.27 171.177 204.908 171.016 204.607L170.947 204.479C170.12 202.779 169.863 200.857 170.215 199.001C170.568 197.146 171.51 195.458 172.901 194.192C174.291 192.926 176.055 192.15 177.926 191.98C179.797 191.811 181.674 192.258 183.275 193.254C184.875 194.25 186.113 195.741 186.801 197.502C187.489 199.263 187.59 201.2 187.089 203.02C186.589 204.84 185.513 206.445 184.025 207.593C182.69 208.623 181.088 209.236 179.416 209.363C179.059 209.39 178.728 209.581 178.553 209.894L170.971 223.437C170.391 224.474 170.835 225.788 171.951 226.194C178.845 228.699 186.31 229.211 193.491 227.647C201.394 225.926 208.562 221.776 214.004 215.769C220.172 217.181 224.416 216.977 225.617 214.831C228.216 210.19 215.765 198.015 196.925 186.216L194.433 184.682L191.924 183.185Z" fill="black"/>
  <path fill-rule="evenodd" clip-rule="evenodd" d="M211.183 149.969C210.456 148.982 209.531 148.159 208.468 147.555C207.405 146.952 206.229 146.58 205.015 146.464C203.802 146.348 202.579 146.491 201.426 146.883C200.273 147.274 199.216 147.906 198.323 148.737C197.431 149.568 196.723 150.58 196.246 151.706C190.09 149.846 183.579 149.539 177.287 150.812C172.237 151.833 167.453 153.848 163.205 156.727C161.874 157.629 162.269 159.617 163.794 160.128C171.788 162.806 180.932 167.076 190.735 172.502L193.599 174.113C204.467 180.292 213.829 186.536 220.857 192.577C222.084 193.632 224.006 192.938 224.083 191.322C224.327 186.18 223.565 181.023 221.825 176.148C219.654 170.062 216.028 164.603 211.267 160.253C211.977 159.259 212.471 158.125 212.716 156.924C212.961 155.723 212.951 154.483 212.687 153.285C212.422 152.086 211.91 150.957 211.183 149.969Z" fill="black"/>
  <path fill-rule="evenodd" clip-rule="evenodd" d="M56.354 172.941L53.2547 174.377L53.25 174.376C25.7702 187.325 5.91173 202.864 8.89391 209.092C10.1215 211.645 14.997 212.237 22.2182 211.145C28.0393 218.462 35.9948 223.809 44.9842 226.446C53.2501 228.87 62.0145 228.893 70.2471 226.536C71.3991 226.206 71.9404 224.912 71.4222 223.831L63.5209 207.357C63.3733 207.049 63.0789 206.838 62.7401 206.797L62.4927 206.767C60.3462 206.42 58.3683 205.388 56.8567 203.829C55.345 202.269 54.3816 200.265 54.1114 198.119C53.8411 195.973 54.2788 193.801 55.3584 191.929C56.438 190.057 58.1011 188.588 60.0974 187.742C62.0936 186.896 64.3149 186.719 66.4268 187.238C68.5387 187.757 70.4269 188.944 71.8071 190.619C73.1872 192.295 73.9847 194.369 74.0794 196.53C74.1655 198.496 73.6651 200.437 72.6478 202.11C72.4614 202.417 72.4277 202.797 72.5829 203.12L80.482 219.597C80.9954 220.668 82.3258 221.061 83.3049 220.389C90.3562 215.55 95.8799 208.795 99.2066 200.904C102.821 192.332 103.663 182.842 101.617 173.749C107.028 168.882 109.646 164.756 108.423 162.205C105.778 156.689 86.0858 160.338 62.516 170.245L59.4234 171.573L56.354 172.941Z" fill="#FFB800"/>
  <path fill-rule="evenodd" clip-rule="evenodd" d="M37.867 132.838C36.4571 132.868 35.0708 133.194 33.7985 133.794C32.5277 134.393 31.3993 135.254 30.4871 136.318C29.5748 137.382 28.8992 138.627 28.5041 139.971C28.109 141.314 28.0034 142.727 28.1942 144.117C28.385 145.506 28.8678 146.842 29.6113 148.035C23.7862 152.594 19.1862 158.514 16.2179 165.274C13.7585 170.874 12.4822 176.908 12.4516 183.003C12.4436 184.611 14.2989 185.43 15.5892 184.47C23.4625 178.613 33.6994 172.725 45.5199 166.987L48.9318 165.36C62.1736 159.119 74.4459 154.389 84.9042 151.809C86.4752 151.421 87.0156 149.45 85.7508 148.441C80.9706 144.626 75.4549 141.804 69.5322 140.161C62.3716 138.174 54.8366 137.97 47.5935 139.568C47.1293 138.241 46.3895 137.026 45.4222 136.001C44.455 134.976 43.2821 134.164 41.9803 133.619C40.6784 133.074 39.2768 132.808 37.867 132.838Z" fill="#FFB800"/>
  <path d="M127.472 122.539H123.647C120.221 122.535 116.936 121.172 114.513 118.75C112.091 116.327 110.728 113.042 110.724 109.616V106.405C110.724 98.4522 112.231 91.793 115.203 86.6128C118.805 80.5871 123.007 74.9412 127.745 69.7612C130.891 66.598 133.745 63.1579 136.273 59.4824C138.087 56.627 139.023 53.3023 138.966 49.9199C138.966 41.9419 133.769 38.0635 123.076 38.0635C117.144 38.1305 111.25 39.0152 105.561 40.6924C103.366 41.3187 101.057 41.4273 98.8133 41.0094C96.5699 40.5916 94.4542 39.6588 92.6326 38.2845C90.8109 36.9101 89.3331 35.1317 88.3155 33.0893C87.2979 31.0469 86.7682 28.7961 86.7681 26.5142V20.0142C86.7555 17.216 87.5549 14.4743 89.0693 12.1213C90.5838 9.7684 92.7482 7.90527 95.3003 6.75781C105.349 2.46939 116.186 0.337503 127.11 0.500001C138.555 0.500001 148.886 2.42236 157.817 6.21289C166.765 10.0122 173.834 15.3696 178.829 22.1367C183.808 28.8559 186.454 37.0184 186.365 45.3809C186.365 54.3609 183.913 62.1821 179.078 68.6274C174.296 75.0073 167.44 81.9917 158.702 89.3877C154.098 93.2166 149.735 97.3267 145.639 101.694C142.993 104.544 141.123 108.026 140.207 111.806C139.698 114.812 138.138 117.541 135.806 119.506C133.474 121.471 130.521 122.546 127.472 122.539V122.539Z" fill="#6153CC"/>
  <path d="M125.345 183.311H124.841C118.491 183.306 112.403 180.781 107.915 176.29C103.426 171.799 100.905 165.709 100.905 159.359C100.905 153.01 103.426 146.92 107.915 142.429C112.403 137.938 118.491 135.412 124.841 135.408H125.345C128.492 135.406 131.608 136.024 134.516 137.227C137.423 138.43 140.066 140.194 142.291 142.418C144.517 144.642 146.283 147.283 147.487 150.19C148.692 153.097 149.312 156.213 149.312 159.359C149.312 162.506 148.692 165.622 147.487 168.529C146.283 171.436 144.517 174.077 142.291 176.301C140.066 178.525 137.423 180.289 134.516 181.492C131.608 182.695 128.492 183.313 125.345 183.311Z" fill="#6153CC"/>
  <path d="M30.2205 86.637C33.792 86.637 36.6874 83.7417 36.6874 80.1701C36.6874 76.5985 33.792 73.7032 30.2205 73.7032C26.6489 73.7032 23.7536 76.5985 23.7536 80.1701C23.7536 83.7417 26.6489 86.637 30.2205 86.637Z" fill="#F2F2F2"/>
</svg>
