<svg width="644" height="543" viewBox="0 0 644 543" fill="none" xmlns="http://www.w3.org/2000/svg">
  <g clip-path="url(#clip0)">
    <path d="M567 542.339C605.66 542.339 637 539.949 637 537C637 534.051 605.66 531.661 567 531.661C528.34 531.661 497 534.051 497 537C497 539.949 528.34 542.339 567 542.339Z" fill="#E6E6E6"/>
    <path d="M226 542.339C264.66 542.339 296 539.949 296 537C296 534.051 264.66 531.661 226 531.661C187.34 531.661 156 534.051 156 537C156 539.949 187.34 542.339 226 542.339Z" fill="#E6E6E6"/>
    <path d="M536.5 472H60.5C58.5115 471.998 56.6051 471.207 55.1991 469.801C53.793 468.395 53.0022 466.488 53 464.5V7.5C53.0022 5.51154 53.793 3.60515 55.1991 2.1991C56.6051 0.793044 58.5115 0.00217049 60.5 0H536.5C538.488 0.00217049 540.395 0.793044 541.801 2.1991C543.207 3.60515 543.998 5.51154 544 7.5V464.5C543.998 466.488 543.207 468.395 541.801 469.801C540.395 471.207 538.488 471.998 536.5 472ZM60.5 3C59.3069 3.0013 58.1631 3.47583 57.3195 4.31946C56.4758 5.16309 56.0013 6.30693 56 7.5V464.5C56.0013 465.693 56.4758 466.837 57.3195 467.681C58.1631 468.524 59.3069 468.999 60.5 469H536.5C537.693 468.999 538.837 468.524 539.681 467.681C540.524 466.837 540.999 465.693 541 464.5V7.5C540.999 6.30692 540.524 5.16309 539.681 4.31946C538.837 3.47583 537.693 3.0013 536.5 3H60.5Z" fill="#E6E6E6"/>
    <path d="M88 40C87.2046 40.0009 86.4421 40.3172 85.8796 40.8796C85.3172 41.4421 85.0009 42.2046 85 43V167C85.0009 167.795 85.3172 168.558 85.8796 169.12C86.4421 169.683 87.2046 169.999 88 170H212C212.795 169.999 213.558 169.683 214.12 169.12C214.683 168.558 214.999 167.795 215 167V43C214.999 42.2046 214.683 41.4421 214.12 40.8796C213.558 40.3172 212.795 40.0009 212 40H88Z" fill="#E6E6E6"/>
    <path d="M283.04 129.75C282.089 129.766 281.183 130.155 280.516 130.833C279.849 131.511 279.475 132.424 279.475 133.375C279.475 134.326 279.849 135.239 280.516 135.917C281.183 136.595 282.089 136.984 283.04 136.999H453.918C454.395 137.009 454.868 136.923 455.312 136.749C455.756 136.575 456.161 136.314 456.504 135.983C456.847 135.652 457.122 135.257 457.312 134.819C457.501 134.382 457.603 133.911 457.611 133.435C457.619 132.958 457.533 132.484 457.357 132.041C457.182 131.598 456.92 131.193 456.588 130.851C456.256 130.509 455.86 130.235 455.422 130.047C454.984 129.858 454.514 129.757 454.037 129.75C453.997 129.75 453.958 129.75 453.918 129.75H283.04Z" fill="#E6E6E6"/>
    <path d="M283.04 96.7505C282.089 96.7663 281.183 97.1551 280.516 97.8331C279.849 98.5111 279.475 99.424 279.475 100.375C279.475 101.326 279.849 102.239 280.516 102.917C281.183 103.595 282.089 103.984 283.04 103.999H331.918C332.395 104.009 332.868 103.923 333.312 103.749C333.756 103.575 334.161 103.314 334.504 102.983C334.847 102.652 335.122 102.257 335.312 101.819C335.501 101.382 335.603 100.911 335.611 100.435C335.619 99.9579 335.533 99.4843 335.357 99.0409C335.182 98.5976 334.92 98.1933 334.588 97.851C334.256 97.5088 333.86 97.2354 333.422 97.0466C332.984 96.8577 332.514 96.7571 332.037 96.7505C331.997 96.7498 331.958 96.7498 331.918 96.7505H283.04Z" fill="#E6E6E6"/>
    <path d="M283.04 163.75C282.089 163.766 281.183 164.155 280.516 164.833C279.849 165.511 279.475 166.424 279.475 167.375C279.475 168.326 279.849 169.239 280.516 169.917C281.183 170.595 282.089 170.984 283.04 170.999H453.918C454.878 171.013 455.803 170.645 456.492 169.977C457.181 169.308 457.577 168.394 457.593 167.434C457.609 166.475 457.243 165.548 456.576 164.857C455.91 164.167 454.997 163.769 454.037 163.75C453.997 163.75 453.958 163.75 453.918 163.75H283.04Z" fill="#E6E6E6"/>
    <path d="M486.309 294.712H251.471C246.893 294.712 243.183 292.069 243.178 288.812V237.77C243.183 234.513 246.893 231.87 251.471 231.87H486.309C490.887 231.87 494.597 234.513 494.602 237.77V288.811C494.598 292.069 490.887 294.708 486.309 294.712Z" fill="#E6E6E6"/>
    <path d="M327.309 418.712H92.4708C87.8928 418.712 84.1828 416.069 84.1778 412.812V361.77C84.1828 358.513 87.8928 355.87 92.4708 355.87H327.309C331.887 355.87 335.597 358.513 335.602 361.77V412.811C335.598 416.068 331.887 418.708 327.309 418.712Z" fill="#E6E6E6"/>
    <path d="M256.466 446.831H21.6283C17.0503 446.831 13.3403 444.187 13.3353 440.93V389.888C13.3403 386.631 17.0503 383.988 21.6283 383.988H256.466C261.044 383.988 264.754 386.631 264.759 389.888V440.93C264.755 444.187 261.044 446.827 256.466 446.831ZM21.6283 386.346C18.8813 386.346 16.6553 387.932 16.6523 389.886V440.927C16.6523 442.881 18.8813 444.465 21.6283 444.467H256.466C259.213 444.467 261.439 442.881 261.442 440.927V389.888C261.442 387.934 259.213 386.351 256.466 386.349L21.6283 386.346Z" fill="#3F3D56"/>
    <path d="M341 307C351.493 307 360 298.493 360 288C360 277.507 351.493 269 341 269C330.507 269 322 277.507 322 288C322 298.493 330.507 307 341 307Z" fill="#6153CC"/>
    <path d="M56 434C66.4934 434 75 425.493 75 415C75 404.507 66.4934 396 56 396C45.5066 396 37 404.507 37 415C37 425.493 45.5066 434 56 434Z" fill="#6153CC"/>
    <path d="M382.04 274.375C381.089 274.391 380.183 274.78 379.516 275.458C378.849 276.136 378.475 277.049 378.475 278C378.475 278.951 378.849 279.864 379.516 280.542C380.183 281.22 381.089 281.609 382.04 281.624H517.918C518.878 281.638 519.803 281.27 520.492 280.602C521.181 279.933 521.577 279.019 521.593 278.059C521.609 277.1 521.243 276.173 520.576 275.482C519.91 274.792 518.997 274.394 518.037 274.375C517.997 274.375 517.958 274.375 517.918 274.375H382.04Z" fill="#3F3D56"/>
    <path d="M382.04 294.375C381.089 294.391 380.183 294.78 379.516 295.458C378.849 296.136 378.475 297.049 378.475 298C378.475 298.951 378.849 299.864 379.516 300.542C380.183 301.22 381.089 301.609 382.04 301.624H517.918C518.878 301.638 519.803 301.27 520.492 300.602C521.181 299.933 521.577 299.019 521.593 298.059C521.609 297.1 521.243 296.173 520.576 295.482C519.91 294.792 518.997 294.394 518.037 294.375C517.997 294.375 517.958 294.375 517.918 294.375H382.04Z" fill="#3F3D56"/>
    <path d="M97.0399 401.375C96.0891 401.391 95.1825 401.78 94.5157 402.458C93.8488 403.136 93.4751 404.049 93.4751 405C93.4751 405.951 93.8488 406.864 94.5157 407.542C95.1825 408.22 96.0891 408.609 97.0399 408.625H232.918C233.878 408.638 234.803 408.27 235.492 407.602C236.181 406.933 236.577 406.019 236.593 405.059C236.609 404.1 236.243 403.173 235.576 402.482C234.91 401.792 233.997 401.394 233.037 401.375C232.997 401.375 232.958 401.375 232.918 401.375H97.0399Z" fill="#3F3D56"/>
    <path d="M97.0399 421.375C96.0891 421.391 95.1825 421.78 94.5157 422.458C93.8488 423.136 93.4751 424.049 93.4751 425C93.4751 425.951 93.8488 426.864 94.5157 427.542C95.1825 428.22 96.0891 428.609 97.0399 428.625H232.918C233.878 428.638 234.803 428.27 235.492 427.602C236.181 426.933 236.577 426.019 236.593 425.059C236.609 424.1 236.243 423.173 235.576 422.482C234.91 421.792 233.997 421.394 233.037 421.375C232.997 421.375 232.958 421.375 232.918 421.375H97.0399Z" fill="#3F3D56"/>
    <path d="M547.403 319.665H312.565C307.987 319.665 304.277 317.022 304.272 313.765V262.723C304.277 259.466 307.987 256.823 312.565 256.823H547.403C551.981 256.823 555.691 259.466 555.696 262.723V313.764C555.692 317.021 551.981 319.661 547.403 319.665ZM312.565 259.181C309.818 259.181 307.592 260.767 307.589 262.721V313.762C307.589 315.716 309.818 317.3 312.565 317.302H547.403C550.15 317.302 552.376 315.716 552.379 313.762V262.723C552.379 260.769 550.15 259.185 547.403 259.183L312.565 259.181Z" fill="#3F3D56"/>
    <path fill-rule="evenodd" clip-rule="evenodd" d="M233.152 456.656L229.601 457.122L229.597 457.119C198.048 461.47 173.313 470.797 174.346 477.963C174.775 480.901 179.468 483.02 187.034 484.189C190.567 493.333 196.852 501.175 205.02 506.628C212.562 511.662 221.364 514.432 230.377 514.632C231.575 514.658 232.478 513.585 232.306 512.399L229.541 493.308C229.492 492.97 229.274 492.681 228.963 492.54L228.701 492.422C226.662 491.402 225.006 489.751 223.982 487.717C222.958 485.683 222.621 483.377 223.023 481.145C223.425 478.913 224.543 476.876 226.209 475.342C227.876 473.807 230 472.858 232.262 472.637C234.524 472.415 236.802 472.934 238.752 474.115C240.703 475.295 242.22 477.074 243.076 479.183C243.933 481.292 244.081 483.617 243.499 485.807C242.967 487.811 241.851 489.603 240.298 490.961C240.028 491.197 239.882 491.55 239.934 491.905L242.697 510.998C242.867 512.174 244.019 512.946 245.155 512.6C253.767 509.975 261.447 504.934 267.269 498.053C273.57 490.608 277.384 481.378 278.184 471.639C285.123 468.464 289.034 465.156 288.609 462.221C287.691 455.874 266.846 453.357 240.161 455.888L236.651 456.248L233.152 456.656Z" fill="#FFB800"/>
    <path fill-rule="evenodd" clip-rule="evenodd" d="M227.214 410.743C225.794 410.332 224.305 410.223 222.844 410.425C221.385 410.627 219.987 411.134 218.741 411.914C217.495 412.693 216.429 413.726 215.613 414.947C214.797 416.168 214.248 417.548 214.004 418.998C213.76 420.448 213.825 421.935 214.195 423.363C206.939 426.099 200.483 430.582 195.396 436.415C191.141 441.295 187.955 446.994 186.021 453.149C185.538 454.683 187.065 456.019 188.582 455.485C198.323 452.062 210.472 449.357 224.177 447.306L228.1 446.747C243.386 444.637 257.213 443.751 268.52 444.465C270.135 444.567 271.24 442.848 270.34 441.503C266.738 436.124 262.066 431.519 256.602 427.986C250.06 423.755 242.585 421.192 234.838 420.522C234.789 419.05 234.429 417.602 233.783 416.273C233.136 414.945 232.217 413.766 231.085 412.813C229.953 411.86 228.634 411.155 227.214 410.743Z" fill="#FFB800"/>
    <path fill-rule="evenodd" clip-rule="evenodd" d="M68.0321 182.274L64.451 182.243L64.4473 182.239C32.5997 182.164 6.80891 187.965 6.83641 195.205C6.85292 198.174 11.2057 200.924 18.5367 203.133C20.7644 212.68 25.8993 221.318 33.2308 227.853C39.9994 233.886 48.3316 237.852 57.2294 239.302C58.4121 239.495 59.4555 238.558 59.4502 237.359L59.3638 218.069C59.3622 217.728 59.1867 217.411 58.8982 217.228L58.6551 217.075C56.7777 215.782 55.367 213.916 54.6356 211.76C53.9041 209.604 53.8914 207.273 54.5993 205.118C55.3072 202.964 56.6975 201.103 58.5608 199.814C60.4241 198.526 62.6596 197.881 64.9306 197.976C67.2016 198.072 69.3853 198.902 71.1528 200.342C72.9203 201.782 74.176 203.754 74.7308 205.962C75.2856 208.169 75.1095 210.492 74.229 212.581C73.4238 214.491 72.0695 216.111 70.3431 217.24C70.0427 217.436 69.8496 217.765 69.8511 218.124L69.9343 237.416C69.9394 238.603 70.9731 239.528 72.1461 239.343C81.0393 237.94 89.3452 234.015 96.0671 228.01C103.341 221.513 108.401 212.902 110.546 203.369C117.858 201.188 122.191 198.456 122.179 195.49C122.151 189.077 101.858 183.689 75.0801 182.488L71.5542 182.357L68.0321 182.274Z" fill="black"/>
    <path fill-rule="evenodd" clip-rule="evenodd" d="M68.5307 135.982C67.1817 135.377 65.7222 135.063 64.2476 135.06C62.7743 135.057 61.3191 135.365 59.9768 135.964C58.6346 136.562 57.4356 137.438 56.4578 138.533C55.48 139.629 54.7455 140.92 54.3021 142.322C53.8588 143.724 53.7165 145.205 53.8846 146.67C46.3193 148.372 39.3025 151.915 33.4548 156.985C28.5632 161.226 24.6157 166.427 21.8452 172.253C21.1546 173.706 22.4808 175.24 24.0573 174.923C34.1794 172.886 46.5865 171.895 60.443 171.768L64.4058 171.759C79.8372 171.794 93.6534 172.837 104.751 175.115C106.336 175.441 107.67 173.892 106.965 172.435C104.145 166.607 100.158 161.398 95.2384 157.14C89.3476 152.042 82.3011 148.465 74.7221 146.726C74.8782 145.26 74.7233 143.776 74.2674 142.371C73.8115 140.966 73.065 139.67 72.0764 138.569C71.0879 137.468 69.8797 136.587 68.5307 135.982Z" fill="black"/>
    <rect x="19.3933" y="209.687" width="95" height="30" fill="white"/>
    <path fill-rule="evenodd" clip-rule="evenodd" d="M571.973 349.61L569.517 347.003L569.518 346.998C547.537 323.952 525.504 309.344 520.296 314.374C518.164 316.44 519.19 321.486 522.667 328.307C517.316 336.52 514.632 346.204 514.986 356.019C515.313 365.081 518.215 373.84 523.324 381.268C524.003 382.255 525.402 382.36 526.263 381.527L540.131 368.118C540.376 367.881 540.484 367.535 540.416 367.2L540.359 366.918C539.993 364.668 540.364 362.359 541.415 360.339C542.466 358.319 544.14 356.697 546.185 355.718C548.23 354.738 550.536 354.454 552.755 354.908C554.975 355.362 556.987 356.53 558.49 358.235C559.992 359.941 560.904 362.092 561.087 364.364C561.27 366.637 560.715 368.908 559.505 370.836C558.295 372.764 556.496 374.244 554.379 375.053C552.443 375.794 550.336 375.937 548.327 375.471C547.977 375.39 547.606 375.478 547.348 375.728L533.476 389.136C532.623 389.961 532.67 391.347 533.615 392.066C540.781 397.517 549.362 400.797 558.348 401.496C568.072 402.252 577.79 399.948 586.158 394.901C592.791 398.672 597.762 399.909 599.894 397.848C604.505 393.391 594.355 375.011 576.695 354.847L574.35 352.211L571.973 349.61Z" fill="#6153CC"/>
    <path fill-rule="evenodd" clip-rule="evenodd" d="M605.741 317.941C605.244 316.549 604.461 315.278 603.443 314.211C602.426 313.145 601.196 312.308 599.836 311.753C598.475 311.198 597.013 310.938 595.545 310.99C594.078 311.042 592.638 311.405 591.319 312.055C590 312.705 588.832 313.627 587.89 314.762C581.427 310.477 574.015 307.862 566.308 307.148C559.861 306.551 553.375 307.299 547.251 309.33C545.725 309.836 545.535 311.856 546.854 312.774C555.328 318.673 564.628 326.946 574.307 336.862L577.055 339.717C587.707 350.883 596.513 361.58 602.547 371.168C603.408 372.538 605.449 372.429 606.013 370.913C608.27 364.844 609.273 358.361 608.943 351.864C608.548 344.083 606.256 336.52 602.268 329.845C603.434 328.944 604.398 327.805 605.097 326.504C605.796 325.202 606.215 323.767 606.326 322.291C606.437 320.816 606.238 319.334 605.741 317.941Z" fill="#6153CC"/>
    <path d="M129 77H5C3.67406 77.0005 2.40257 77.5274 1.465 78.465C0.527418 79.4026 0.000479728 80.6741 0 82V206C0.000479728 207.326 0.527418 208.597 1.465 209.535C2.40257 210.473 3.67406 211 5 211H129C130.326 211 131.597 210.473 132.535 209.535C133.473 208.597 134 207.326 134 206V82C134 80.6741 133.473 79.4026 132.535 78.465C131.597 77.5274 130.326 77.0005 129 77ZM132 206C131.998 206.795 131.681 207.557 131.119 208.119C130.557 208.681 129.795 208.998 129 209H5C4.20507 208.998 3.44336 208.681 2.88126 208.119C2.31915 207.557 2.00233 206.795 2 206V82C2.00232 81.2051 2.31915 80.4434 2.88126 79.8813C3.44336 79.3191 4.20506 79.0023 5 79H129C129.795 79.0023 130.557 79.3191 131.119 79.8813C131.681 80.4434 131.998 81.2051 132 82V206Z" fill="#3F3D56"/>
  </g>
  <defs>
    <clipPath id="clip0">
      <rect width="643.451" height="542.339" fill="white"/>
    </clipPath>
  </defs>
</svg>
