<svg width="629" height="479" viewBox="0 0 629 479" fill="none" xmlns="http://www.w3.org/2000/svg">
  <path d="M57.246 383.367L52.0035 362.683C42.7079 358.743 33.1975 355.329 23.5175 352.46L22.8556 362.073L20.1715 351.483C8.1668 348.053 0 346.543 0 346.543C0 346.543 11.0315 388.506 34.1691 420.587L61.1296 425.324L40.1847 428.345C43.0965 431.849 46.2256 435.166 49.5537 438.277C83.2125 469.53 120.702 483.869 133.289 470.304C145.876 456.739 128.794 420.407 95.135 389.155C84.7004 379.466 71.5924 371.691 58.4714 365.572L57.246 383.367Z" fill="#CCCCCC"/>
  <path d="M107.087 360.802L113.272 340.513C107.366 332.384 101.004 324.594 94.2176 317.18L88.6977 325.017L91.8643 314.629C83.3812 305.544 77.1863 300.063 77.1863 300.063C77.1863 300.063 64.9771 341.427 68.1984 380.606L88.7776 398.488L69.3362 390.296C70.0165 394.773 70.9787 399.202 72.217 403.559C84.8491 447.438 109.47 478.899 127.209 473.827C144.949 468.755 149.089 429.072 136.457 385.193C132.541 371.589 125.356 358.24 117.306 346.293L107.087 360.802Z" fill="#FFB800"/>
  <path d="M538.983 406.578L550.688 399.219C551.263 392.7 551.469 386.154 551.307 379.611L545.249 381.12L551.242 377.353C550.962 369.265 550.264 363.927 550.264 363.927C550.264 363.927 526.596 379.1 511.435 399.769L513.893 417.341L507.852 405.026C506.273 407.521 504.853 410.112 503.599 412.785C491.047 439.778 489.687 465.759 500.56 470.817C511.433 475.874 530.422 458.093 542.973 431.1C546.865 422.732 549.043 413.097 550.197 403.784L538.983 406.578Z" fill="#CCCCCC"/>
  <path d="M563.018 432.628L576.835 432.38C580.694 427.098 584.253 421.602 587.494 415.919L581.531 414.079L588.605 413.952C592.543 406.885 594.703 401.956 594.703 401.956C594.703 401.956 566.614 402.709 542.964 412.562L535.99 428.872L537.183 415.21C534.543 416.529 531.989 418.013 529.535 419.652C504.852 436.266 490.266 457.799 496.956 467.747C503.647 477.695 529.081 472.291 553.765 455.677C561.417 450.527 568.258 443.407 574.057 436.033L563.018 432.628Z" fill="#FFB800"/>
  <path d="M590.377 474.586H90.4877V475.689H590.377V474.586Z" fill="#3F3D56"/>
  <path d="M211.023 51.167L209.113 50.2087L203.94 60.522L205.849 61.4803L211.023 51.167Z" fill="white"/>
  <path d="M200.019 309.247L199.386 309.32L199.784 312.737L200.417 312.663L200.019 309.247Z" fill="#3F3D56"/>
  <path d="M203.795 339.398L203.595 338.794L200.331 339.877L200.531 340.481L203.795 339.398Z" fill="white"/>
  <path d="M200.837 321.687L200.201 321.725L200.407 325.159L201.043 325.121L200.837 321.687Z" fill="white"/>
  <path d="M197.864 302.86L197.229 302.898L197.435 306.332L198.071 306.294L197.864 302.86Z" fill="white"/>
  <path d="M243.295 316.903L243.056 316.312L239.867 317.601L240.106 318.191L243.295 316.903Z" fill="#FF6584"/>
  <path d="M205.698 315.899L205.083 315.734L204.193 319.056L204.808 319.221L205.698 315.899Z" fill="#FF6584"/>
  <path d="M239.971 58.1545H237.857V69.7745H239.971V58.1545Z" fill="#3F3D56"/>
  <path d="M238.914 84.5637H236.8V95.1273H238.914V84.5637Z" fill="white"/>
  <path d="M237.17 311.201L236.747 310.777L234.461 313.063L234.884 313.486L237.17 311.201Z" fill="white"/>
  <path d="M243.18 345.825L242.757 345.402L240.471 347.688L240.894 348.111L243.18 345.825Z" fill="white"/>
  <path d="M238.385 331.474L237.807 331.319L236.97 334.441L237.548 334.596L238.385 331.474Z" fill="#FF6584"/>
  <path d="M239.879 319.666L239.456 319.243L237.17 321.529L237.593 321.952L239.879 319.666Z" fill="#FF6584"/>
  <path d="M230.711 319.532C231.225 319.018 231.514 318.32 231.514 317.593C231.514 316.866 231.225 316.169 230.711 315.655C230.196 315.141 229.498 314.852 228.771 314.852C228.043 314.852 227.345 315.141 226.831 315.655L139.289 403.132C138.775 403.646 138.486 404.344 138.486 405.071C138.486 405.798 138.775 406.495 139.289 407.009C139.804 407.523 140.502 407.812 141.229 407.812C141.957 407.812 142.655 407.523 143.169 407.009L230.147 320.095" fill="#3F3D56"/>
  <path d="M239.509 307.887C233.135 301.525 224.85 297.424 215.922 296.212C206.995 295 197.916 296.744 190.074 301.176C182.232 305.609 176.058 312.486 172.498 320.756C168.938 329.026 168.187 338.234 170.36 346.971C172.532 355.708 177.509 363.493 184.529 369.136C191.55 374.779 200.226 377.969 209.232 378.218C218.238 378.467 227.078 375.762 234.4 370.515C241.722 365.269 247.122 357.77 249.775 349.166C251.981 342.003 252.191 334.375 250.383 327.101C248.574 319.828 244.815 313.185 239.509 307.887ZM205.751 352.718C202.913 351.931 200.327 350.423 198.245 348.341C197.824 347.92 197.434 347.476 197.06 347.025C194.489 343.859 193.135 339.879 193.242 335.803C193.35 331.727 194.913 327.824 197.648 324.799C200.383 321.773 204.111 319.825 208.158 319.305C212.205 318.784 216.304 319.727 219.717 321.963C223.129 324.198 225.629 327.579 226.766 331.495C227.902 335.411 227.6 339.603 225.914 343.316C224.228 347.029 221.269 350.017 217.572 351.741C213.874 353.466 209.682 353.812 205.751 352.718Z" fill="#6153CC"/>
  <path d="M145.886 78.9869C145.886 76.5437 144.939 74.2004 143.254 72.4728C141.569 70.7451 139.283 69.7745 136.9 69.7745C134.517 69.7745 132.231 70.7451 130.546 72.4728C128.861 74.2004 127.914 76.5437 127.914 78.9869V467.264C127.914 468.474 128.147 469.672 128.598 470.789C129.05 471.907 129.712 472.923 130.546 473.778C131.381 474.633 132.371 475.312 133.461 475.775C134.552 476.238 135.72 476.476 136.9 476.476C138.08 476.476 139.248 476.238 140.339 475.775C141.429 475.312 142.419 474.633 143.254 473.778C144.088 472.923 144.75 471.907 145.202 470.789C145.653 469.672 145.886 468.474 145.886 467.264V81.6626" fill="#3F3D56"/>
  <path d="M264.025 75.097C248.158 45.1078 221.858 21.9566 190.086 10.0101C158.313 -1.93653 123.264 -1.85273 91.5495 10.2457C59.8346 22.344 33.646 45.6207 17.9233 75.6854C2.20053 105.75 -1.9696 140.525 6.19941 173.45C14.3684 206.376 34.3119 235.177 62.2683 254.42C90.2247 273.664 124.262 282.02 157.959 277.913C191.657 273.806 222.686 257.52 245.194 232.126C267.702 206.731 280.133 173.985 280.143 140.063C280.152 117.418 274.619 95.1147 264.025 75.097ZM169.475 190.205C158.452 196.423 145.686 198.84 133.15 197.082C120.614 195.325 109.006 189.491 100.121 180.481C91.2349 171.472 85.5657 159.79 83.9892 147.239C82.4126 134.688 85.0165 121.968 91.3984 111.044C97.7803 100.12 107.585 91.5998 119.297 86.801C131.009 82.0022 143.977 81.1914 156.197 84.494C168.416 87.7965 179.207 95.0286 186.902 105.073C194.597 115.117 198.767 127.413 198.769 140.063C198.799 150.27 196.1 160.301 190.95 169.117C185.799 177.932 178.386 185.213 169.475 190.205H169.475Z" fill="#6153CC"/>
  <path opacity="0.2" d="M140.6 270.031C104.62 270.031 70.0529 255.965 44.218 230.812C18.3832 205.66 3.30914 171.396 2.18781 135.275C2.13986 136.779 2.11535 138.29 2.11426 139.806C2.10981 158.075 5.68856 176.166 12.6461 193.046C19.6037 209.926 29.8038 225.263 42.6638 238.183C55.5238 251.103 70.7919 261.352 87.596 268.344C104.4 275.336 122.411 278.935 140.6 278.935C158.789 278.935 176.8 275.336 193.604 268.344C210.408 261.352 225.676 251.103 238.536 238.183C251.396 225.263 261.596 209.926 268.554 193.046C275.511 176.166 279.09 158.075 279.086 139.806C279.086 138.288 279.061 136.776 279.012 135.269C277.892 171.391 262.819 205.657 236.984 230.811C211.149 255.964 176.581 270.031 140.6 270.031Z" fill="black"/>
  <path opacity="0.2" d="M141.125 70.8309C127.43 70.8317 114.043 74.8903 102.657 82.4935C91.2706 90.0967 82.3961 100.903 77.1558 113.546C71.9155 126.189 70.5446 140.101 73.2165 153.523C75.8883 166.944 82.483 179.273 92.1666 188.949C101.85 198.626 114.188 205.215 127.619 207.885C141.05 210.555 154.973 209.185 167.625 203.949C180.277 198.712 191.092 189.844 198.7 178.466C206.309 167.088 210.371 153.711 210.371 140.027C210.351 121.681 203.049 104.093 190.067 91.1204C177.085 78.1481 159.484 70.8513 141.125 70.8309ZM169.397 190.094C158.39 196.303 145.643 198.716 133.126 196.961C120.609 195.206 109.018 189.381 100.146 180.385C91.2733 171.39 85.6126 159.725 84.0384 147.192C82.4642 134.66 85.0642 121.959 91.4366 111.051C97.8089 100.143 107.599 91.6363 119.294 86.8446C130.989 82.0529 143.937 81.2434 156.138 84.541C168.34 87.8386 179.115 95.0599 186.798 105.089C194.481 115.118 198.645 127.396 198.647 140.027C198.677 150.219 195.982 160.235 190.839 169.037C185.697 177.84 178.294 185.11 169.397 190.094Z" fill="black"/>
  <path d="M263.229 73.7184V96.7432C263.23 98.4243 262.728 100.067 261.788 101.461C260.849 102.854 259.513 103.934 257.955 104.561C256.397 105.188 254.687 105.334 253.045 104.979C251.403 104.625 249.905 103.787 248.743 102.573V105.196C248.743 107.849 247.691 110.393 245.817 112.269C243.943 114.145 241.401 115.198 238.751 115.198C236.101 115.198 233.56 114.145 231.686 112.269C229.812 110.393 228.759 107.849 228.759 105.196V103.01C227.551 104.098 226.053 104.812 224.447 105.066C222.841 105.319 221.196 105.101 219.712 104.438C218.227 103.775 216.967 102.695 216.083 101.329C215.199 99.9635 214.729 98.3705 214.731 96.7432L214.33 72.2701V66.6253C214.329 65.7217 213.969 64.8557 213.331 64.2173C212.692 63.5789 211.826 63.2204 210.924 63.2204C210.021 63.2204 209.155 63.5789 208.516 64.2173C207.878 64.8557 207.518 65.7217 207.517 66.6253V72.2701L207.116 92.7313C207.116 94.9657 206.229 97.1087 204.651 98.6888C203.072 100.269 200.931 101.156 198.699 101.156C196.467 101.156 194.326 100.269 192.747 98.6888C191.169 97.1087 190.282 94.9657 190.282 92.7313L189.252 72.2701V61.8108C189.252 60.3286 188.664 58.9071 187.617 57.859C186.57 56.811 185.15 56.2221 183.669 56.2221C182.188 56.2221 180.768 56.811 179.721 57.859C178.674 58.9071 178.086 60.3286 178.086 61.8108V72.2701L177.456 92.7312C177.458 94.4834 176.913 96.1924 175.898 97.6199C174.883 99.0474 173.448 100.122 171.793 100.695C170.139 101.267 168.347 101.308 166.668 100.813C164.989 100.317 163.506 99.3099 162.426 97.9307C161.095 99.6342 159.159 100.758 157.021 101.069C154.883 101.38 152.708 100.854 150.947 99.5997V105.196C150.947 107.849 149.895 110.393 148.021 112.269C146.147 114.145 143.605 115.198 140.955 115.198C138.305 115.198 135.764 114.145 133.89 112.269C132.016 110.393 130.963 107.849 130.963 105.196V87.9168C130.964 89.8442 130.304 91.7136 129.094 93.2128C127.884 94.7121 126.197 95.7505 124.314 96.1547C122.432 96.5589 120.467 96.3045 118.749 95.4339C117.032 94.5634 115.664 93.1293 114.875 91.3712V105.196C114.875 107.849 113.822 110.393 111.948 112.269C110.074 114.145 107.533 115.198 104.883 115.198C102.233 115.198 99.6913 114.145 97.8174 112.269C95.9435 110.393 94.8908 107.849 94.8908 105.196V72.2701H94.8347V105.196C94.8347 107.849 93.7819 110.393 91.9081 112.269C90.0342 114.145 87.4927 115.198 84.8426 115.198C82.1926 115.198 79.6511 114.145 77.7772 112.269C75.9033 110.393 74.8506 107.849 74.8506 105.196V91.4875C74.0399 93.2235 72.6619 94.6307 70.9442 95.4768C69.2266 96.3229 67.272 96.5572 65.4033 96.141C63.5346 95.7248 61.8636 94.683 60.6664 93.1877C59.4691 91.6925 58.8173 89.8331 58.8184 87.9168V72.2701H57.9607V100.382C57.9607 103.035 56.908 105.579 55.0341 107.454C53.1602 109.33 50.6187 110.384 47.9686 110.384C45.3186 110.384 42.7771 109.33 40.9032 107.454C39.0293 105.579 37.9766 103.035 37.9766 100.382V87.9168C37.9777 89.0239 37.7608 90.1204 37.3383 91.1436C36.9158 92.1667 36.296 93.0965 35.5143 93.8797C34.7326 94.663 33.8044 95.2843 32.7826 95.7082C31.7609 96.1322 30.6657 96.3504 29.5597 96.3504C28.4537 96.3504 27.3585 96.1322 26.3368 95.7082C25.315 95.2843 24.3868 94.663 23.6051 93.8797C22.8234 93.0965 22.2036 92.1667 21.7811 91.1436C21.3586 90.1204 21.1417 89.0239 21.1428 87.9168V69.3694C33.4872 47.9326 51.3446 30.1985 72.8574 18.0122C94.3702 5.8259 118.752 -0.367434 143.467 0.0765597C168.182 0.520554 192.326 7.58565 213.388 20.5368C234.45 33.488 251.661 51.852 263.229 73.7184Z" fill="#CCCCCC"/>
  <path opacity="0.2" d="M85.1 110.13C83.7811 110.13 82.4751 109.878 81.2566 109.39C80.0381 108.901 78.931 108.185 77.9984 107.283C77.0658 106.38 76.326 105.308 75.8214 104.129C75.3167 102.95 75.057 101.686 75.0571 100.409V105.478C75.0571 108.056 76.1152 110.528 77.9986 112.351C79.882 114.174 82.4364 115.198 85.1 115.198C87.7635 115.198 90.318 114.174 92.2014 112.351C94.0848 110.528 95.1429 108.056 95.1429 105.478V100.409C95.143 101.686 94.8832 102.95 94.3786 104.129C93.8739 105.309 93.1342 106.38 92.2016 107.283C91.269 108.185 90.1618 108.901 88.9433 109.39C87.7248 109.878 86.4188 110.13 85.1 110.13Z" fill="black"/>
  <path opacity="0.2" d="M105.186 110.13C103.867 110.13 102.561 109.878 101.342 109.39C100.124 108.901 99.0166 108.185 98.0841 107.283C97.1515 106.38 96.4117 105.308 95.9071 104.129C95.4024 102.95 95.1427 101.686 95.1428 100.409V105.478C95.1428 108.056 96.2009 110.528 98.0843 112.351C99.9677 114.174 102.522 115.198 105.186 115.198C107.849 115.198 110.404 114.174 112.287 112.351C114.17 110.528 115.229 108.056 115.229 105.478V100.409C115.229 101.686 114.969 102.95 114.464 104.129C113.96 105.309 113.22 106.38 112.287 107.283C111.355 108.185 110.247 108.901 109.029 109.39C107.81 109.878 106.505 110.13 105.186 110.13Z" fill="black"/>
  <path opacity="0.2" d="M75.0572 86.0457C74.2554 87.7933 72.8925 89.2101 71.1935 90.0619C69.4946 90.9137 67.5613 91.1496 65.713 90.7306C63.8647 90.3116 62.212 89.2628 61.0279 87.7574C59.8437 86.252 59.1989 84.3801 59.2001 82.4509V87.7017C59.1989 89.6309 59.8437 91.5028 61.0279 93.0082C62.212 94.5136 63.8647 95.5624 65.713 95.9814C67.5613 96.4004 69.4946 96.1645 71.1935 95.3127C72.8925 94.4609 74.2554 93.0441 75.0572 91.2965V86.0457Z" fill="black"/>
  <path opacity="0.2" d="M38.0571 82.4509C38.0549 84.7004 37.1629 86.857 35.5771 88.4469C33.9913 90.0367 31.8415 90.9297 29.6 90.9297C27.3584 90.9297 25.2086 90.0367 23.6228 88.4469C22.037 86.857 21.145 84.7004 21.1428 82.4509V87.7049C21.145 89.9544 22.037 92.111 23.6228 93.7008C25.2086 95.2907 27.3584 96.1837 29.6 96.1837C31.8415 96.1837 33.9913 95.2907 35.5771 93.7008C37.1629 92.111 38.0549 89.9544 38.0571 87.7049V82.4509Z" fill="black"/>
  <path opacity="0.2" d="M59.2 67.6618H58.1428V72.9436H59.2V67.6618Z" fill="black"/>
  <path opacity="0.2" d="M48.0999 105.542C46.7811 105.542 45.4751 105.273 44.2566 104.749C43.0381 104.226 41.9309 103.459 40.9984 102.492C40.0658 101.525 39.326 100.377 38.8214 99.113C38.3167 97.8494 38.057 96.4951 38.0571 95.1274V100.558C38.0571 103.32 39.1152 105.969 40.9986 107.923C42.882 109.876 45.4365 110.973 48.1 110.973C50.7635 110.973 53.318 109.876 55.2014 107.923C57.0848 105.969 58.1428 103.32 58.1428 100.558V95.1274C58.1429 96.4951 57.8832 97.8494 57.3786 99.113C56.8739 100.377 56.1342 101.525 55.2016 102.492C54.269 103.459 53.1618 104.226 51.9433 104.749C50.7248 105.273 49.4188 105.542 48.0999 105.542Z" fill="black"/>
  <path opacity="0.2" d="M141.129 110.13C139.81 110.13 138.504 109.878 137.285 109.39C136.067 108.901 134.96 108.185 134.027 107.283C133.094 106.38 132.355 105.308 131.85 104.129C131.345 102.95 131.086 101.686 131.086 100.409V105.478C131.086 108.056 132.144 110.528 134.027 112.351C135.911 114.174 138.465 115.198 141.129 115.198C143.792 115.198 146.347 114.174 148.23 112.351C150.113 110.528 151.171 108.056 151.171 105.478V100.409C151.172 101.686 150.912 102.95 150.407 104.129C149.902 105.309 149.163 106.38 148.23 107.283C147.298 108.185 146.19 108.901 144.972 109.39C143.753 109.878 142.447 110.13 141.129 110.13Z" fill="black"/>
  <path opacity="0.2" d="M214.6 61.4955C214.6 60.6094 214.266 59.7596 213.671 59.1331C213.076 58.5065 212.27 58.1545 211.429 58.1545C210.588 58.1545 209.781 58.5065 209.186 59.1331C208.591 59.7596 208.257 60.6094 208.257 61.4955V66.6054C208.257 66.1662 208.338 65.7312 208.497 65.3253C208.656 64.9193 208.89 64.5504 209.184 64.2396C209.479 63.9288 209.829 63.6822 210.214 63.514C210.599 63.3457 211.012 63.2591 211.429 63.2591C211.846 63.2591 212.258 63.3457 212.643 63.514C213.029 63.6822 213.378 63.9288 213.673 64.2396C213.967 64.5504 214.201 64.9193 214.36 65.3253C214.519 65.7312 214.601 66.1662 214.6 66.6054V61.4955Z" fill="black"/>
  <path opacity="0.2" d="M131.086 82.4509C131.087 84.3913 130.436 86.2733 129.244 87.7826C128.051 89.292 126.388 90.3374 124.532 90.7444C122.677 91.1513 120.741 90.8952 119.047 90.0188C117.354 89.1423 116.006 87.6986 115.229 85.9285V91.1793C116.006 92.9494 117.354 94.3931 119.047 95.2695C120.741 96.146 122.677 96.4021 124.532 95.9951C126.388 95.5882 128.051 94.5428 129.244 93.0334C130.436 91.5241 131.087 89.6421 131.086 87.7017V82.4509Z" fill="black"/>
  <path opacity="0.2" d="M199.071 96.2955C197.919 96.2957 196.779 96.0797 195.715 95.6601C194.651 95.2404 193.684 94.6253 192.87 93.8497C192.055 93.0742 191.41 92.1535 190.969 91.1402C190.528 90.1269 190.302 89.0408 190.302 87.944L189.229 67.6618V72.8318L190.302 93.114C190.302 95.329 191.226 97.4533 192.87 99.0195C194.515 100.586 196.745 101.466 199.071 101.466C201.396 101.466 203.627 100.586 205.271 99.0195C206.916 97.4533 207.84 95.329 207.84 93.114L208.257 72.8318V67.6618L207.84 87.9441C207.84 89.0408 207.613 90.1269 207.172 91.1402C206.732 92.1535 206.086 93.0742 205.271 93.8497C204.457 94.6253 203.49 95.2404 202.426 95.6601C201.363 96.0797 200.222 96.2957 199.071 96.2955Z" fill="black"/>
  <path opacity="0.2" d="M254.858 100.145C253.73 100.145 252.614 99.9186 251.576 99.478C250.539 99.0375 249.603 98.3925 248.823 97.582V100.173C248.823 102.792 247.776 105.304 245.913 107.156C244.049 109.008 241.522 110.049 238.886 110.049C236.251 110.049 233.723 109.008 231.86 107.156C229.996 105.304 228.949 102.792 228.949 100.173V98.0138C227.747 99.0884 226.258 99.7934 224.661 100.044C223.064 100.294 221.428 100.079 219.952 99.4238C218.475 98.769 217.222 97.7027 216.342 96.3543C215.463 95.0058 214.997 93.433 214.999 91.8262L214.6 67.6618V72.8116L214.999 96.976C214.997 98.5828 215.463 100.156 216.342 101.504C217.222 102.853 218.475 103.919 219.952 104.574C221.428 105.228 223.064 105.444 224.661 105.194C226.258 104.943 227.747 104.238 228.949 103.164V105.323C228.949 107.942 229.996 110.454 231.86 112.306C233.723 114.158 236.251 115.198 238.886 115.198C241.522 115.198 244.049 114.158 245.913 112.306C247.776 110.454 248.823 107.942 248.823 105.323V102.732C249.979 103.931 251.469 104.758 253.101 105.108C254.734 105.458 256.435 105.314 257.984 104.695C259.534 104.076 260.862 103.01 261.796 101.634C262.731 100.258 263.23 98.6359 263.229 96.976V91.8262C263.229 92.9187 263.012 94.0005 262.592 95.0099C262.171 96.0192 261.554 96.9363 260.777 97.7088C260 98.4813 259.077 99.0941 258.061 99.5121C257.046 99.9301 255.957 100.145 254.858 100.145Z" fill="black"/>
  <path opacity="0.2" d="M169.495 96.2956C168.204 96.2956 166.93 96.0078 165.77 95.4538C164.609 94.8998 163.593 94.0942 162.797 93.0981C161.449 94.7866 159.488 95.9009 157.323 96.2091C155.157 96.5172 152.954 95.9955 151.171 94.7525V99.9225C152.954 101.166 155.157 101.687 157.323 101.379C159.488 101.071 161.449 99.9566 162.797 98.2681C163.891 99.6352 165.393 100.634 167.093 101.125C168.794 101.616 170.608 101.575 172.284 101.008C173.96 100.44 175.413 99.375 176.441 97.96C177.469 96.545 178.021 94.851 178.02 93.114L178.657 72.8318V67.6618L178.02 87.9441C178.02 89.0408 177.799 90.1269 177.371 91.1402C176.943 92.1535 176.315 93.0742 175.523 93.8497C174.732 94.6253 173.792 95.2405 172.758 95.6601C171.723 96.0798 170.615 96.2957 169.495 96.2956Z" fill="black"/>
  <path opacity="0.2" d="M189.229 56.7705C189.229 55.1764 188.672 53.6476 187.68 52.5204C186.689 51.3931 185.345 50.7599 183.943 50.7599C182.541 50.7599 181.197 51.3931 180.205 52.5204C179.214 53.6476 178.657 55.1764 178.657 56.7705V62.3799C178.657 60.7858 179.214 59.257 180.205 58.1298C181.197 57.0026 182.541 56.3693 183.943 56.3693C185.345 56.3693 186.689 57.0026 187.68 58.1298C188.672 59.257 189.229 60.7858 189.229 62.3799V56.7705Z" fill="black"/>
  <path d="M96.2 58.1545H94.0857V68.7182H96.2V58.1545Z" fill="#3F3D56"/>
  <path d="M134.257 51.8163H132.143V62.38H134.257V51.8163Z" fill="#3F3D56"/>
  <path d="M85.6285 95.1274H83.5143V105.691H85.6285V95.1274Z" fill="#3F3D56"/>
  <path d="M167.704 75.6571L166.053 74.5145L159.883 83.432L161.535 84.5746L167.704 75.6571Z" fill="#3F3D56"/>
  <path d="M61.3765 58.5244L60.1306 60.0992L68.6337 66.8277L69.8796 65.2529L61.3765 58.5244Z" fill="#3F3D56"/>
  <path d="M179.443 17.9605L178.197 19.5353L186.7 26.2638L187.946 24.689L179.443 17.9605Z" fill="#3F3D56"/>
  <path d="M39.2895 69.7699L38.0436 71.3447L46.5467 78.0732L47.7926 76.4984L39.2895 69.7699Z" fill="#3F3D56"/>
  <path d="M103.6 32.8016H101.486V43.3653H103.6V32.8016Z" fill="white"/>
  <path d="M48.6286 87.7328H46.5143V99.3528H48.6286V87.7328Z" fill="white"/>
  <path d="M142.714 16.9561H140.6V27.5198H142.714V16.9561Z" fill="white"/>
  <path d="M153.47 54.6656L151.675 53.7651L146.813 63.4574L148.607 64.3579L153.47 54.6656Z" fill="white"/>
  <path d="M144.234 94.8281L142.439 93.9276L137.576 103.62L139.371 104.52L144.234 94.8281Z" fill="white"/>
  <path d="M116.632 72.7864L115.3 74.2891L123.413 81.4828L124.745 79.9802L116.632 72.7864Z" fill="white"/>
  <path d="M76.8746 25.7965L75.5426 27.2991L83.656 34.4928L84.988 32.9902L76.8746 25.7965Z" fill="white"/>
  <path d="M208.996 43.8694L207.664 45.372L215.778 52.5658L217.11 51.0631L208.996 43.8694Z" fill="white"/>
  <path d="M160.404 8.5265L159.072 10.0291L167.186 17.2229L168.518 15.7202L160.404 8.5265Z" fill="white"/>
  <path d="M118.4 51.8163H116.286V62.38H118.4V51.8163Z" fill="#FF6584"/>
  <path d="M231.895 58.881L230.047 58.0962L225.809 68.0777L227.658 68.8625L231.895 58.881Z" fill="#FF6584"/>
  <path d="M78.4241 69.5273L76.6852 70.5314L82.1066 79.9224L83.8455 78.9184L78.4241 69.5273Z" fill="#FF6584"/>
  <path d="M193.278 61.8965L191.539 62.9005L196.96 72.2915L198.699 71.2875L193.278 61.8965Z" fill="#FF6584"/>
  <path d="M121.797 22.1364L120.058 23.1404L125.479 32.5316L127.218 31.5275L121.797 22.1364Z" fill="#FF6584"/>
  <path d="M206.932 20.1275L205.193 21.1316L210.614 30.5226L212.353 29.5186L206.932 20.1275Z" fill="#FF6584"/>
  <path d="M96.4955 11.2918L94.7566 12.2958L100.178 21.6869L101.917 20.6828L96.4955 11.2918Z" fill="#FF6584"/>
  <path d="M169.143 30.6889H167.029V41.2526H169.143V30.6889Z" fill="#FF6584"/>
  <path d="M52.8572 48.6472H50.7429V59.2108H52.8572V48.6472Z" fill="#FF6584"/>
  <path opacity="0.2" d="M182.992 364.395C175.471 356.879 171.172 346.733 171.007 336.106C170.841 325.478 174.821 315.204 182.104 307.457C181.781 307.76 181.461 308.069 181.146 308.384C177.342 312.182 174.324 316.693 172.264 321.657C170.205 326.621 169.144 331.942 169.143 337.315C169.142 342.689 170.2 348.011 172.257 352.976C174.315 357.941 177.331 362.452 181.134 366.252C184.936 370.052 189.451 373.066 194.419 375.122C199.388 377.177 204.713 378.235 210.091 378.234C215.468 378.233 220.793 377.173 225.761 375.115C230.728 373.057 235.242 370.041 239.043 366.24C239.359 365.924 239.668 365.604 239.971 365.281C232.22 372.559 221.937 376.537 211.302 376.371C200.667 376.206 190.513 371.911 182.992 364.395Z" fill="black"/>
  <path opacity="0.2" d="M226.833 321.509C223.58 318.332 219.435 316.167 214.922 315.289C210.409 314.412 205.73 314.861 201.479 316.579C197.227 318.298 193.593 321.209 191.036 324.944C188.479 328.679 187.114 333.071 187.114 337.564C187.114 342.056 188.479 346.448 191.036 350.183C193.593 353.919 197.227 356.83 201.479 358.548C205.73 360.267 210.409 360.716 214.922 359.838C219.435 358.961 223.58 356.796 226.833 353.618C231.185 349.356 233.629 343.582 233.629 337.564C233.629 331.545 231.185 325.772 226.833 321.509ZM222.646 348.759C219.394 351.931 214.985 353.714 210.389 353.714C205.792 353.714 201.383 351.931 198.132 348.759C197.705 348.342 197.31 347.903 196.931 347.455C194.82 344.915 193.508 341.831 193.156 338.578C192.803 335.324 193.424 332.041 194.943 329.125C196.462 326.209 198.815 323.786 201.716 322.148C204.617 320.511 207.942 319.73 211.288 319.899C214.635 320.069 217.859 321.182 220.571 323.104C223.282 325.026 225.365 327.674 226.567 330.728C227.769 333.782 228.038 337.11 227.342 340.311C226.646 343.511 225.015 346.445 222.646 348.759Z" fill="black"/>
  <path d="M250.819 348.333L245.926 353.199C245.569 353.555 245.114 353.796 244.618 353.892C244.122 353.987 243.608 353.933 243.144 353.736C242.679 353.539 242.284 353.208 242.01 352.785C241.737 352.363 241.596 351.869 241.607 351.367L241.049 351.921C240.486 352.482 239.721 352.797 238.924 352.797C238.127 352.797 237.363 352.482 236.799 351.921C236.235 351.361 235.919 350.6 235.919 349.807C235.919 349.015 236.235 348.254 236.799 347.694L237.264 347.231C236.775 347.206 236.305 347.04 235.91 346.754C235.514 346.467 235.211 346.073 235.036 345.619C234.861 345.165 234.822 344.67 234.925 344.194C235.027 343.719 235.265 343.283 235.612 342.939L240.726 337.682L241.926 336.489C242.118 336.298 242.226 336.039 242.226 335.768C242.226 335.498 242.118 335.239 241.926 335.047C241.734 334.856 241.473 334.749 241.201 334.749C240.929 334.749 240.669 334.856 240.477 335.047L239.277 336.241L234.844 340.48C234.37 340.952 233.726 341.218 233.054 341.218C232.383 341.218 231.739 340.952 231.264 340.48C230.789 340.008 230.522 339.367 230.522 338.7C230.522 338.032 230.789 337.391 231.264 336.919L235.392 332.377L237.615 330.166C237.927 329.852 238.102 329.428 238.102 328.986C238.101 328.545 237.924 328.121 237.61 327.809C237.296 327.496 236.87 327.32 236.426 327.319C235.982 327.319 235.555 327.493 235.24 327.804L233.018 330.014L228.536 334.206C226.526 333.02 224.379 332.081 222.143 331.407C221.772 331.038 221.526 330.564 221.439 330.049L220.249 331.232C219.686 331.792 218.921 332.107 218.124 332.107C217.327 332.107 216.563 331.792 215.999 331.232C215.435 330.671 215.119 329.911 215.119 329.118C215.119 328.325 215.435 327.565 215.999 327.004L219.671 323.352C219.261 323.76 218.724 324.015 218.148 324.076C217.572 324.137 216.992 323.999 216.506 323.686C216.02 323.374 215.656 322.904 215.476 322.357C215.295 321.809 215.309 321.217 215.515 320.678L212.577 323.6C212.013 324.161 211.249 324.476 210.452 324.476C209.655 324.476 208.89 324.161 208.327 323.6C207.763 323.04 207.446 322.279 207.446 321.486C207.446 320.694 207.763 319.933 208.327 319.373L215.323 312.414L215.311 312.402L208.315 319.361C207.751 319.921 206.987 320.236 206.19 320.236C205.392 320.236 204.628 319.921 204.064 319.361C203.501 318.8 203.184 318.04 203.184 317.247C203.184 316.454 203.501 315.694 204.064 315.133L206.977 312.236C206.436 312.431 205.844 312.437 205.299 312.252C204.754 312.068 204.288 311.704 203.979 311.22C203.67 310.737 203.536 310.163 203.599 309.594C203.662 309.025 203.919 308.494 204.326 308.089L207.651 304.782L207.468 304.601L201.495 310.542C200.931 311.103 200.167 311.418 199.37 311.418C198.573 311.418 197.808 311.103 197.245 310.542C196.681 309.982 196.364 309.221 196.364 308.428C196.364 307.635 196.681 306.875 197.245 306.314L199.893 303.68C199.418 304.152 198.775 304.418 198.103 304.418C197.432 304.418 196.788 304.152 196.313 303.68C195.838 303.208 195.571 302.567 195.571 301.899C195.571 301.231 195.838 300.591 196.313 300.119L200.254 296.199C207.434 294.279 215 294.309 222.165 296.285C229.33 298.261 235.832 302.11 240.994 307.432C246.156 312.755 249.79 319.356 251.518 326.549C253.246 333.742 253.004 341.264 250.819 348.333Z" fill="#CCCCCC"/>
  <path opacity="0.2" d="M204.993 319.17C204.709 318.886 204.484 318.55 204.331 318.179C204.177 317.809 204.098 317.412 204.098 317.011C204.098 316.61 204.177 316.213 204.331 315.842C204.484 315.472 204.709 315.135 204.993 314.852L203.866 315.978C203.293 316.55 202.971 317.327 202.971 318.137C202.971 318.946 203.293 319.723 203.866 320.296C204.439 320.868 205.217 321.19 206.027 321.19C206.837 321.19 207.615 320.868 208.188 320.296L209.314 319.17C209.031 319.453 208.694 319.678 208.323 319.832C207.952 319.985 207.555 320.064 207.154 320.064C206.752 320.064 206.355 319.985 205.984 319.832C205.614 319.678 205.277 319.453 204.993 319.17Z" fill="black"/>
  <path opacity="0.2" d="M209.222 323.395C208.938 323.112 208.713 322.775 208.559 322.405C208.406 322.034 208.327 321.637 208.327 321.236C208.327 320.835 208.406 320.438 208.559 320.068C208.713 319.698 208.938 319.361 209.222 319.077L208.095 320.203C207.811 320.487 207.586 320.823 207.433 321.194C207.279 321.564 207.2 321.961 207.2 322.362C207.2 322.763 207.279 323.16 207.433 323.531C207.586 323.901 207.811 324.238 208.095 324.521C208.379 324.805 208.715 325.03 209.086 325.183C209.457 325.337 209.854 325.416 210.256 325.416C210.657 325.416 211.054 325.337 211.425 325.183C211.796 325.03 212.132 324.805 212.416 324.521L213.543 323.395C213.259 323.679 212.922 323.904 212.552 324.057C212.181 324.211 211.783 324.29 211.382 324.29C210.981 324.29 210.584 324.211 210.213 324.057C209.842 323.904 209.505 323.679 209.222 323.395Z" fill="black"/>
  <path opacity="0.2" d="M208.257 311.513C207.749 311.704 207.192 311.71 206.68 311.53C206.168 311.349 205.731 310.993 205.441 310.52C205.151 310.047 205.025 309.486 205.084 308.929C205.143 308.372 205.384 307.853 205.767 307.457L204.726 308.536C204.343 308.931 204.102 309.451 204.043 310.008C203.984 310.565 204.11 311.126 204.4 311.598C204.69 312.071 205.127 312.427 205.639 312.608C206.151 312.788 206.708 312.783 207.216 312.591L208.257 311.513Z" fill="black"/>
  <path opacity="0.2" d="M216.504 311.866L215.403 312.966L215.415 312.978L216.515 311.878L216.504 311.866Z" fill="black"/>
  <path opacity="0.2" d="M200.857 303.545C200.628 303.774 200.357 303.955 200.058 304.079C199.759 304.203 199.438 304.267 199.115 304.267C198.791 304.267 198.47 304.203 198.171 304.079C197.872 303.955 197.601 303.774 197.372 303.545C197.143 303.317 196.962 303.045 196.838 302.746C196.714 302.448 196.65 302.127 196.65 301.804C196.65 301.481 196.714 301.16 196.838 300.862C196.962 300.563 197.143 300.291 197.372 300.063L196.293 301.141C195.831 301.603 195.571 302.229 195.571 302.882C195.571 303.535 195.831 304.161 196.293 304.623C196.755 305.085 197.382 305.345 198.036 305.345C198.689 305.345 199.316 305.085 199.778 304.623L200.857 303.545Z" fill="black"/>
  <path opacity="0.2" d="M208.716 304.077L207.615 305.178L207.796 305.359L208.897 304.259L208.716 304.077Z" fill="black"/>
  <path opacity="0.2" d="M198.65 309.663C198.366 309.379 198.141 309.043 197.988 308.672C197.834 308.302 197.755 307.905 197.755 307.504C197.755 307.103 197.834 306.706 197.988 306.335C198.141 305.965 198.366 305.628 198.65 305.345L197.523 306.47C197.24 306.754 197.015 307.091 196.861 307.461C196.708 307.831 196.629 308.228 196.629 308.629C196.629 309.03 196.708 309.427 196.861 309.798C197.015 310.168 197.24 310.505 197.523 310.788C197.807 311.072 198.144 311.297 198.515 311.45C198.885 311.604 199.283 311.683 199.684 311.683C200.085 311.683 200.483 311.604 200.853 311.45C201.224 311.297 201.561 311.072 201.845 310.788L202.971 309.663C202.688 309.946 202.351 310.171 201.98 310.325C201.609 310.478 201.212 310.557 200.811 310.557C200.409 310.557 200.012 310.478 199.641 310.325C199.271 310.171 198.934 309.946 198.65 309.663Z" fill="black"/>
  <path opacity="0.2" d="M217.342 330.79C217.105 330.506 216.918 330.17 216.79 329.799C216.662 329.429 216.596 329.032 216.596 328.631C216.596 328.23 216.662 327.833 216.79 327.462C216.918 327.092 217.105 326.755 217.342 326.472L216.403 327.598C216.167 327.881 215.979 328.218 215.851 328.588C215.723 328.959 215.657 329.356 215.657 329.757C215.657 330.158 215.723 330.555 215.851 330.925C215.979 331.296 216.167 331.632 216.403 331.916C216.639 332.199 216.92 332.424 217.229 332.578C217.538 332.731 217.869 332.81 218.204 332.81C218.538 332.81 218.869 332.731 219.178 332.578C219.487 332.424 219.768 332.199 220.004 331.916L220.943 330.79C220.706 331.074 220.426 331.299 220.117 331.452C219.808 331.605 219.477 331.684 219.142 331.684C218.808 331.684 218.477 331.605 218.168 331.452C217.859 331.299 217.578 331.074 217.342 330.79Z" fill="black"/>
  <path opacity="0.2" d="M242.81 335.807C243.023 335.594 243.143 335.304 243.143 335.003C243.143 334.702 243.023 334.413 242.81 334.199C242.596 333.986 242.307 333.867 242.006 333.867C241.704 333.867 241.415 333.986 241.201 334.199L239.971 335.428C240.185 335.215 240.474 335.096 240.776 335.096C241.077 335.096 241.367 335.215 241.58 335.428C241.793 335.642 241.913 335.931 241.913 336.232C241.913 336.533 241.793 336.823 241.58 337.036L242.81 335.807Z" fill="black"/>
  <path opacity="0.2" d="M220.943 322.637C220.544 323.018 220.021 323.257 219.46 323.314C218.9 323.371 218.335 323.242 217.862 322.95C217.388 322.657 217.034 322.217 216.859 321.705C216.683 321.192 216.697 320.638 216.897 320.134L215.818 321.166C215.618 321.67 215.604 322.224 215.78 322.737C215.955 323.249 216.31 323.689 216.783 323.981C217.256 324.274 217.821 324.403 218.381 324.346C218.942 324.289 219.465 324.05 219.864 323.668L220.943 322.637Z" fill="black"/>
  <path opacity="0.2" d="M232.241 339.502C232.015 339.278 231.835 339.013 231.712 338.721C231.589 338.429 231.526 338.116 231.526 337.799C231.526 337.483 231.589 337.17 231.712 336.878C231.835 336.586 232.015 336.32 232.241 336.097L236.224 331.754L235.155 332.808L231.172 337.151C230.946 337.374 230.766 337.64 230.643 337.932C230.52 338.224 230.457 338.537 230.457 338.853C230.457 339.17 230.52 339.483 230.643 339.775C230.766 340.067 230.946 340.332 231.172 340.556C231.399 340.779 231.668 340.957 231.965 341.078C232.261 341.199 232.579 341.261 232.899 341.261C233.22 341.261 233.538 341.199 233.834 341.078C234.13 340.957 234.399 340.779 234.626 340.556L238.902 336.502L239.971 335.448L235.695 339.502C235.469 339.726 235.199 339.903 234.903 340.024C234.607 340.145 234.289 340.207 233.968 340.207C233.648 340.207 233.33 340.145 233.034 340.024C232.737 339.903 232.468 339.726 232.241 339.502Z" fill="black"/>
  <path opacity="0.2" d="M243.638 352.145C243.386 351.912 243.188 351.633 243.056 351.326C242.923 351.02 242.859 350.691 242.867 350.361L242.286 350.901C241.995 351.171 241.65 351.386 241.269 351.532C240.889 351.678 240.482 351.754 240.07 351.754C239.658 351.754 239.251 351.678 238.871 351.532C238.491 351.386 238.145 351.171 237.854 350.901C237.563 350.631 237.332 350.31 237.175 349.957C237.017 349.603 236.936 349.225 236.936 348.843C236.936 348.46 237.017 348.082 237.175 347.729C237.332 347.375 237.563 347.055 237.854 346.784L238.338 346.334C237.829 346.309 237.339 346.148 236.927 345.869C236.514 345.59 236.198 345.207 236.016 344.764C235.833 344.322 235.793 343.84 235.899 343.377C236.006 342.914 236.255 342.489 236.616 342.155L241.949 337.036L240.794 338.109L235.46 343.228C235.099 343.563 234.85 343.987 234.744 344.45C234.637 344.913 234.678 345.395 234.86 345.838C235.042 346.28 235.359 346.664 235.771 346.942C236.183 347.221 236.674 347.383 237.183 347.408L236.698 347.858C236.111 348.403 235.781 349.144 235.781 349.916C235.781 350.688 236.111 351.428 236.698 351.974C237.286 352.52 238.083 352.827 238.914 352.827C239.746 352.827 240.543 352.52 241.13 351.974L241.712 351.434C241.7 351.924 241.847 352.405 242.133 352.816C242.418 353.227 242.83 353.549 243.314 353.741C243.799 353.933 244.334 353.986 244.851 353.893C245.368 353.8 245.844 353.565 246.216 353.219L247.371 352.145C247.126 352.373 246.835 352.554 246.515 352.677C246.195 352.8 245.851 352.864 245.505 352.864C245.158 352.864 244.815 352.8 244.494 352.677C244.174 352.554 243.883 352.373 243.638 352.145Z" fill="black"/>
  <path opacity="0.2" d="M226.239 334.046C226.282 333.648 226.245 333.244 226.13 332.865C226.016 332.486 225.827 332.142 225.578 331.859C225.33 331.576 225.028 331.36 224.696 331.23C224.364 331.099 224.01 331.057 223.661 331.105C223.321 330.717 223.095 330.218 223.016 329.678L222 330.836C222.86 331.111 223.627 331.675 224.202 332.454C224.777 333.233 225.133 334.191 225.224 335.204C225.439 335.45 225.695 335.645 225.977 335.778C226.258 335.911 226.56 335.979 226.865 335.979C227.169 335.979 227.471 335.911 227.753 335.778C228.034 335.645 228.29 335.45 228.505 335.204L232.613 330.799L233.629 329.641L229.521 334.046C229.306 334.291 229.05 334.486 228.768 334.619C228.487 334.752 228.185 334.821 227.88 334.821C227.576 334.821 227.274 334.752 226.992 334.619C226.711 334.486 226.455 334.291 226.239 334.046Z" fill="black"/>
  <path opacity="0.2" d="M238.386 329.521C238.553 329.356 238.686 329.159 238.776 328.942C238.867 328.726 238.914 328.493 238.914 328.259C238.915 328.024 238.869 327.791 238.779 327.574C238.689 327.357 238.558 327.16 238.392 326.994C238.225 326.828 238.028 326.697 237.811 326.607C237.594 326.517 237.361 326.471 237.126 326.472C236.891 326.472 236.659 326.519 236.442 326.61C236.225 326.7 236.029 326.833 235.863 326.999L234.686 328.176C234.851 328.009 235.048 327.877 235.265 327.786C235.481 327.696 235.714 327.649 235.949 327.649C236.184 327.648 236.416 327.694 236.634 327.784C236.851 327.873 237.048 328.005 237.214 328.171C237.38 328.337 237.512 328.534 237.602 328.751C237.691 328.968 237.737 329.2 237.737 329.435C237.736 329.67 237.689 329.902 237.599 330.119C237.508 330.336 237.376 330.532 237.209 330.697L238.386 329.521Z" fill="black"/>
  <path d="M218.716 310.1L218.293 309.677L216.007 311.963L216.431 312.386L218.716 310.1Z" fill="#3F3D56"/>
  <path d="M227.943 316.873L227.52 316.449L225.234 318.735L225.658 319.158L227.943 316.873Z" fill="#3F3D56"/>
  <path d="M237.077 311.89L236.654 311.467L234.369 313.752L234.792 314.176L237.077 311.89Z" fill="#3F3D56"/>
  <path d="M208.812 315.687L208.389 315.264L206.104 317.55L206.527 317.973L208.812 315.687Z" fill="#3F3D56"/>
  <path d="M230.095 328.984L229.987 328.395L226.807 328.974L226.915 329.563L230.095 328.984Z" fill="#3F3D56"/>
  <path d="M243.381 323.17L243.273 322.581L240.093 323.161L240.201 323.749L243.381 323.17Z" fill="#3F3D56"/>
  <path d="M211.293 302.957L210.698 303.026L211.072 306.237L211.667 306.168L211.293 302.957Z" fill="#3F3D56"/>
  <path d="M204.267 300.671L203.672 300.741L204.046 303.951L204.641 303.882L204.267 300.671Z" fill="#3F3D56"/>
  <path d="M225.658 306.29L225.234 305.867L222.949 308.153L223.372 308.576L225.658 306.29Z" fill="white"/>
  <path d="M243.096 317.917L242.672 317.494L240.387 319.779L240.81 320.203L243.096 317.917Z" fill="white"/>
  <path d="M249.739 334.526L249.315 334.103L247.03 336.389L247.453 336.812L249.739 334.526Z" fill="white"/>
  <path d="M202.294 306.46L201.871 306.036L199.586 308.322L200.009 308.746L202.294 306.46Z" fill="white"/>
  <path d="M231.518 321.558L231.33 320.99L228.262 322.008L228.45 322.576L231.518 321.558Z" fill="white"/>
  <path d="M221.106 328.076L220.918 327.508L217.85 328.526L218.039 329.094L221.106 328.076Z" fill="white"/>
  <path d="M219.934 317.612L219.336 317.648L219.53 320.874L220.128 320.838L219.934 317.612Z" fill="white"/>
  <path d="M221.458 299.326L220.86 299.361L221.054 302.588L221.652 302.552L221.458 299.326Z" fill="white"/>
  <path d="M224.726 313.656L224.303 313.232L222.018 315.518L222.441 315.941L224.726 313.656Z" fill="#FF6584"/>
  <path d="M244.656 341.891L244.232 341.468L241.947 343.754L242.37 344.177L244.656 341.891Z" fill="#FF6584"/>
  <path d="M247.977 327.773L247.554 327.35L245.268 329.636L245.692 330.059L247.977 327.773Z" fill="#FF6584"/>
  <path d="M212.567 308.87L211.989 308.715L211.152 311.838L211.73 311.993L212.567 308.87Z" fill="#FF6584"/>
  <path d="M231.698 308.024L231.12 307.869L230.283 310.991L230.861 311.146L231.698 308.024Z" fill="#FF6584"/>
  <path d="M228.65 300.405L228.072 300.25L227.236 303.372L227.814 303.527L228.65 300.405Z" fill="#FF6584"/>
  <path d="M211.69 299.095L211.267 298.671L208.982 300.957L209.405 301.38L211.69 299.095Z" fill="#FF6584"/>
  <path d="M500.618 174.074C500.618 172.315 499.894 170.628 498.605 169.385C497.317 168.141 495.569 167.442 493.746 167.442C491.924 167.442 490.176 168.141 488.887 169.385C487.599 170.628 486.875 172.315 486.875 174.074V471.383C486.875 473.141 487.599 474.828 488.887 476.072C490.176 477.316 491.924 478.014 493.746 478.014C495.569 478.014 497.317 477.316 498.605 476.072C499.894 474.828 500.618 473.141 500.618 471.383V176" fill="#3F3D56"/>
  <path d="M585.236 189.131C573.567 167.016 554.1 150.077 530.651 141.635C507.202 133.193 481.461 133.855 458.473 143.493C435.485 153.131 416.907 171.049 406.38 193.736C395.854 216.422 394.137 242.241 401.568 266.133H413.963C416.454 266.133 418.496 268.92 418.496 272.333H420.771C423.27 272.333 425.313 275.119 425.313 278.532C425.313 281.936 423.27 284.731 420.771 284.731H418.496C418.491 285.25 418.439 285.766 418.339 286.275H428.717C431.216 286.275 433.258 289.07 433.258 292.474C433.258 295.887 431.216 298.673 428.717 298.673H418.804C434.322 318.22 456.539 331.244 481.108 335.198C505.678 339.151 530.831 333.75 551.646 320.049C572.462 306.349 587.441 285.336 593.653 261.123C599.866 236.909 596.864 211.237 585.236 189.131H585.236ZM517.271 272.349C511.061 275.874 504.046 277.72 496.914 277.706C495.486 277.705 494.059 277.633 492.638 277.489C482.818 276.458 473.688 271.933 466.897 264.73C460.106 257.528 456.101 248.123 455.605 238.213C455.108 228.304 458.153 218.542 464.191 210.691C470.228 202.84 478.859 197.416 488.526 195.399C498.193 193.382 508.26 194.905 516.908 199.692C525.556 204.479 532.216 212.216 535.686 221.505C539.156 230.794 539.207 241.024 535.831 250.348C532.454 259.672 525.871 267.475 517.271 272.349Z" fill="#6153CC"/>
  <path opacity="0.2" d="M432.691 289.981C432.87 289.287 432.96 288.571 432.961 287.853C432.961 284.375 430.934 281.53 428.456 281.53H424.243C423.928 282.281 423.419 282.928 422.771 283.4C422.124 283.872 421.364 284.15 420.574 284.205H418.322C418.317 284.736 418.263 285.266 418.161 285.786H428.456C430.402 285.786 432.065 287.544 432.691 289.981Z" fill="black"/>
  <path opacity="0.2" d="M420.98 272.167C422.958 272.167 424.649 273.877 425.286 276.248C425.468 275.573 425.56 274.877 425.561 274.178C425.561 270.795 423.499 268.027 420.98 268.027H418.69C418.69 264.644 416.628 261.876 414.109 261.876H401.608C398.757 252.843 397.224 243.454 397.055 233.993C397.039 234.73 397.018 235.465 397.018 236.206C397.009 246.315 398.557 256.367 401.608 266.016H414.109C416.628 266.016 418.69 268.784 418.69 272.167H420.98Z" fill="black"/>
  <path opacity="0.2" d="M497.152 332.281C483.087 332.297 469.179 329.3 456.347 323.488C443.515 317.677 432.051 309.184 422.712 298.57H419.218C432.1 314.881 449.687 326.747 469.546 332.525C489.405 338.303 510.552 337.707 530.06 330.82C549.568 323.933 566.473 311.096 578.433 294.085C590.393 277.074 596.818 256.732 596.818 235.873C596.818 235.244 596.8 234.62 596.789 233.993C596.194 260.265 585.435 285.259 566.814 303.628C548.194 321.997 523.19 332.281 497.152 332.281Z" fill="black"/>
  <path opacity="0.2" d="M496.909 186.457C486.978 186.459 477.271 189.372 469.014 194.828C460.757 200.285 454.323 208.04 450.523 217.112C446.724 226.184 445.731 236.167 447.669 245.797C449.608 255.428 454.391 264.274 461.414 271.216C468.437 278.159 477.384 282.887 487.124 284.802C496.865 286.717 506.961 285.733 516.136 281.975C525.311 278.217 533.153 271.854 538.67 263.689C544.187 255.524 547.132 245.926 547.132 236.106C547.116 222.942 541.82 210.321 532.404 201.013C522.989 191.705 510.224 186.47 496.909 186.457ZM517.475 272.139C511.2 275.642 504.115 277.476 496.909 277.463C495.467 277.462 494.025 277.39 492.59 277.247C482.67 276.222 473.447 271.724 466.587 264.566C459.726 257.407 455.68 248.06 455.179 238.21C454.677 228.361 457.754 218.658 463.852 210.855C469.951 203.051 478.67 197.661 488.436 195.656C498.202 193.651 508.371 195.165 517.107 199.923C525.844 204.681 532.572 212.37 536.077 221.603C539.583 230.836 539.635 241.004 536.223 250.271C532.812 259.538 526.162 267.294 517.475 272.139Z" fill="black"/>
  <path d="M585.189 188.084V204.772C585.19 205.991 584.829 207.181 584.151 208.191C583.474 209.201 582.512 209.983 581.39 210.438C580.267 210.893 579.035 210.998 577.852 210.741C576.669 210.485 575.589 209.877 574.752 208.997V210.899C574.752 212.821 573.994 214.665 572.644 216.025C571.293 217.384 569.462 218.148 567.553 218.148C565.643 218.148 563.812 217.384 562.462 216.025C561.112 214.665 560.353 212.821 560.353 210.899V209.314C559.482 210.103 558.403 210.62 557.246 210.804C556.089 210.988 554.904 210.83 553.834 210.349C552.764 209.868 551.856 209.086 551.219 208.096C550.582 207.106 550.244 205.952 550.246 204.772L549.957 187.035V182.943C549.957 182.288 549.698 181.659 549.238 181.196C548.778 180.732 548.153 180.472 547.502 180.472C546.851 180.472 546.227 180.732 545.766 181.196C545.306 181.659 545.047 182.288 545.047 182.943V187.035L544.759 201.864C544.759 203.484 544.12 205.037 542.982 206.182C541.845 207.327 540.303 207.971 538.694 207.971C537.086 207.971 535.543 207.327 534.406 206.182C533.268 205.037 532.63 203.484 532.63 201.864L531.887 187.035V179.454C531.887 178.38 531.463 177.35 530.709 176.59C529.955 175.83 528.931 175.404 527.865 175.404C526.798 175.404 525.774 175.83 525.02 176.59C524.265 177.35 523.842 178.38 523.842 179.454V187.035L523.388 201.864C523.389 203.134 522.997 204.373 522.265 205.408C521.534 206.442 520.5 207.221 519.308 207.636C518.116 208.051 516.825 208.081 515.615 207.722C514.405 207.363 513.337 206.632 512.559 205.633C511.6 206.867 510.205 207.682 508.664 207.907C507.124 208.133 505.556 207.751 504.288 206.842V210.899C504.288 212.821 503.529 214.665 502.179 216.025C500.829 217.384 498.998 218.148 497.088 218.148C495.179 218.148 493.348 217.384 491.997 216.025C490.647 214.665 489.889 212.821 489.889 210.899V198.375C489.889 199.772 489.414 201.127 488.542 202.213C487.67 203.3 486.455 204.053 485.098 204.346C483.741 204.639 482.326 204.454 481.088 203.823C479.851 203.192 478.865 202.153 478.297 200.879V210.899C478.295 212.82 477.535 214.662 476.185 216.02C474.835 217.377 473.005 218.14 471.097 218.14C469.189 218.14 467.359 217.377 466.009 216.02C464.659 214.662 463.9 212.82 463.898 210.899V187.035H463.857V210.899C463.857 212.821 463.099 214.665 461.749 216.025C460.398 217.384 458.567 218.148 456.658 218.148C454.748 218.148 452.917 217.384 451.567 216.025C450.217 214.665 449.458 212.821 449.458 210.899V200.963C448.874 202.221 447.881 203.241 446.644 203.854C445.406 204.467 443.998 204.637 442.651 204.336C441.305 204.034 440.101 203.279 439.238 202.195C438.376 201.112 437.906 199.764 437.907 198.375V187.035H437.289V207.41C437.289 209.332 436.53 211.176 435.18 212.535C433.83 213.895 431.999 214.659 430.089 214.659C428.18 214.659 426.349 213.895 424.998 212.535C423.648 211.176 422.89 209.332 422.89 207.41V198.375C422.89 199.995 422.251 201.548 421.113 202.693C419.976 203.838 418.434 204.481 416.825 204.481C415.217 204.481 413.674 203.838 412.537 202.693C411.4 201.548 410.761 199.995 410.761 198.375V184.932C419.655 169.396 432.522 156.543 448.022 147.71C463.523 138.878 481.091 134.389 498.898 134.711C516.706 135.033 534.102 140.153 549.278 149.54C564.454 158.927 576.854 172.236 585.189 188.084Z" fill="#CCCCCC"/>
  <path opacity="0.2" d="M456.218 214.165C455.246 214.165 454.284 213.968 453.386 213.584C452.488 213.2 451.672 212.638 450.985 211.928C450.298 211.219 449.753 210.377 449.381 209.451C449.009 208.524 448.818 207.531 448.818 206.528V210.51C448.818 212.536 449.597 214.479 450.985 215.911C452.373 217.343 454.255 218.148 456.218 218.148C458.18 218.148 460.063 217.343 461.45 215.911C462.838 214.479 463.618 212.536 463.618 210.51V206.528C463.618 207.531 463.427 208.524 463.055 209.451C462.683 210.377 462.138 211.219 461.451 211.928C460.763 212.638 459.948 213.2 459.05 213.584C458.152 213.968 457.19 214.165 456.218 214.165Z" fill="black"/>
  <path opacity="0.2" d="M471.018 214.165C470.046 214.165 469.084 213.968 468.186 213.584C467.288 213.2 466.472 212.638 465.785 211.928C465.098 211.219 464.553 210.377 464.181 209.451C463.809 208.524 463.618 207.531 463.618 206.528V210.51C463.618 212.536 464.397 214.479 465.785 215.911C467.173 217.343 469.055 218.148 471.018 218.148C472.98 218.148 474.863 217.343 476.25 215.911C477.638 214.479 478.418 212.536 478.418 210.51V206.528C478.418 207.531 478.226 208.524 477.855 209.451C477.483 210.377 476.938 211.219 476.25 211.928C475.563 212.638 474.747 213.2 473.85 213.584C472.952 213.968 471.99 214.165 471.018 214.165Z" fill="black"/>
  <path opacity="0.2" d="M448.818 197.396C448.23 198.606 447.23 199.587 445.984 200.177C444.738 200.767 443.321 200.93 441.965 200.64C440.61 200.35 439.398 199.624 438.53 198.581C437.661 197.539 437.188 196.243 437.189 194.908V198.543C437.188 199.879 437.661 201.174 438.53 202.217C439.398 203.259 440.61 203.985 441.965 204.275C443.321 204.565 444.738 204.402 445.984 203.812C447.23 203.222 448.23 202.242 448.818 201.032V197.396Z" fill="black"/>
  <path opacity="0.2" d="M422.389 194.908C422.389 196.465 421.777 197.959 420.686 199.06C419.596 200.161 418.117 200.78 416.575 200.78C415.033 200.78 413.554 200.161 412.464 199.06C411.373 197.959 410.761 196.465 410.761 194.908V198.543C410.761 200.1 411.373 201.594 412.464 202.695C413.554 203.796 415.033 204.415 416.575 204.415C418.117 204.415 419.596 203.796 420.686 202.695C421.777 201.594 422.389 200.1 422.389 198.543V194.908Z" fill="black"/>
  <path opacity="0.2" d="M429.789 210.996C428.817 210.996 427.855 210.799 426.957 210.415C426.059 210.031 425.244 209.469 424.556 208.759C423.869 208.05 423.324 207.208 422.952 206.282C422.58 205.355 422.389 204.362 422.389 203.359V207.341C422.389 209.367 423.169 211.31 424.557 212.742C425.944 214.174 427.827 214.979 429.789 214.979C431.752 214.979 433.634 214.174 435.022 212.742C436.41 211.31 437.189 209.367 437.189 207.341V203.359C437.189 204.362 436.998 205.355 436.626 206.282C436.254 207.208 435.709 208.05 435.022 208.759C434.335 209.469 433.519 210.031 432.621 210.415C431.723 210.799 430.761 210.996 429.789 210.996Z" fill="black"/>
  <path opacity="0.2" d="M496.918 214.165C496.015 214.165 495.122 213.968 494.288 213.584C493.454 213.2 492.697 212.638 492.059 211.928C491.421 211.219 490.915 210.377 490.569 209.451C490.224 208.524 490.046 207.531 490.046 206.528V210.51C490.046 212.536 490.77 214.479 492.059 215.911C493.348 217.343 495.095 218.148 496.918 218.148C498.74 218.148 500.488 217.343 501.777 215.911C503.065 214.479 503.789 212.536 503.789 210.51V206.528C503.789 207.531 503.612 208.524 503.266 209.451C502.921 210.377 502.415 211.219 501.777 211.928C501.139 212.638 500.381 213.2 499.547 213.584C498.714 213.968 497.82 214.165 496.918 214.165Z" fill="black"/>
  <path opacity="0.2" d="M550.304 179.455C550.304 178.791 550.025 178.153 549.529 177.684C549.034 177.214 548.362 176.95 547.661 176.95C546.96 176.95 546.288 177.214 545.792 177.684C545.296 178.153 545.018 178.791 545.018 179.455V183.288C545.018 182.623 545.296 181.986 545.792 181.516C546.288 181.046 546.96 180.782 547.661 180.782C548.362 180.782 549.034 181.046 549.529 181.516C550.025 181.986 550.304 182.623 550.304 183.288V179.455Z" fill="black"/>
  <path opacity="0.2" d="M490.046 194.908C490.047 196.251 489.57 197.554 488.695 198.599C487.821 199.644 486.601 200.368 485.24 200.649C483.88 200.931 482.46 200.754 481.218 200.147C479.977 199.54 478.988 198.541 478.418 197.315V200.95C478.988 202.176 479.977 203.175 481.218 203.782C482.46 204.389 483.88 204.566 485.24 204.285C486.601 204.003 487.821 203.279 488.695 202.234C489.57 201.189 490.047 199.886 490.046 198.543V194.908Z" fill="black"/>
  <path opacity="0.2" d="M538.383 203.868C537.551 203.868 536.728 203.713 535.959 203.412C535.191 203.11 534.493 202.668 533.905 202.11C533.317 201.553 532.85 200.891 532.532 200.163C532.214 199.434 532.05 198.654 532.05 197.866L531.275 183.288V187.004L532.05 201.582C532.05 203.174 532.717 204.7 533.905 205.826C535.093 206.952 536.703 207.584 538.383 207.584C540.063 207.584 541.674 206.952 542.861 205.826C544.049 204.7 544.716 203.174 544.716 201.582L545.018 187.004V183.288L544.716 197.866C544.716 198.654 544.553 199.434 544.234 200.163C543.916 200.891 543.45 201.553 542.861 202.11C542.273 202.668 541.575 203.11 540.807 203.412C540.038 203.713 539.215 203.868 538.383 203.868Z" fill="black"/>
  <path opacity="0.2" d="M579.184 207.109C578.375 207.109 577.574 206.943 576.83 206.62C576.086 206.297 575.414 205.824 574.855 205.229V207.129C574.855 209.05 574.104 210.892 572.767 212.25C571.43 213.608 569.617 214.371 567.726 214.371C565.836 214.371 564.022 213.608 562.686 212.25C561.349 210.892 560.598 209.05 560.598 207.129V205.546C559.735 206.334 558.667 206.851 557.521 207.035C556.375 207.218 555.202 207.06 554.143 206.58C553.083 206.1 552.184 205.318 551.553 204.329C550.923 203.34 550.588 202.187 550.589 201.008L550.303 183.288V187.064L550.589 204.785C550.588 205.963 550.923 207.117 551.553 208.105C552.184 209.094 553.083 209.876 554.143 210.356C555.202 210.837 556.375 210.995 557.521 210.811C558.667 210.628 559.735 210.11 560.598 209.322V210.906C560.598 212.826 561.349 214.668 562.686 216.027C564.022 217.385 565.836 218.148 567.726 218.148C569.617 218.148 571.43 217.385 572.767 216.027C574.104 214.668 574.855 212.826 574.855 210.906V209.006C575.684 209.885 576.753 210.492 577.924 210.748C579.095 211.005 580.315 210.899 581.427 210.445C582.539 209.991 583.491 209.209 584.162 208.201C584.832 207.192 585.19 206.002 585.189 204.785V201.008C585.189 201.809 585.034 202.603 584.732 203.343C584.431 204.083 583.988 204.756 583.431 205.322C582.873 205.889 582.211 206.338 581.482 206.645C580.754 206.951 579.973 207.109 579.184 207.109Z" fill="black"/>
  <path opacity="0.2" d="M517.18 203.868C516.236 203.868 515.305 203.661 514.457 203.263C513.609 202.865 512.866 202.286 512.285 201.57C511.3 202.784 509.867 203.585 508.285 203.806C506.702 204.028 505.092 203.653 503.789 202.759V206.475C505.092 207.368 506.702 207.743 508.285 207.522C509.867 207.3 511.3 206.5 512.285 205.286C513.084 206.269 514.182 206.986 515.424 207.339C516.667 207.692 517.993 207.663 519.218 207.255C520.442 206.847 521.504 206.082 522.255 205.065C523.007 204.048 523.41 202.83 523.409 201.582L523.875 187.004V183.288L523.409 197.866C523.409 198.654 523.248 199.434 522.935 200.163C522.622 200.891 522.163 201.553 521.585 202.11C521.006 202.668 520.32 203.11 519.564 203.412C518.808 203.713 517.998 203.868 517.18 203.868Z" fill="black"/>
  <path opacity="0.2" d="M531.275 175.493C531.275 174.478 530.885 173.505 530.191 172.788C529.497 172.071 528.556 171.668 527.575 171.668C526.594 171.668 525.653 172.071 524.959 172.788C524.265 173.505 523.875 174.478 523.875 175.493V179.062C523.875 178.048 524.265 177.075 524.959 176.358C525.653 175.64 526.594 175.237 527.575 175.237C528.556 175.237 529.497 175.64 530.191 176.358C530.885 177.075 531.275 178.048 531.275 179.062V175.493Z" fill="black"/>
  <path d="M464.675 175.893H462.561V184.344H464.675V175.893Z" fill="#3F3D56"/>
  <path d="M492.161 172.724H490.046V180.119H492.161V172.724Z" fill="#3F3D56"/>
  <path d="M568.275 176.95H567.218V184.344H568.275V176.95Z" fill="#3F3D56"/>
  <path d="M457.275 203.359H455.161V210.753H457.275V203.359Z" fill="#3F3D56"/>
  <path d="M516.084 189.249L514.893 188.425L510.444 194.856L511.635 195.68L516.084 189.249Z" fill="#3F3D56"/>
  <path d="M439.402 176.894L438.504 178.03L444.636 182.882L445.535 181.746L439.402 176.894Z" fill="#3F3D56"/>
  <path d="M574.595 149.051L573.697 150.187L579.829 155.039L580.727 153.903L574.595 149.051Z" fill="#3F3D56"/>
  <path d="M423.472 185.007L422.574 186.142L428.706 190.995L429.604 189.859L423.472 185.007Z" fill="#3F3D56"/>
  <path d="M469.961 157.935H467.846V165.33H469.961V157.935Z" fill="white"/>
  <path d="M429.789 198.077H428.732V206.528H429.789V198.077Z" fill="white"/>
  <path d="M547.493 147.726H546.436V156.177H547.493V147.726Z" fill="white"/>
  <path d="M567.218 195.964H566.161V203.359H567.218V195.964Z" fill="white"/>
  <path d="M505.818 174.111L504.523 173.462L501.017 180.451L502.311 181.101L505.818 174.111Z" fill="white"/>
  <path d="M499.157 203.075L497.862 202.426L494.356 209.415L495.65 210.065L499.157 203.075Z" fill="white"/>
  <path d="M579.09 190.041L577.796 189.392L574.289 196.382L575.583 197.031L579.09 190.041Z" fill="white"/>
  <path d="M479.251 187.179L478.29 188.263L484.141 193.451L485.102 192.367L479.251 187.179Z" fill="white"/>
  <path d="M450.579 153.291L449.619 154.375L455.47 159.563L456.43 158.479L450.579 153.291Z" fill="white"/>
  <path d="M545.862 166.325L544.901 167.409L550.753 172.597L551.713 171.513L545.862 166.325Z" fill="white"/>
  <path d="M560.865 142.248L559.905 143.331L565.756 148.519L566.716 147.436L560.865 142.248Z" fill="white"/>
  <path d="M480.532 172.724H479.475V180.119H480.532V172.724Z" fill="#FF6584"/>
  <path d="M562.376 177.151L561.043 176.585L557.987 183.783L559.32 184.349L562.376 177.151Z" fill="#FF6584"/>
  <path d="M451.697 184.829L450.443 185.553L454.352 192.325L455.606 191.601L451.697 184.829Z" fill="#FF6584"/>
  <path d="M534.526 179.326L533.272 180.05L537.182 186.822L538.436 186.098L534.526 179.326Z" fill="#FF6584"/>
  <path d="M482.975 150.651L481.721 151.375L485.631 158.148L486.885 157.424L482.975 150.651Z" fill="#FF6584"/>
  <path d="M544.373 149.203L543.119 149.927L547.028 156.7L548.283 155.976L544.373 149.203Z" fill="#FF6584"/>
  <path d="M514.776 144.242L513.521 144.966L517.431 151.739L518.685 151.014L514.776 144.242Z" fill="#FF6584"/>
  <path d="M516.475 156.878H515.418V164.273H516.475V156.878Z" fill="#FF6584"/>
  <path d="M432.961 169.555H431.904V176.949H432.961V169.555Z" fill="#FF6584"/>
  <path d="M428.732 333.292C431.651 333.292 434.018 331.164 434.018 328.538C434.018 325.913 431.651 323.785 428.732 323.785C425.813 323.785 423.446 325.913 423.446 328.538C423.446 331.164 425.813 333.292 428.732 333.292Z" fill="#6153CC"/>
  <path d="M416.575 313.221C419.202 313.221 421.332 310.856 421.332 307.939C421.332 305.022 419.202 302.657 416.575 302.657C413.947 302.657 411.818 305.022 411.818 307.939C411.818 310.856 413.947 313.221 416.575 313.221Z" fill="#6153CC"/>
  <path d="M383.341 286.199C383.454 285.313 383.38 284.414 383.124 283.56C382.868 282.707 382.436 281.919 381.857 281.25C381.277 280.581 380.564 280.046 379.765 279.682C378.967 279.318 378.101 279.132 377.226 279.138H375.272C375.745 278.234 375.992 277.226 375.992 276.201C375.988 274.534 375.336 272.937 374.181 271.758C373.025 270.579 371.46 269.915 369.826 269.91H349.27C347.635 269.91 346.066 270.573 344.91 271.753C343.753 272.933 343.104 274.533 343.104 276.201C343.104 277.87 343.753 279.47 344.91 280.65C346.066 281.83 347.635 282.493 349.27 282.493H351.224C350.751 283.396 350.504 284.405 350.504 285.429C350.508 286.738 350.911 288.012 351.657 289.077C352.403 290.141 353.454 290.943 354.666 291.371C354.553 292.256 354.627 293.156 354.883 294.009C355.139 294.863 355.571 295.651 356.15 296.319C356.73 296.988 357.443 297.523 358.242 297.887C359.04 298.252 359.906 298.437 360.781 298.432H381.337C382.796 298.433 384.208 297.906 385.322 296.944C386.435 295.983 387.179 294.65 387.419 293.182C387.66 291.713 387.382 290.206 386.635 288.927C385.888 287.648 384.721 286.682 383.341 286.199Z" fill="#6153CC"/>
  <path d="M248.505 329.399L248.055 328.949L245.623 331.381L246.073 331.831L248.505 329.399Z" fill="#3F3D56"/>
  <path fill-rule="evenodd" clip-rule="evenodd" d="M312.877 415.897L309.272 416.733L309.267 416.73C277.254 424.366 252.766 436.429 254.568 443.685C255.312 446.66 260.359 448.365 268.266 448.806C272.844 457.843 280.12 465.266 289.087 470.046C297.386 474.471 306.755 476.43 316.072 475.716C317.269 475.624 318.065 474.465 317.775 473.3L312.938 453.885C312.856 453.555 312.611 453.289 312.289 453.18L311.987 453.078C309.784 452.235 307.91 450.706 306.646 448.72C305.383 446.734 304.799 444.399 304.982 442.066C305.165 439.733 306.106 437.529 307.662 435.786C309.218 434.043 311.306 432.854 313.61 432.4C315.915 431.946 318.313 432.25 320.441 433.266C322.57 434.283 324.315 435.958 325.413 438.038C326.512 440.118 326.904 442.491 326.532 444.799C326.19 446.916 325.222 448.873 323.758 450.426C323.511 450.687 323.401 451.054 323.488 451.403L328.324 470.831C328.61 471.98 329.83 472.633 330.926 472.181C339.548 468.624 346.957 462.663 352.253 454.99C357.968 446.711 360.94 436.848 360.759 426.765C367.571 422.807 371.254 419.017 370.514 416.045C368.914 409.618 347.206 409.126 320.01 414.405L316.436 415.127L312.877 415.897Z" fill="#6153CC"/>
  <path fill-rule="evenodd" clip-rule="evenodd" d="M302.031 369.338C300.528 369.058 298.984 369.096 297.502 369.45C296.021 369.804 294.635 370.465 293.433 371.391C292.231 372.316 291.241 373.485 290.528 374.82C289.814 376.156 289.392 377.629 289.291 379.143C289.189 380.656 289.409 382.177 289.937 383.606C282.754 387.145 276.573 392.398 271.941 398.9C268.041 404.375 265.34 410.594 263.993 417.157C263.671 418.73 265.319 419.906 266.775 419.227C276.464 414.71 288.73 410.693 302.678 407.195L306.657 406.227C322.22 402.514 336.398 400.212 348.128 399.822C349.748 399.768 350.683 397.945 349.655 396.693C345.38 391.488 340.07 387.195 334.049 384.097C326.881 380.408 318.925 378.526 310.885 378.616C310.682 377.109 310.163 375.658 309.36 374.358C308.558 373.059 307.49 371.94 306.227 371.075C304.964 370.21 303.535 369.618 302.031 369.338Z" fill="#6153CC"/>
  <path fill-rule="evenodd" clip-rule="evenodd" d="M307.516 319.866L304.884 322.465L304.878 322.465C281.614 345.729 267.083 368.824 272.424 374.059C274.619 376.203 279.812 375.012 286.778 371.248C295.418 376.547 305.509 379.058 315.655 378.434C325.044 377.856 334.052 374.62 341.613 369.134C342.585 368.429 342.655 367.023 341.796 366.183L327.494 352.183C327.251 351.945 326.903 351.847 326.571 351.923L326.261 351.994C323.942 352.43 321.543 352.109 319.425 351.079C317.307 350.049 315.585 348.367 314.517 346.284C313.45 344.202 313.095 341.833 313.506 339.534C313.917 337.234 315.072 335.129 316.797 333.536C318.522 331.942 320.723 330.946 323.07 330.697C325.416 330.448 327.781 330.96 329.808 332.156C331.834 333.353 333.413 335.168 334.307 337.329C335.126 339.31 335.329 341.483 334.896 343.572C334.823 343.924 334.921 344.294 335.178 344.546L349.489 358.559C350.335 359.388 351.716 359.305 352.412 358.347C357.891 350.803 361.075 341.847 361.562 332.54C362.087 322.497 359.445 312.542 354.002 304.05C357.728 297.114 358.877 291.958 356.688 289.814C351.955 285.179 333.206 296.126 312.81 314.861L310.144 317.347L307.516 319.866Z" fill="#FFB800"/>
  <path fill-rule="evenodd" clip-rule="evenodd" d="M273.855 285.896C272.428 286.445 271.133 287.286 270.056 288.363C268.981 289.44 268.147 290.729 267.609 292.146C267.07 293.564 266.84 295.077 266.933 296.588C267.025 298.099 267.439 299.574 268.146 300.917C268.853 302.259 269.839 303.439 271.038 304.379C266.776 311.154 264.266 318.863 263.731 326.825C263.28 333.53 264.242 340.241 266.539 346.536C267.089 348.044 269.108 348.181 269.992 346.841C275.875 337.922 284.217 328.078 294.264 317.796L297.145 314.888C308.453 303.578 319.323 294.195 329.109 287.721C330.461 286.827 330.301 284.784 328.768 284.256C322.397 282.062 315.623 281.187 308.87 281.701C300.829 282.313 293.065 284.876 286.264 289.162C285.301 287.984 284.097 287.021 282.732 286.334C281.367 285.648 279.87 285.254 278.341 285.178C276.811 285.103 275.283 285.348 273.855 285.896Z" fill="#FFB800"/>
</svg>
