<svg width="534" height="547" viewBox="0 0 534 547" fill="none" xmlns="http://www.w3.org/2000/svg">
  <path d="M483.157 248.999L333.964 139.988C330.163 145.988 324.786 150.828 318.42 153.978C298.572 163.803 274.203 155.036 263.992 134.398C260.555 127.589 259.042 119.971 259.616 112.365C260.19 104.76 262.83 97.456 267.25 91.2422L216.38 54.0727L50.224 297.818L317.001 492.744L483.157 248.999Z" fill="#F2F2F2"/>
  <path d="M307.623 149.806C324.966 145.098 335.207 127.216 330.497 109.866C325.787 92.516 307.909 82.2678 290.566 86.9761C273.223 91.6843 262.982 109.566 267.692 126.916C272.402 144.266 290.28 154.514 307.623 149.806Z" fill="#F2F2F2"/>
  <path d="M145.948 261.987L143.302 276.986L186.963 284.704L189.608 269.704L145.948 261.987Z" fill="#6C63FF"/>
  <path d="M436.729 328.558L434.084 343.557L472.785 350.398L475.43 335.398L436.729 328.558Z" fill="#6C63FF"/>
  <path d="M438.882 227.304L439.34 228.071C440.473 230.009 441.562 231.961 442.609 233.926C460.446 267.607 464.732 306.831 454.587 343.561C444.442 380.29 420.635 411.743 388.045 431.474C355.455 451.205 316.55 457.72 279.302 449.682C242.055 441.645 209.286 419.665 187.712 388.247C185.919 385.639 184.202 382.958 182.56 380.205C166.673 353.677 159.457 322.856 161.918 292.037C162.106 289.559 162.364 287.084 162.689 284.612C162.908 282.897 163.168 281.193 163.442 279.492C169.781 240.946 190.975 206.426 222.474 183.338C253.974 160.25 293.271 150.434 331.934 155.994C334.221 156.321 336.508 156.707 338.776 157.14C340.591 157.488 342.4 157.871 344.202 158.29C379.625 166.417 410.856 187.225 432.007 216.789C434.426 220.17 436.718 223.675 438.882 227.304Z" fill="#3F3D56"/>
  <path d="M396.827 448.102C317.265 495.562 213.909 469.419 166.43 389.826C144.661 353.438 137.493 310.152 146.375 268.697L151.34 269.758C142.727 309.959 149.677 351.938 170.79 387.226C216.834 464.415 317.067 489.767 394.226 443.741C413.011 432.621 429.349 417.81 442.253 400.201C455.157 382.592 464.361 362.55 469.309 341.283L474.25 342.452C469.148 364.381 459.657 385.048 446.351 403.205C433.044 421.363 416.198 436.635 396.827 448.102Z" fill="#FFB800"/>
  <path d="M415.93 432.567L379.313 454.41L401.164 491.043L437.782 469.199L415.93 432.567Z" fill="#6C63FF"/>
  <path d="M162.689 284.611C162.768 284.6 162.848 284.601 162.926 284.612C163.953 284.768 163.74 286.373 164.381 287.209C165.19 288.288 166.875 287.625 168.102 287.047C169.335 286.477 171.356 286.537 171.421 287.894C169.107 290.634 165.572 291.406 161.918 292.037C159.457 322.855 166.673 353.677 182.56 380.205C184.204 382.961 185.921 385.642 187.712 388.247C188.062 388.28 188.414 388.264 188.76 388.201C189.83 388.013 190.805 387.348 191.888 387.341C192.748 387.336 193.57 387.744 194.415 387.714C196.83 387.621 198.219 384.203 200.627 384.375C201.305 384.513 201.975 384.69 202.633 384.904C205.014 385.329 207.049 382.874 209.471 382.812C211.029 382.77 212.411 383.719 213.747 384.531C217.076 386.565 221.342 387.97 224.822 386.214C225.846 385.537 226.922 384.943 228.04 384.436C229.21 384.058 230.757 384.353 231.21 385.489C231.989 387.449 234.035 388.877 234.866 390.806C236.39 394.331 232.614 398.523 234.173 402.028C234.601 402.749 234.989 403.492 235.336 404.255C235.636 405.235 235.407 406.317 235.691 407.307C236.217 409.181 238.339 410.103 240.249 410.43C242.172 410.761 244.251 410.798 245.853 411.9C247.548 413.076 248.309 415.165 249.591 416.778C252.398 420.294 257.393 421.158 261.886 420.961C263.247 420.767 264.635 420.895 265.938 421.335C267.565 422.079 268.471 423.797 269.668 425.129C272.583 428.392 277.503 429.585 279.832 433.292C281.491 435.933 281.455 439.242 282.069 442.293C282.731 445.481 284.142 448.466 286.187 451C293.674 452.252 301.246 452.934 308.836 453.04C308.871 452.414 308.797 451.786 308.615 451.185C308.376 450.544 307.947 449.99 307.386 449.599C306.825 449.207 306.158 448.995 305.474 448.991C306.2 448.077 306.726 447.022 307.019 445.893C307.154 445.324 307.112 444.727 306.897 444.182C306.682 443.638 306.306 443.173 305.818 442.849C307.467 442.126 309.346 441.135 309.655 439.354C309.904 437.928 309.009 436.547 307.974 435.544C306.838 434.646 305.821 433.608 304.948 432.453C308.606 430.506 312.098 428.261 315.388 425.74C313.848 424.32 311.815 423.556 309.721 423.611C311.164 422.383 311.475 419.596 311.06 417.751C310.558 415.915 309.591 414.239 308.252 412.886C307.888 412.55 307.612 412.129 307.451 411.661C307.379 410.954 307.571 410.245 307.99 409.672C309.73 406.564 311.472 403.46 313.215 400.359C313.546 399.838 313.788 399.266 313.931 398.666C314.172 397.186 313.17 395.785 312.02 394.828C310.87 393.87 309.508 393.133 308.583 391.959C305.821 388.438 308.267 383.266 307.501 378.851C307.114 377.137 306.474 375.49 305.603 373.964C304.749 372.274 303.639 370.394 301.782 370.094C299.989 369.804 298.267 371.138 296.464 370.949C294.812 370.775 293.436 369.361 291.778 369.415C290.27 369.464 289.097 370.707 287.656 371.165C285.135 371.971 282.215 370.248 279.808 371.365C278.452 371.984 277.379 373.476 275.891 373.358C274.571 373.247 273.751 371.951 272.91 370.938C271.563 369.384 269.773 368.279 267.78 367.772C265.788 367.266 263.688 367.381 261.763 368.104C260.322 368.68 258.939 369.611 257.382 369.558C255.812 369.502 254.48 368.439 252.974 367.954C250.571 367.176 247.956 367.944 245.54 368.711C242.263 369.755 238.986 370.795 235.711 371.831C233.967 372.374 231.882 373.358 231.855 375.195C231.914 375.852 232.068 376.497 232.312 377.11C232.601 378.303 232.506 379.556 232.041 380.691C231.576 381.826 230.765 382.785 229.723 383.432C228.267 382.631 226.559 382.421 224.953 382.848C223.967 383.232 222.957 383.55 221.928 383.801C221.342 383.849 220.752 383.777 220.195 383.589C219.637 383.402 219.123 383.102 218.685 382.709C218.247 382.316 217.894 381.838 217.647 381.304C217.4 380.77 217.265 380.191 217.249 379.603C217.216 378.423 216.796 377.286 216.054 376.368C215.311 375.45 214.289 374.801 213.142 374.52C210.892 374.077 208.58 375.018 206.688 376.324C205.503 375.506 205.611 373.727 206.046 372.355C206.495 370.988 207.141 369.515 206.614 368.174C205.792 366.063 202.473 366.067 200.954 367.742C199.44 369.425 199.332 371.938 199.608 374.186C199.854 375.462 199.928 376.766 199.829 378.063C199.768 378.711 199.53 379.33 199.139 379.85C198.749 380.371 198.222 380.774 197.617 381.014C195.849 381.537 194.177 380.062 192.922 378.73C191.153 377.003 189.616 375.054 188.351 372.93C187.085 370.779 186.712 368.217 187.309 365.794C188.452 361.943 192.493 359.84 196.143 358.171C195.484 357.901 194.946 357.399 194.63 356.76C194.315 356.121 194.243 355.389 194.428 354.701C194.643 354.02 195.022 353.402 195.53 352.901C196.039 352.4 196.662 352.031 197.346 351.825C198.507 351.423 199.769 351.424 200.929 351.828C202.613 352.432 203.855 353.879 205.388 354.785C206.936 355.695 209.279 355.858 210.199 354.328C211.001 352.998 210.217 351.266 209.154 350.138C208.087 349.024 206.714 348.129 206.028 346.741C204.724 344.101 206.438 341.009 208.13 338.593C209.821 336.177 211.625 333.197 210.493 330.466C210.218 329.968 210.024 329.429 209.918 328.869C209.93 328.307 210.086 327.757 210.373 327.274C214.454 318.797 218.62 310.186 224.876 303.155C225.199 302.785 225.326 302.898 225.678 302.558C226.056 301.883 225.126 301.196 224.358 301.158C223.59 301.119 222.686 301.268 222.162 300.706C221.785 300.292 221.783 299.655 221.567 299.133C221.412 298.833 221.186 298.575 220.909 298.382C220.631 298.189 220.31 298.067 219.975 298.026C219.639 297.986 219.299 298.029 218.984 298.151C218.669 298.272 218.388 298.47 218.167 298.725C217.059 298.275 217.713 296.596 218.54 295.724C221.029 293.133 223.787 290.814 226.766 288.806C227.087 288.535 227.488 288.379 227.908 288.362C228.265 288.445 228.576 288.662 228.779 288.968C228.981 289.274 229.059 289.646 228.996 290.007C228.854 290.723 228.643 291.424 228.364 292.099C228.154 292.883 228.163 293.71 228.39 294.49C228.618 295.27 229.055 295.972 229.654 296.521C231.756 296.378 234.004 296.184 235.62 294.83C237.227 293.481 237.608 290.534 235.819 289.437C234.153 288.409 231.605 289.467 230.231 288.076C228.621 286.446 230.309 283.133 228.586 281.631C227.835 280.967 226.724 280.968 225.748 280.758C224.575 280.471 223.516 279.837 222.708 278.939C221.901 278.041 221.382 276.921 221.22 275.724C220.306 276.512 219.217 277.069 218.043 277.349C216.87 277.629 215.646 277.625 214.475 277.336C212.298 276.778 209.921 275.251 208.027 276.476C206.289 277.584 205.996 280.561 203.965 280.921C203.461 281.008 202.847 280.949 202.564 281.366C202.484 281.527 202.442 281.703 202.44 281.883C202.438 282.062 202.478 282.239 202.554 282.401C203.338 284.665 205.43 286.528 205.372 288.927C205.306 291.532 202.699 293.443 202.271 296.015C202.038 297.408 202.477 298.837 202.336 300.246C202.195 301.654 201.044 303.192 199.662 302.858C199.567 301.727 199.09 300.663 198.311 299.839C197.531 299.015 196.495 298.48 195.372 298.321C194.255 298.273 193.136 298.368 192.042 298.605C190.769 298.782 189.481 298.821 188.199 298.722C187.587 298.716 186.988 298.541 186.468 298.217C185.927 297.742 185.571 297.091 185.466 296.379C185.156 294.856 185.267 293.277 185.787 291.813C186.306 290.348 187.216 289.054 188.416 288.067C189.473 287.224 190.847 286.475 191.089 285.137C191.214 284.435 191.002 283.604 191.486 283.067C191.813 282.766 192.229 282.58 192.671 282.538C194.411 282.185 196.143 281.838 197.883 281.486C198.494 281.42 199.076 281.191 199.568 280.824C199.809 280.635 199.968 280.362 200.014 280.06C200.06 279.758 199.989 279.45 199.816 279.198C199.25 278.566 197.949 278.881 197.621 278.095C197.531 277.828 197.529 277.539 197.615 277.271C198.183 274.689 199.314 272.264 200.928 270.171C202.543 268.077 204.6 266.367 206.952 265.161C208.028 265.737 207.804 267.302 207.533 268.493C207.276 269.687 207.512 271.391 208.732 271.455C209.194 271.43 209.641 271.285 210.03 271.035C211.175 270.545 212.392 270.243 213.633 270.14C215.509 269.896 217.401 269.737 219.288 269.652C218.52 268.842 217.975 267.847 217.707 266.763C217.596 266.219 217.692 265.654 217.975 265.176C218.259 264.699 218.71 264.344 219.24 264.181C220.292 264.003 221.405 264.877 222.383 264.436C223.678 263.852 223.086 261.77 221.914 260.955C220.742 260.14 219.179 259.819 218.367 258.636C217.817 257.852 217.522 256.645 216.572 256.537C216.248 256.522 215.924 256.585 215.63 256.721C209.556 258.984 203.478 261.246 197.395 263.507C196.309 263.906 194.989 264.883 195.533 265.895C195.84 266.468 196.665 266.721 196.749 267.357C196.836 268.039 196.043 268.453 195.599 268.977C195.293 269.418 195.139 269.946 195.16 270.481C195.181 271.017 195.376 271.532 195.716 271.947C196.406 272.765 197.271 273.417 198.248 273.854C196.91 274.049 195.251 274.932 193.908 275.119C193.011 273.969 191.968 272.941 190.807 272.061C190.67 271.892 190.498 271.755 190.302 271.66C190.107 271.565 189.893 271.514 189.675 271.511C189.458 271.507 189.243 271.552 189.045 271.64C188.846 271.729 188.67 271.86 188.528 272.025C187.245 273.085 185.958 274.137 184.675 275.198C184.331 275.426 184.07 275.76 183.931 276.15C183.731 277.062 184.828 277.673 185.289 278.486C185.506 278.965 185.568 279.499 185.467 280.015C185.366 280.531 185.106 281.003 184.725 281.365C183.945 282.074 183.023 282.608 182.019 282.932C179.858 283.807 177.705 284.677 175.544 285.552C176.959 283.953 177.892 281.986 178.236 279.879C178.469 278.486 177.857 276.51 176.464 276.75C176.074 276.857 175.709 277.039 175.388 277.285C172.713 278.904 169.258 277.926 166.18 278.473C165.214 278.65 164.288 278.994 163.442 279.492L162.689 284.611Z" fill="#6C63FF"/>
  <path d="M442.608 233.926C442.547 234.523 442.341 235.095 442.007 235.593C441.674 236.091 441.223 236.499 440.695 236.782C437.826 238.175 434.328 234.928 431.36 236.095C431.085 236.176 430.846 236.352 430.687 236.591C430.416 237.049 430.669 237.631 430.913 238.1C432.142 240.418 433.441 242.813 435.559 244.363C438.652 246.634 443.493 247.199 444.715 250.834C439.931 251.334 435.465 248.287 432.175 244.774C428.877 241.266 426.209 237.11 422.344 234.237C422.053 236.503 418.765 236.738 416.698 235.771C414.736 234.86 413.03 233.466 411.087 232.508C409.15 231.558 406.766 231.089 404.865 232.104C402.869 233.177 401.974 235.52 401.246 237.669C400.525 239.391 400.161 241.241 400.176 243.108C400.387 245.82 402.125 248.119 403.461 250.479C404.907 253.022 405.962 255.999 405.348 258.873C404.728 261.738 401.948 264.271 399.063 263.734C397.579 263.325 396.226 262.539 395.137 261.452C389.503 256.682 384.147 251.594 379.095 246.211C379.624 247.811 379.464 250.378 377.784 250.257C377.385 250.189 377.004 250.037 376.668 249.811C372.221 247.391 366.79 247.579 361.842 248.698C356.908 249.82 352.183 251.787 347.21 252.743C344.42 253.278 341.578 253.494 338.739 253.386C338.676 254.462 338.905 255.535 339.401 256.492C339.897 257.449 340.642 258.254 341.557 258.823C342.497 259.354 343.585 259.559 344.653 259.408C345.721 259.256 346.709 258.756 347.464 257.984C348.193 257.147 348.586 256.061 349.297 255.212C350.013 254.371 351.313 253.796 352.226 254.434C353.103 255.034 353.126 256.38 353.934 257.081C355.147 258.143 357.206 257.057 358.622 257.844C359.111 258.199 359.474 258.7 359.658 259.276C359.842 259.851 359.836 260.471 359.643 261.043C359.231 262.176 358.671 263.25 357.978 264.236C356.021 267.614 355.597 271.639 354.324 275.332C353.057 279.032 350.38 282.769 346.501 283.203C345.024 279.082 339.026 278.994 336.025 275.806C335.031 274.754 334.406 273.389 333.329 272.435C331.76 271.053 329.546 270.79 327.538 270.237C325.088 269.55 322.801 268.379 320.81 266.795C318.819 265.21 317.166 263.243 315.946 261.01C315.11 259.451 314.468 257.741 313.235 256.466C312.016 255.195 309.933 254.498 308.453 255.464C305.085 257.686 300.873 260.553 297.296 258.678C296.013 258.012 294.813 256.635 295.27 255.262C295.499 254.809 295.816 254.406 296.202 254.077C296.587 253.747 297.035 253.498 297.518 253.342C300.275 252.04 303.03 250.752 305.787 249.45C307.714 248.537 309.772 247.51 310.775 245.624C311.777 243.737 310.943 240.793 308.816 240.536C307.272 240.346 305.397 241.523 304.308 240.411C303.405 239.471 303.874 237.524 302.674 236.998C301.827 236.628 300.885 237.427 300.54 238.295C300.329 239.203 300.04 240.091 299.677 240.95C298.815 242.339 296.964 242.604 295.371 242.986C293.779 243.369 291.962 244.405 292.061 246.037C292.156 247.861 294.617 248.876 294.735 250.698C294.873 253.11 291.023 253.988 290.627 256.376C290.175 259.106 294.379 260.288 295.249 262.915C294.782 263.638 294.136 264.228 293.374 264.627C292.611 265.026 291.758 265.221 290.897 265.191C290.04 265.14 289.212 264.857 288.502 264.372C287.792 263.887 287.228 263.219 286.868 262.439C286.365 261.319 286.275 259.919 285.321 259.152C284.472 258.626 283.464 258.419 282.477 258.566C279.111 258.67 275.748 258.78 272.389 258.895C272.464 260.625 274.315 261.708 276.019 262.028C277.709 262.344 279.546 262.253 281.049 263.107C282.046 263.725 282.77 264.701 283.073 265.834C283.376 266.968 283.234 268.174 282.678 269.207C282.613 269.348 282.519 269.473 282.402 269.573C282.284 269.674 282.146 269.748 281.997 269.79C281.834 269.791 281.672 269.76 281.521 269.698C281.371 269.635 281.234 269.543 281.119 269.427C277.74 266.795 273.713 264.621 269.438 264.747C265.149 264.87 260.761 267.996 260.446 272.263C260.375 273.275 260.524 274.298 260.541 275.317C260.629 280.716 256.794 285.581 252.083 288.226C251.647 288.526 251.131 288.689 250.602 288.696C249.545 288.628 248.924 287.509 248.497 286.534C247.897 285.153 247.295 283.786 246.696 282.405C246.233 281.62 246.087 280.688 246.287 279.799C246.745 278.603 248.238 278.292 249.326 277.62C250.133 277.088 250.756 276.32 251.11 275.421C251.465 274.522 251.533 273.535 251.305 272.595C251.049 271.663 250.543 270.819 249.842 270.153C249.141 269.488 248.271 269.027 247.327 268.819C246.549 268.645 245.524 268.452 245.406 267.659C245.407 267.421 245.461 267.185 245.563 266.969C245.665 266.753 245.812 266.562 245.995 266.409C247.619 264.672 249.614 263.281 251.135 261.451C252.67 259.625 253.723 257.129 252.993 254.856C252.768 254.162 252.387 253.384 252.754 252.751C252.965 252.474 253.226 252.239 253.522 252.057C254.481 251.281 255.115 250.175 255.299 248.955C255.484 247.736 255.206 246.491 254.52 245.466C255.059 244.269 256.644 243.974 257.953 244.127C259.254 244.286 260.588 244.72 261.855 244.366C264.219 243.713 265.104 240.737 267.209 239.47C268.098 238.939 269.201 238.707 269.847 237.908C270.51 237.098 270.517 235.959 270.792 234.955C271.072 233.937 271.981 232.886 272.983 233.199C272.055 232.038 271.14 230.881 270.216 229.729C271.398 229.375 272.49 228.772 273.419 227.961C274.348 227.15 275.093 226.149 275.603 225.026C272.963 225.595 270.333 226.159 267.694 226.728C267.429 226.809 267.148 226.822 266.877 226.766C266.09 226.538 266.091 225.449 266.126 224.636C266.221 222.675 265 220.27 263.049 220.488C261.717 220.632 260.866 221.92 260.196 223.077C259.122 224.923 258.054 226.779 256.981 228.625C257.379 229.629 258.807 229.487 259.86 229.687C260.502 229.809 261.092 230.122 261.552 230.586C262.012 231.05 262.322 231.642 262.439 232.285C262.556 232.928 262.476 233.591 262.209 234.188C261.943 234.784 261.502 235.286 260.944 235.626C261.506 235.851 262.011 236.198 262.422 236.642C262.832 237.087 263.138 237.618 263.317 238.196C262.291 238.915 261.257 239.638 260.222 240.361C260.064 240.504 259.879 240.615 259.678 240.686C259.477 240.757 259.264 240.788 259.051 240.776C258.521 240.679 258.25 240.107 257.893 239.705C257.426 239.249 256.833 238.943 256.19 238.827C255.548 238.71 254.885 238.789 254.288 239.053C253.103 239.591 252.04 240.365 251.166 241.329C250.799 241.77 250.283 242.061 249.715 242.147C249.354 242.13 249.009 241.996 248.731 241.765C248.184 241.28 247.772 240.662 247.534 239.972C247.296 239.281 247.24 238.54 247.371 237.822C247.654 236.392 248.069 234.992 248.613 233.64C249.69 230.319 249.816 226.762 248.977 223.372C250.308 221.561 251.544 219.451 252.884 217.635C253.923 216.112 255.127 214.708 256.474 213.448C257.797 212.357 259.231 211.406 260.752 210.612C262.778 209.451 264.812 208.285 266.844 207.132C268.589 205.989 270.531 205.179 272.571 204.744C274.625 204.442 276.96 205.047 278.135 206.759C278.29 206.941 278.396 207.16 278.443 207.395C278.49 207.63 278.476 207.873 278.403 208.101C278.248 208.367 278.021 208.584 277.748 208.727C276.114 209.773 275.658 210.613 274.029 211.667C275.755 212.163 277.649 212.642 279.303 211.927C282.214 210.664 282.488 206.705 282.283 203.527C282.697 204.12 283.326 204.528 284.036 204.663C284.746 204.799 285.481 204.651 286.084 204.252C286.683 203.739 287.172 203.109 287.521 202.401C291.135 196.27 296.216 191.135 302.307 187.456C301.971 187.029 301.805 186.492 301.842 185.95C301.879 185.408 302.116 184.899 302.507 184.522C303.608 183.534 305.364 183.941 306.632 184.699C307.89 185.461 309.035 186.528 310.494 186.794C311.944 187.064 313.757 185.923 313.414 184.496C313.088 183.117 311.283 182.846 309.87 182.755C308.453 182.678 306.643 182.043 306.72 180.625C311.165 176.425 315.658 172.207 320.78 168.844C321.69 168.338 322.488 167.653 323.125 166.83C323.433 166.41 323.594 165.9 323.582 165.378C323.57 164.857 323.387 164.354 323.061 163.948C322.073 164.9 320.825 165.537 319.475 165.778C318.124 166.02 316.733 165.854 315.476 165.303C320.608 161.639 326.023 157.876 331.934 155.994L338.776 157.14C338.448 158.553 337.802 160.086 338.966 160.609C339.296 160.692 339.641 160.699 339.974 160.629C340.307 160.56 340.62 160.415 340.889 160.207C341.998 159.569 343.112 158.94 344.202 158.29C379.625 166.417 410.856 187.224 432.007 216.788C430.135 217.811 429.836 221.135 431.278 223.018C432.957 225.197 435.772 226.072 438.191 227.373C438.588 227.582 438.972 227.815 439.34 228.071L442.608 233.926Z" fill="#6C63FF"/>
  <path d="M341.395 527.584L512.207 424.369" stroke="#3F3D56" stroke-width="2" stroke-miterlimit="10"/>
  <path d="M55.5153 130.885C61.6234 127.241 63.6201 119.334 59.9751 113.224C56.3301 107.113 48.4236 105.113 42.3156 108.757C36.2075 112.401 34.2108 120.308 37.8558 126.418C41.5008 132.529 49.4073 134.529 55.5153 130.885Z" stroke="#3F3D56" stroke-width="2" stroke-miterlimit="10"/>
  <path d="M366.741 81.4618C372.85 77.8182 374.846 69.911 371.201 63.8005C367.556 57.69 359.65 55.6902 353.542 59.3337C347.434 62.9773 345.437 70.8846 349.082 76.9951C352.727 83.1055 360.633 85.1054 366.741 81.4618Z" stroke="#3F3D56" stroke-width="2" stroke-miterlimit="10"/>
  <path d="M350.74 219.565C357.595 215.476 359.836 206.603 355.745 199.745C351.655 192.888 342.782 190.644 335.927 194.733C329.073 198.822 326.832 207.695 330.922 214.553C335.013 221.41 343.886 223.654 350.74 219.565Z" fill="#3F3D56"/>
  <path d="M369.159 159.825C378.194 154.435 381.148 142.738 375.756 133.699C370.364 124.66 358.668 121.702 349.632 127.092C340.597 132.481 337.643 144.179 343.035 153.218C348.427 162.257 360.123 165.215 369.159 159.825Z" fill="white"/>
  <path d="M365.82 116.621C358.872 114.955 351.549 116.118 345.46 119.853C339.371 123.588 335.016 129.59 333.353 136.538C329.889 151.007 344.711 204.801 344.711 204.801C344.711 204.801 382.28 163.57 385.744 149.101C387.407 142.153 386.243 134.828 382.506 128.736C378.77 122.645 372.767 118.287 365.82 116.621V116.621ZM356.489 155.599C354.088 155.023 351.912 153.749 350.235 151.936C348.558 150.123 347.456 147.854 347.068 145.415C346.68 142.976 347.024 140.478 348.056 138.235C349.088 135.992 350.762 134.106 352.867 132.815C354.971 131.524 357.411 130.887 359.878 130.983C362.345 131.079 364.728 131.905 366.726 133.356C368.724 134.807 370.248 136.818 371.104 139.134C371.96 141.45 372.11 143.968 371.535 146.37C370.764 149.589 368.746 152.371 365.924 154.102C363.103 155.833 359.709 156.371 356.489 155.599V155.599Z" fill="#FFB800"/>
  <path fill-rule="evenodd" clip-rule="evenodd" d="M159.261 148.131L153.41 149.569L153.402 149.565C101.455 162.689 61.8234 182.87 64.879 194.659C66.1407 199.491 74.3802 202.164 87.2495 202.715C94.851 217.348 106.814 229.291 121.483 236.893C135.483 244.148 151.288 247.107 166.895 245.422C168.087 245.293 168.866 244.128 168.565 242.969L159.921 209.715C159.836 209.385 159.587 209.121 159.262 209.016L158.447 208.751C154.848 207.424 151.773 204.971 149.684 201.761C147.595 198.551 146.605 194.757 146.863 190.951C147.121 187.145 148.613 183.533 151.115 180.658C153.617 177.784 156.993 175.803 160.735 175.013C164.476 174.224 168.381 174.669 171.862 176.281C175.342 177.893 178.209 180.585 180.031 183.952C181.854 187.319 182.533 191.178 181.966 194.949C181.428 198.528 179.795 201.843 177.298 204.447C177.049 204.706 176.945 205.074 177.035 205.421L185.674 238.68C185.972 239.829 187.202 240.469 188.301 240.02C202.816 234.103 215.239 224.016 223.982 211.014C233.138 197.399 237.805 181.259 237.338 164.829C248.352 158.234 254.279 151.978 253.024 147.15C250.312 136.709 214.99 136.367 170.839 145.548L165.037 146.801L159.261 148.131Z" fill="#FFB800"/>
  <path fill-rule="evenodd" clip-rule="evenodd" d="M140.823 72.4728C138.372 72.0483 135.862 72.1431 133.457 72.7512C131.054 73.36 128.81 74.4674 126.871 76.0012C124.932 77.535 123.341 79.4608 122.203 81.653C121.065 83.8452 120.404 86.2546 120.264 88.7241C120.125 91.1936 120.509 93.6677 121.392 95.9853C109.767 101.906 99.8018 110.598 92.3775 121.294C85.6741 130.951 81.2287 141.973 79.3443 153.554C79.0861 155.141 80.7574 156.295 82.1964 155.577C98.1928 147.591 118.856 140.433 142.52 134.164L148.977 132.501C175.311 125.846 199.222 121.724 218.757 121.086C220.375 121.033 221.295 119.203 220.293 117.933C212.998 108.684 203.735 101.136 193.16 95.8502C181.436 89.9905 168.462 87.0912 155.384 87.4085C155.029 84.9554 154.159 82.6015 152.832 80.5004C151.504 78.3993 149.748 76.5983 147.679 75.2151C145.61 73.8318 143.273 72.8974 140.823 72.4728Z" fill="#FFB800"/>
  <path fill-rule="evenodd" clip-rule="evenodd" d="M156.341 465.779L153.379 468.368L153.373 468.368C127.181 491.562 110.249 515.154 115.557 521.075C117.739 523.499 123.319 522.578 130.948 519.037C139.746 525.244 150.267 528.582 161.055 528.591C171.09 528.6 180.894 525.727 189.297 520.343C190.306 519.696 190.463 518.303 189.662 517.411L175.324 501.44C175.096 501.186 174.754 501.066 174.417 501.122L174.052 501.182C171.567 501.492 169.048 500.991 166.873 499.756C164.699 498.521 162.986 496.617 161.994 494.333C161.003 492.048 160.785 489.505 161.373 487.088C161.962 484.67 163.326 482.508 165.259 480.928C167.193 479.348 169.591 478.434 172.093 478.326C174.595 478.217 177.065 478.918 179.132 480.324C181.199 481.73 182.75 483.765 183.553 486.122C184.293 488.295 184.359 490.634 183.75 492.837C183.654 493.183 183.729 493.558 183.969 493.825L198.306 509.799C199.099 510.683 200.486 510.687 201.243 509.772C207.598 502.095 211.599 492.745 212.74 482.837C213.967 472.193 211.832 461.433 206.633 452.043C211.043 444.915 212.604 439.509 210.428 437.085C205.723 431.843 185.134 442.24 162.281 460.808L159.292 463.275L156.341 465.779Z" fill="black"/>
  <path fill-rule="evenodd" clip-rule="evenodd" d="M122.953 427.429C121.404 427.918 119.977 428.726 118.764 429.8C117.553 430.874 116.584 432.189 115.919 433.66C115.255 435.132 114.91 436.726 114.907 438.338C114.905 439.951 115.244 441.547 115.904 443.021C116.564 444.495 117.529 445.815 118.736 446.894C113.77 453.815 110.597 461.845 109.499 470.276C108.565 477.452 109.159 484.729 111.224 491.64C111.685 493.181 113.697 493.444 114.66 492.156C121.496 483.012 131.039 473.034 142.442 462.7L145.688 459.799C158.506 448.446 170.723 439.14 181.576 432.904C182.979 432.098 182.949 430.053 181.459 429.422C174.792 426.602 167.592 425.188 160.32 425.289C151.763 425.407 143.368 427.617 135.878 431.724C134.936 430.407 133.726 429.303 132.326 428.483C130.925 427.662 129.367 427.144 127.752 426.963C126.137 426.781 124.502 426.94 122.953 427.429Z" fill="black"/>
</svg>

