<svg width="24" height="12" viewBox="0 0 24 12" fill="none" xmlns="http://www.w3.org/2000/svg">
  <path d="M23.9969 10.2971C23.9977 10.6943 23.8585 11.0792 23.6035 11.385C23.4599 11.5572 23.2835 11.6995 23.0845 11.8038C22.8855 11.908 22.6678 11.9723 22.4437 11.9928C22.2197 12.0133 21.9938 11.9898 21.7789 11.9234C21.5641 11.857 21.3645 11.7492 21.1917 11.606L12.0235 3.99049L2.83811 11.334C2.66315 11.4753 2.46183 11.5807 2.24573 11.6443C2.02963 11.708 1.803 11.7285 1.57888 11.7048C1.35476 11.6811 1.13755 11.6136 0.939759 11.5063C0.741963 11.3989 0.567473 11.2537 0.426319 11.0791C0.270601 10.9032 0.153146 10.6972 0.0813242 10.4741C0.00950223 10.2509 -0.0151352 10.0155 0.00895691 9.78242C0.033049 9.54938 0.105351 9.3238 0.221326 9.11984C0.3373 8.91589 0.494443 8.73795 0.682893 8.59721L10.9458 0.386705C11.2519 0.136682 11.6358 0 12.032 0C12.4282 0 12.8121 0.136682 13.1182 0.386705L23.3811 8.8862C23.5881 9.05672 23.7518 9.27335 23.8587 9.51849C23.9657 9.76363 24.0131 10.0304 23.9969 10.2971Z" fill="#7C7C7C"/>
</svg>
