<svg width="12" height="24" viewBox="0 0 12 24" fill="none" xmlns="http://www.w3.org/2000/svg">
  <path d="M10.2971 0.00309372C10.6943 0.00231361 11.0792 0.141504 11.385 0.396505C11.5572 0.5401 11.6995 0.716455 11.8038 0.915466C11.908 1.11448 11.9723 1.33223 11.9928 1.55627C12.0133 1.7803 11.9898 2.00621 11.9234 2.22105C11.857 2.4359 11.7492 2.63546 11.606 2.8083L3.99049 11.9765L11.334 21.1619C11.4753 21.3368 11.5807 21.5382 11.6443 21.7543C11.708 21.9704 11.7285 22.197 11.7048 22.4211C11.6811 22.6452 11.6136 22.8624 11.5063 23.0602C11.3989 23.258 11.2537 23.4325 11.0791 23.5737C10.9032 23.7294 10.6972 23.8469 10.4741 23.9187C10.2509 23.9905 10.0155 24.0151 9.78242 23.991C9.54938 23.967 9.3238 23.8946 9.11984 23.7787C8.91589 23.6627 8.73795 23.5056 8.59721 23.3171L0.386705 13.0542C0.136682 12.7481 0 12.3642 0 11.968C0 11.5718 0.136682 11.1879 0.386705 10.8818L8.8862 0.61887C9.05672 0.411871 9.27335 0.24824 9.51849 0.141251C9.76363 0.0342617 10.0304 -0.0130711 10.2971 0.00309372Z" fill="white"/>
</svg>
