<svg width="58" height="49" viewBox="0 0 58 49" fill="none" xmlns="http://www.w3.org/2000/svg">
  <path d="M52.375 7.46875H43.3438L41.1922 1.43906C41.0435 1.02647 40.7711 0.669824 40.4122 0.417851C40.0533 0.165878 39.6253 0.0308631 39.1867 0.0312508H18.8133C17.9168 0.0312508 17.1133 0.595704 16.8145 1.43906L14.6562 7.46875H5.625C2.68984 7.46875 0.3125 9.84609 0.3125 12.7813V43.0625C0.3125 45.9977 2.68984 48.375 5.625 48.375H52.375C55.3102 48.375 57.6875 45.9977 57.6875 43.0625V12.7813C57.6875 9.84609 55.3102 7.46875 52.375 7.46875ZM52.9062 43.0625C52.9062 43.3547 52.6672 43.5938 52.375 43.5938H5.625C5.33281 43.5938 5.09375 43.3547 5.09375 43.0625V12.7813C5.09375 12.4891 5.33281 12.25 5.625 12.25H18.023L19.1586 9.07578L20.6793 4.8125H37.3141L38.8348 9.07578L39.9703 12.25H52.375C52.6672 12.25 52.9062 12.4891 52.9062 12.7813V43.0625ZM29 16.5C23.1297 16.5 18.375 21.2547 18.375 27.125C18.375 32.9953 23.1297 37.75 29 37.75C34.8703 37.75 39.625 32.9953 39.625 27.125C39.625 21.2547 34.8703 16.5 29 16.5ZM29 33.5C25.4805 33.5 22.625 30.6445 22.625 27.125C22.625 23.6055 25.4805 20.75 29 20.75C32.5195 20.75 35.375 23.6055 35.375 27.125C35.375 30.6445 32.5195 33.5 29 33.5Z" fill="#CCCCCC"/>
</svg>
