<svg width="22" height="22" viewBox="0 0 22 22" fill="none" xmlns="http://www.w3.org/2000/svg">
  <path d="M15.2925 0.000854492C11.5881 0.000854492 8.58503 1.65691 8.58503 3.70272C8.58503 5.74853 11.5889 7.40544 15.2925 7.40544C18.997 7.40544 22 5.74853 22 3.70272C22 1.65691 18.9961 0.000854492 15.2925 0.000854492ZM22 4.80246C21.9983 6.84828 18.997 8.50519 15.2925 8.50519C11.5984 8.50519 8.6022 6.8663 8.58503 4.82994V6.27823C8.58503 7.15219 9.14477 7.95231 10.0617 8.58589C10.9888 8.83828 11.8147 9.18855 12.5024 9.63154C13.3549 9.84788 14.2924 9.98009 15.2925 9.98009C18.997 9.98009 22 8.32404 22 6.27823V4.80246ZM22 7.37797C22 9.42378 18.997 11.0807 15.2925 11.0807C14.8418 11.0807 14.404 11.0472 13.9781 11C14.3142 11.4525 14.5434 11.9753 14.6486 12.529C14.8624 12.541 15.0736 12.5556 15.2925 12.5556C18.997 12.5556 22 10.8996 22 8.85374V7.37797ZM6.70748 9.44353C3.00304 9.44353 0 11.1004 0 13.1463C0 15.1921 3.0039 16.849 6.70748 16.849C10.4119 16.849 13.415 15.1921 13.415 13.1463C13.415 11.1004 10.4111 9.44353 6.70748 9.44353ZM22 9.95348C21.9983 11.9993 18.997 13.6562 15.2925 13.6562C15.077 13.6562 14.859 13.6408 14.6486 13.6287C14.6392 13.6931 14.634 13.779 14.622 13.8434C14.6649 13.973 14.7019 14.1009 14.7019 14.2469V15.1054C14.8967 15.1148 15.0925 15.1311 15.2925 15.1311C18.997 15.1311 22 13.4751 22 11.4292V9.95348ZM22 12.529C21.9983 14.5748 18.997 16.2317 15.2925 16.2317C15.077 16.2317 14.859 16.2163 14.6486 16.2042C14.6392 16.2686 14.634 16.3545 14.622 16.4189C14.6649 16.5476 14.7019 16.6764 14.7019 16.8224V17.6809C14.8967 17.6903 15.0925 17.7066 15.2925 17.7066C18.997 17.7066 22 16.0506 22 14.0048V12.529ZM13.415 14.246C13.4133 16.2918 10.4119 17.9487 6.70748 17.9487C3.01335 17.9487 0.0171701 16.3098 0 14.2726V15.7218C0 17.7676 3.00219 19.4245 6.70748 19.4245C10.4128 19.4245 13.415 17.7676 13.415 15.7218V14.246ZM13.415 16.8215C13.4133 18.8673 10.4119 20.5242 6.70748 20.5242C3.01335 20.5242 0.0171701 18.8853 0 16.8481V18.2973C0 20.3431 3.00219 22 6.70748 22C10.4128 22 13.415 20.3431 13.415 18.2973V16.8215Z" fill="#7C7C7C"/>
</svg>
