<svg width="19" height="19" viewBox="0 0 19 19" fill="none" xmlns="http://www.w3.org/2000/svg">
  <path fill-rule="evenodd" clip-rule="evenodd" d="M0.938738 0.957472C1.21975 0.676548 1.60083 0.518734 1.99817 0.518734C2.39552 0.518734 2.7766 0.676548 3.05761 0.957472L9.49063 7.3905L15.9237 0.957472C16.0619 0.814351 16.2272 0.700192 16.4101 0.621658C16.5929 0.543123 16.7895 0.501786 16.9885 0.500057C17.1875 0.498328 17.3848 0.536242 17.5689 0.611587C17.7531 0.686933 17.9204 0.7982 18.0611 0.938898C18.2018 1.0796 18.3131 1.24691 18.3884 1.43106C18.4638 1.61522 18.5017 1.81254 18.4999 2.01151C18.4982 2.21048 18.4569 2.40711 18.3783 2.58994C18.2998 2.77276 18.1856 2.93811 18.0425 3.07634L11.6095 9.50937L18.0425 15.9424C18.3155 16.225 18.4665 16.6035 18.4631 16.9964C18.4597 17.3893 18.3021 17.7652 18.0243 18.043C17.7464 18.3208 17.3706 18.4784 16.9777 18.4818C16.5848 18.4853 16.2063 18.3342 15.9237 18.0613L9.49063 11.6282L3.05761 18.0613C2.77499 18.3342 2.39646 18.4853 2.00356 18.4818C1.61066 18.4784 1.23482 18.3208 0.956992 18.043C0.679159 17.7652 0.521564 17.3893 0.51815 16.9964C0.514736 16.6035 0.665776 16.225 0.938738 15.9424L7.37177 9.50937L0.938738 3.07634C0.657815 2.79533 0.5 2.41425 0.5 2.01691C0.5 1.61956 0.657815 1.23848 0.938738 0.957472Z" fill="white"/>
</svg>
