<svg width="31" height="31" viewBox="0 0 31 31" fill="none" xmlns="http://www.w3.org/2000/svg">
  <g filter="url(#filter0_d)">
    <circle cx="15.5" cy="13.5" r="11.5" fill="#E4252D"/>
  </g>
    <path d="M14.3133 14.5483C14.3589 15.0228 14.4361 15.3755 14.5424 15.6082C14.6501 15.8401 14.8411 15.9558 15.1169 15.9558C15.1685 15.9558 15.2146 15.9478 15.2604 15.9384C15.3073 15.9478 15.3532 15.9558 15.4051 15.9558C15.6802 15.9558 15.8718 15.8401 15.9789 15.6082C16.0858 15.3755 16.1617 15.0228 16.2082 14.5483L16.4531 10.8841C16.4986 10.1699 16.5219 9.6575 16.5219 9.34644C16.5219 8.92306 16.4114 8.59269 16.1898 8.3555C15.9674 8.11831 15.6753 8 15.3134 8C15.2941 8 15.2797 8.00431 15.2607 8.00506C15.2427 8.00431 15.2279 8 15.2092 8C14.8466 8 14.555 8.11831 14.333 8.3555C14.1112 8.59306 14 8.92362 14 9.34662C14 9.65769 14.0227 10.1701 14.069 10.8843L14.3133 14.5483Z" fill="white"/>
    <path d="M15.2699 17.2951C14.9186 17.2951 14.6201 17.4059 14.3722 17.6276C14.1245 17.8494 14.0004 18.1186 14.0004 18.4347C14.0004 18.7916 14.126 19.0724 14.3754 19.2764C14.6259 19.4804 14.918 19.5824 15.2519 19.5824C15.5919 19.5824 15.8883 19.4819 16.1418 19.2804C16.3949 19.0794 16.5215 18.797 16.5215 18.4351C16.5215 18.119 16.4004 17.8497 16.1581 17.6279C15.9159 17.4059 15.6198 17.2951 15.2694 17.2951" fill="white"/>
  <defs>
    <filter id="filter0_d" x="0" y="0" width="31" height="31" filterUnits="userSpaceOnUse" color-interpolation-filters="sRGB">
      <feFlood flood-opacity="0" result="BackgroundImageFix"/>
      <feColorMatrix in="SourceAlpha" type="matrix" values="0 0 0 0 0 0 0 0 0 0 0 0 0 0 0 0 0 0 127 0"/>
      <feOffset dy="2"/>
      <feGaussianBlur stdDeviation="2"/>
      <feColorMatrix type="matrix" values="0 0 0 0 0 0 0 0 0 0 0 0 0 0 0 0 0 0 0.25 0"/>
      <feBlend mode="normal" in2="BackgroundImageFix" result="effect1_dropShadow"/>
      <feBlend mode="normal" in="SourceGraphic" in2="effect1_dropShadow" result="shape"/>
    </filter>
  </defs>
</svg>
