<svg width="23" height="23" viewBox="0 0 23 23" fill="none" xmlns="http://www.w3.org/2000/svg">
  <circle cx="11.5" cy="11.5" r="11.5" fill="#E4252D"/>
  <path d="M10.3133 12.5483C10.3589 13.0228 10.4361 13.3755 10.5424 13.6082C10.6501 13.8401 10.8411 13.9558 11.1169 13.9558C11.1685 13.9558 11.2146 13.9478 11.2604 13.9384C11.3073 13.9478 11.3532 13.9558 11.4051 13.9558C11.6802 13.9558 11.8718 13.8401 11.9789 13.6082C12.0858 13.3755 12.1617 13.0228 12.2082 12.5483L12.4531 8.88412C12.4986 8.16994 12.5219 7.6575 12.5219 7.34644C12.5219 6.92306 12.4114 6.59269 12.1898 6.3555C11.9674 6.11831 11.6753 6 11.3134 6C11.2941 6 11.2797 6.00431 11.2607 6.00506C11.2427 6.00431 11.2279 6 11.2092 6C10.8466 6 10.555 6.11831 10.333 6.3555C10.1112 6.59306 10 6.92362 10 7.34662C10 7.65769 10.0227 8.17013 10.069 8.88431L10.3133 12.5483Z" fill="white"/>
  <path d="M11.2699 15.2951C10.9186 15.2951 10.6201 15.4059 10.3722 15.6276C10.1245 15.8494 10.0004 16.1186 10.0004 16.4347C10.0004 16.7916 10.126 17.0724 10.3754 17.2764C10.6259 17.4804 10.918 17.5824 11.2519 17.5824C11.5919 17.5824 11.8883 17.4819 12.1418 17.2804C12.3949 17.0794 12.5215 16.797 12.5215 16.4351C12.5215 16.119 12.4004 15.8497 12.1581 15.6279C11.9159 15.4059 11.6198 15.2951 11.2694 15.2951" fill="white"/>
</svg>

