<svg width="56" height="44" viewBox="0 0 56 44" fill="none" xmlns="http://www.w3.org/2000/svg">
  <path d="M51.3333 0.25H4.66667C2.1 0.25 0 2.425 0 5.08333V38.9167C0 41.575 2.1 43.75 4.66667 43.75H51.3333C53.9 43.75 55.9767 41.575 55.9767 38.9167L56 5.08333C56 2.425 53.9 0.25 51.3333 0.25ZM18.6667 7.5C22.54 7.5 25.6667 10.7383 25.6667 14.75C25.6667 18.7617 22.54 22 18.6667 22C14.7933 22 11.6667 18.7617 11.6667 14.75C11.6667 10.7383 14.7933 7.5 18.6667 7.5ZM32.6667 36.5H4.66667V34.0833C4.66667 29.25 14 26.5917 18.6667 26.5917C23.3333 26.5917 32.6667 29.25 32.6667 34.0833V36.5ZM41.65 26.8333H45.4767L49 31.6667L44.3567 36.4758C41.2654 34.0765 39.0261 30.6867 37.9867 26.8333C37.5667 25.2867 37.3333 23.6675 37.3333 22C37.3333 20.3325 37.5667 18.7133 37.9867 17.1667C39.0199 13.3104 41.2606 9.91867 44.3567 7.52417L49 12.3333L45.4767 17.1667H41.65C41.1367 18.6892 40.8333 20.3083 40.8333 22C40.8333 23.6917 41.1367 25.3108 41.65 26.8333V26.8333Z" fill="black"/>
</svg>
