<svg width="16" height="20" viewBox="0 0 16 20" fill="none" xmlns="http://www.w3.org/2000/svg">
  <path d="M8 4.5C7.32013 4.5 6.65552 4.70161 6.09023 5.07932C5.52493 5.45704 5.08434 5.99391 4.82416 6.62203C4.56399 7.25015 4.49591 7.94131 4.62855 8.60812C4.76119 9.27493 5.08858 9.88744 5.56932 10.3682C6.05006 10.8489 6.66257 11.1763 7.32938 11.3089C7.99619 11.4416 8.68735 11.3735 9.31547 11.1133C9.9436 10.8532 10.4805 10.4126 10.8582 9.84727C11.2359 9.28198 11.4375 8.61737 11.4375 7.9375C11.4365 7.02614 11.074 6.15241 10.4295 5.50798C9.78509 4.86355 8.91136 4.50105 8 4.5ZM8 10C7.59208 10 7.19331 9.87904 6.85414 9.65241C6.51496 9.42578 6.2506 9.10366 6.0945 8.72678C5.93839 8.34991 5.89755 7.93521 5.97713 7.53513C6.05671 7.13504 6.25315 6.76754 6.54159 6.47909C6.83004 6.19065 7.19754 5.99421 7.59763 5.91463C7.99771 5.83505 8.41241 5.87589 8.78928 6.032C9.16616 6.1881 9.48828 6.45246 9.71491 6.79164C9.94154 7.13081 10.0625 7.52958 10.0625 7.9375C10.0619 8.48432 9.84439 9.00857 9.45773 9.39523C9.07107 9.78189 8.54682 9.99939 8 10ZM8 0.375C5.995 0.377275 4.07277 1.17477 2.65502 2.59252C1.23727 4.01027 0.439775 5.9325 0.4375 7.9375C0.4375 10.6356 1.68445 13.4959 4.04369 16.209C5.10536 17.4349 6.30004 18.5389 7.60572 19.5007C7.72128 19.5816 7.85893 19.625 8 19.625C8.14107 19.625 8.27872 19.5816 8.39428 19.5007C9.69996 18.5389 10.8946 17.4349 11.9563 16.209C14.3155 13.4959 15.5625 10.6357 15.5625 7.9375C15.5602 5.9325 14.7627 4.01027 13.345 2.59252C11.9272 1.17477 10.005 0.377275 8 0.375ZM8 18.0764C6.5792 16.962 1.8125 12.8558 1.8125 7.9375C1.8125 6.29647 2.4644 4.72266 3.62478 3.56228C4.78516 2.4019 6.35897 1.75 8 1.75C9.64103 1.75 11.2148 2.4019 12.3752 3.56228C13.5356 4.72266 14.1875 6.29647 14.1875 7.9375C14.1875 12.8559 9.42055 16.9622 8 18.0764Z" fill="#7C7C7C"/>
</svg>
