<svg width="40" height="51" viewBox="0 0 40 51" fill="none" xmlns="http://www.w3.org/2000/svg">
  <path d="M34.9548 50.9167C36.2487 50.9167 37.4896 50.39 38.4046 49.4523C39.3195 48.5146 39.8335 47.2428 39.8335 45.9167V5.91675C39.8335 4.59067 39.3195 3.3189 38.4046 2.38121C37.4896 1.44353 36.2487 0.916748 34.9548 0.916748H5.71215C4.41825 0.916748 3.17735 1.44353 2.26242 2.38121C1.3475 3.3189 0.833496 4.59067 0.833496 5.91675V45.9167C0.833496 47.2428 1.3475 48.5146 2.26242 49.4523C3.17735 50.39 4.41825 50.9167 5.71215 50.9167H34.9548ZM13.0301 8.41675H27.6661V13.4167H13.0301V8.41675ZM25.8366 24.0417C25.8308 25.532 25.2508 26.9596 24.2228 28.0136C23.1949 29.0676 21.8022 29.6627 20.3481 29.6692C17.3356 29.6692 14.8596 27.1317 14.8596 24.0417C14.8596 20.9517 17.3356 18.4167 20.3481 18.4167C21.802 18.4227 23.1947 19.0172 24.2227 20.0708C25.2507 21.1244 25.8308 22.5517 25.8366 24.0417ZM9.37115 41.3867C9.37115 37.2267 14.3181 32.9492 20.3481 32.9492C26.3782 32.9492 31.3251 37.2267 31.3251 41.3867V42.7942H9.37115V41.3867Z" fill="black"/>
</svg>
