<svg width="99" height="95" viewBox="0 0 99 95" fill="none" xmlns="http://www.w3.org/2000/svg">
  <path d="M95.5311 34.0341L66.0251 29.7459L52.8352 3.00573C52.4749 2.2736 51.8823 1.68093 51.1501 1.32067C49.314 0.414228 47.0827 1.1696 46.1647 3.00573L32.9747 29.7459L3.46878 34.0341C2.65531 34.1503 1.91156 34.5338 1.34212 35.1148C0.653709 35.8224 0.274362 36.7743 0.287436 37.7614C0.300511 38.7485 0.704937 39.6901 1.41185 40.3792L22.7598 61.1925L17.7162 90.5823C17.598 91.266 17.6736 91.9691 17.9346 92.612C18.1956 93.2548 18.6315 93.8117 19.1929 94.2194C19.7543 94.6271 20.4187 94.8694 21.1108 94.9188C21.8028 94.9681 22.4949 94.8226 23.1084 94.4986L49.4999 80.623L75.8914 94.4986C76.6119 94.8821 77.4487 95.0099 78.2505 94.8705C80.2726 94.5218 81.6323 92.6044 81.2836 90.5823L76.2401 61.1925L97.588 40.3792C98.1691 39.8097 98.5526 39.066 98.6688 38.2525C98.9826 36.2188 97.5648 34.3362 95.5311 34.0341Z" fill="black"/>
</svg>
