<svg width="98" height="94" viewBox="0 0 98 94" fill="none" xmlns="http://www.w3.org/2000/svg">
  <path d="M94.8325 33.1001L65.454 28.8115L52.3211 2.0688C51.9624 1.3366 51.3723 0.743864 50.6433 0.383576C48.8151 -0.522956 46.5935 0.232487 45.6794 2.0688L32.5464 28.8115L3.16793 33.1001C2.35797 33.2163 1.61743 33.5998 1.05046 34.1809C0.365016 34.8886 -0.0126922 35.8406 0.000325673 36.8278C0.0133436 37.815 0.416023 38.7566 1.11988 39.4458L22.3756 60.2612L17.3538 89.6537C17.2361 90.3374 17.3114 91.0406 17.5713 91.6836C17.8312 92.3265 18.2652 92.8834 18.8241 93.2912C19.3831 93.6989 20.0446 93.9412 20.7337 93.9906C21.4228 94.0399 22.1118 93.8944 22.7227 93.5704L49.0002 79.6935L75.2777 93.5704C75.9951 93.9539 76.8282 94.0818 77.6266 93.9423C79.64 93.5936 80.9938 91.676 80.6466 89.6537L75.6249 60.2612L96.8806 39.4458C97.4591 38.8763 97.841 38.1325 97.9567 37.3189C98.2691 35.285 96.8574 33.4023 94.8325 33.1001V33.1001ZM66.6806 57.3324L70.8577 81.7739L49.0002 70.2446L27.1428 81.7855L31.3199 57.344L13.6396 40.0269L38.0773 36.4589L49.0002 14.2256L59.9232 36.4589L84.3609 40.0269L66.6806 57.3324Z" fill="black"/>
</svg>
