<svg width="19" height="19" viewBox="0 0 19 19" fill="none" xmlns="http://www.w3.org/2000/svg">
  <path d="M13.0625 7.125C13.0625 8.06983 12.6872 8.97597 12.0191 9.64407C11.351 10.3122 10.4448 10.6875 9.5 10.6875C8.55517 10.6875 7.64903 10.3122 6.98093 9.64407C6.31283 8.97597 5.9375 8.06983 5.9375 7.125C5.9375 6.18017 6.31283 5.27403 6.98093 4.60593C7.64903 3.93783 8.55517 3.5625 9.5 3.5625C10.4448 3.5625 11.351 3.93783 12.0191 4.60593C12.6872 5.27403 13.0625 6.18017 13.0625 7.125Z" fill="#7C7C7C"/>
  <path fill-rule="evenodd" clip-rule="evenodd" d="M0 9.5C0 6.98044 1.00089 4.56408 2.78249 2.78249C4.56408 1.00089 6.98044 0 9.5 0C12.0196 0 14.4359 1.00089 16.2175 2.78249C17.9991 4.56408 19 6.98044 19 9.5C19 12.0196 17.9991 14.4359 16.2175 16.2175C14.4359 17.9991 12.0196 19 9.5 19C6.98044 19 4.56408 17.9991 2.78249 16.2175C1.00089 14.4359 0 12.0196 0 9.5ZM9.5 1.1875C7.93461 1.18758 6.40106 1.62968 5.07585 2.46291C3.75065 3.29614 2.68765 4.48663 2.00921 5.89736C1.33077 7.30808 1.06446 8.88171 1.24094 10.4371C1.41741 11.9925 2.0295 13.4665 3.00675 14.6894C3.84987 13.3309 5.70594 11.875 9.5 11.875C13.2941 11.875 15.1489 13.3297 15.9933 14.6894C16.9705 13.4665 17.5826 11.9925 17.7591 10.4371C17.9355 8.88171 17.6692 7.30808 16.9908 5.89736C16.3124 4.48663 15.2494 3.29614 13.9241 2.46291C12.5989 1.62968 11.0654 1.18758 9.5 1.1875Z" fill="#7C7C7C"/>
</svg>
